<svg width="60" height="61" viewBox="0 0 60 61" fill="none" xmlns="http://www.w3.org/2000/svg">
<path fill-rule="evenodd" clip-rule="evenodd" d="M27.8812 0.642858C21.3818 1.26571 16.1927 3.32489 11.4071 7.18023C5.4421 11.9857 1.63116 18.8038 0.551648 26.6014C0.351274 28.0489 0.351274 32.5924 0.551648 34.0399C1.48785 40.8027 4.35654 46.6309 9.06789 51.3422C17.5369 59.8114 30.0735 62.3678 41.2416 57.9031C46.7691 55.6933 51.6527 51.6657 55.0367 46.5259C58.325 41.5316 60.0379 35.3536 59.8037 29.3327C59.5597 23.0561 57.6294 17.6191 53.7278 12.2184L53.5388 11.9569H54.5467C55.6748 11.9569 56.1156 11.8 56.3339 11.3209C56.6268 10.6781 56.4587 10.0999 55.894 9.80787C55.622 9.66724 55.0567 9.63237 53.0517 9.63237H50.549L50.1694 9.97152L49.7898 10.3107V12.984C49.7898 15.649 49.7907 15.6583 50.0699 15.9555C50.4058 16.313 50.9974 16.4485 51.3757 16.2542C51.9051 15.9826 52.0506 15.6728 52.0568 14.8044L52.0625 13.9908L52.4031 14.3976C52.8915 14.9806 54.4104 17.5504 54.9115 18.6415C56.0286 21.0736 56.8412 23.7884 57.2419 26.427C57.397 27.4483 57.4536 28.4909 57.4536 30.3206C57.4536 33.1517 57.2771 34.638 56.6459 37.1199C55.4396 41.8623 52.9914 46.1328 49.4465 49.6776C45.8958 53.2284 41.6392 55.6687 36.8887 56.877C34.4081 57.5079 32.9204 57.6848 30.0895 57.6853C27.335 57.6858 25.9598 57.5283 23.5227 56.9335C18.6346 55.7403 13.8342 52.9752 10.3886 49.3679C6.33843 45.1277 3.84027 40.0671 2.93649 34.2723C2.645 32.4028 2.645 28.2384 2.93649 26.3689C3.1772 24.8259 3.77901 22.4003 4.23427 21.1388C7.38261 12.4145 14.805 5.7589 23.7406 3.64754C26.4294 3.01213 29.3224 2.81164 32.975 3.00748L34.0592 3.06559L34.3988 2.686C34.8929 2.13392 34.8071 1.37183 34.2066 0.978403C33.7332 0.668195 29.796 0.459453 27.8812 0.642858ZM37.3872 2.06581C37.0797 2.34046 37.0102 2.48923 37.0102 2.87277C37.0102 3.44379 37.3857 3.9001 37.9411 4.00423C39.0296 4.20844 39.7208 2.8579 38.9316 2.06872C38.4687 1.60579 37.9031 1.60475 37.3872 2.06581ZM27.5137 8.28833C24.4579 8.6792 21.4657 9.66782 19.048 11.0852C17.9961 11.7019 17.7695 11.955 17.7695 12.5134C17.7695 13.024 17.9333 13.3101 18.3483 13.5248C18.8147 13.766 19.0267 13.7468 19.6309 13.4087C22.0444 12.0584 24.0516 11.2749 26.3702 10.7781C28.0144 10.426 31.8913 10.392 33.5181 10.7158C38.8411 11.7749 43.2386 14.5779 46.2893 18.8562C48.9232 22.5499 50.263 27.4107 49.8687 31.843C49.7215 33.4987 49.2944 35.5911 48.8402 36.8827C48.3703 38.2189 47.1107 40.6442 46.2723 41.827C45.2669 43.2455 43.0059 45.5055 41.6064 46.4907C36.8685 49.8265 30.9199 50.966 25.3823 49.5985C14.9809 47.0298 8.53313 36.786 10.6817 26.2429C11.1093 24.1446 12.0009 21.8402 13.0586 20.0988C13.5683 19.2597 13.5858 18.8324 13.1315 18.3238C12.8481 18.0067 12.7168 17.9479 12.3143 17.9585C11.7128 17.9743 11.514 18.1534 10.8614 19.2672C8.62053 23.0921 7.56125 27.9856 8.01244 32.4294C8.5573 37.795 10.8567 42.5356 14.716 46.2499C18.0566 49.4647 21.772 51.3463 26.4347 52.1844C28.4609 52.5486 31.6634 52.5472 33.7506 52.1814C38.599 51.3313 42.6603 49.1838 46.0187 45.6941C49.2409 42.346 51.1428 38.5869 51.9516 33.9679C52.3225 31.8502 52.3225 28.7911 51.9516 26.6733C51.1428 22.0544 49.2409 18.2953 46.0187 14.9472C42.6962 11.4949 38.5161 9.273 33.8087 8.45721C32.0642 8.1549 29.1645 8.07715 27.5137 8.28833ZM29.4348 12.8602C29.0243 13.1927 28.9272 13.5208 28.9272 14.5759C28.9272 15.5664 28.9337 15.5897 29.3224 15.9783C29.7617 16.4177 30.1318 16.4777 30.6729 16.198C31.1706 15.9405 31.2517 15.6961 31.2517 14.4545C31.2517 13.3707 31.2406 13.3225 30.912 12.994C30.5129 12.5949 29.8378 12.5337 29.4348 12.8602ZM14.4454 14.6766C14.0106 15.1114 13.946 15.486 14.2159 16.008C14.3879 16.3407 14.83 16.6059 15.2125 16.6059C15.8014 16.6059 16.3748 16.0382 16.3748 15.4549C16.3748 15.062 16.1132 14.621 15.7768 14.447C15.2548 14.1772 14.8802 14.2418 14.4454 14.6766ZM40.2593 18.6458C40.0675 18.7443 38.1251 20.6075 35.9429 22.7865L31.9752 26.7484L31.4184 26.5586C30.7055 26.3157 29.4737 26.3157 28.761 26.5585L28.2046 26.7481L26.2124 24.7694C25.1166 23.6812 24.1058 22.7329 23.9662 22.6621C22.9749 22.1598 21.9287 23.2061 22.431 24.1974C22.5018 24.337 23.4501 25.3478 24.5383 26.4435L26.5169 28.4358L26.3274 28.9922C25.8369 30.4317 26.2125 32.0411 27.2907 33.1193C28.4214 34.25 30.0411 34.5916 31.5661 34.0209C32.4837 33.6776 33.4464 32.7149 33.7898 31.7973C34.0963 30.9783 34.1228 29.7878 33.8522 28.9939L33.6633 28.4395L37.7304 24.3532C40.4259 21.6452 41.823 20.1595 41.8731 19.9484C41.9914 19.4488 41.6756 18.8357 41.197 18.6357C40.6951 18.426 40.6877 18.4262 40.2593 18.6458ZM30.9845 28.9213C31.993 29.5361 31.951 31.2316 30.914 31.7678C29.781 32.3538 28.4638 31.5887 28.4628 30.3439C28.4618 29.3519 29.1104 28.6943 30.0895 28.6943C30.4036 28.6943 30.761 28.7849 30.9845 28.9213ZM12.7628 29.4981C12.3171 29.9438 12.2918 30.6099 12.7038 31.0545C13.0671 31.4465 13.3792 31.5168 14.5249 31.4649C15.4172 31.4243 15.4841 31.4023 15.8044 31.0439C16.1813 30.6221 16.2283 30.243 15.9668 29.7372C15.7094 29.2395 15.465 29.1584 14.2233 29.1584C13.1395 29.1584 13.0914 29.1695 12.7628 29.4981ZM44.4169 29.5684C44.0436 29.9417 44.0128 30.0224 44.0726 30.4689C44.117 30.7999 44.2374 31.0446 44.4427 31.2211C44.7144 31.455 44.8711 31.4829 45.9117 31.4829C47.044 31.4829 47.0858 31.4735 47.4161 31.1432C47.9863 30.5728 47.8291 29.6635 47.0952 29.2882C46.9555 29.2168 46.3881 29.1584 45.8342 29.1584C44.8365 29.1584 44.823 29.1623 44.4169 29.5684ZM29.5498 44.3831C29.0513 44.5841 28.9272 44.9389 28.9272 46.1621C28.9272 47.2731 28.9374 47.3178 29.2669 47.6473C29.8373 48.2175 30.7466 48.0602 31.1219 47.3264C31.1933 47.1867 31.2517 46.6192 31.2517 46.0653C31.2517 45.0748 31.2452 45.0516 30.8566 44.6629C30.4495 44.2559 30.0676 44.1741 29.5498 44.3831Z" fill="url(#paint0_linear_14_312)"/>
<defs>
<linearGradient id="paint0_linear_14_312" x1="0.401367" y1="30.3218" x2="59.8249" y2="30.3218" gradientUnits="userSpaceOnUse">
<stop stop-color="#0BA360"/>
<stop offset="1" stop-color="#3CBA92"/>
</linearGradient>
</defs>
</svg>
