<svg width="60" height="61" viewBox="0 0 60 61" fill="none" xmlns="http://www.w3.org/2000/svg">
<path fill-rule="evenodd" clip-rule="evenodd" d="M13.2087 1.01421C12.0662 1.31446 11.0624 2.13851 10.5475 3.19912C10.292 3.7254 10.2392 4.04585 10.1972 5.32727L10.1478 6.83584L7.0863 6.87624L4.02492 6.91663L3.08898 7.37946C1.9617 7.93684 1.25897 8.65482 0.713487 9.80638L0.321289 10.6341V31.6445V52.6549L0.784119 53.5912C1.3415 54.7191 2.05898 55.4216 3.21104 55.9674L4.0388 56.3596L18.6952 56.393L33.3515 56.4265L33.6582 56.1198C34.063 55.7149 34.064 55.1464 33.6606 54.743L33.3565 54.4388H19.0837C8.23996 54.4388 4.6885 54.4026 4.30101 54.2882C3.62033 54.087 2.5938 53.0605 2.39269 52.3798C2.27794 51.9912 2.242 48.1626 2.242 36.3016V20.7334H29.9994H57.7569V29.3512V37.9691L58.0611 38.2732C58.4646 38.6768 59.033 38.6757 59.438 38.2706L59.7449 37.9638L59.7112 24.299L59.6776 10.6341L59.2854 9.80638C58.7399 8.65482 58.0372 7.93684 56.9099 7.37946L55.9739 6.91663L52.9147 6.87624L49.8554 6.83584L49.8041 5.32727C49.7554 3.89739 49.7309 3.77781 49.3335 3.03493C48.8793 2.18573 48.3539 1.68237 47.4756 1.25461C46.6481 0.851635 45.0474 0.864894 44.1879 1.28175C43.3981 1.6649 42.654 2.4089 42.2703 3.19912C42.0144 3.72614 41.9621 4.0456 41.9198 5.33669L41.8699 6.85467H37.9324H33.9946L33.943 5.33669C33.894 3.89628 33.87 3.77868 33.4721 3.03493C33.0179 2.18573 32.4925 1.68237 31.6142 1.25461C30.7867 0.851635 29.186 0.864894 28.3266 1.28175C27.5367 1.6649 26.7926 2.4089 26.4089 3.19912C26.153 3.72614 26.1008 4.0456 26.0584 5.33669L26.0086 6.85467H22.071H18.1333L18.0816 5.33669C18.0326 3.89628 18.0086 3.77868 17.6107 3.03493C16.9211 1.7457 15.8423 1.05015 14.3999 0.964895C13.9492 0.938253 13.4131 0.960434 13.2087 1.01421ZM15.2239 3.22043C15.402 3.3534 15.6627 3.61622 15.8032 3.80445C16.048 4.13222 16.0588 4.30297 16.0588 7.84601C16.0588 11.389 16.048 11.5598 15.8032 11.8876C15.3177 12.5378 14.9217 12.7407 14.138 12.7407C13.3545 12.7407 12.9586 12.538 12.4728 11.8878C12.2318 11.5654 12.2152 11.3544 12.1794 8.17798C12.1586 6.32567 12.1748 4.63049 12.2153 4.41091C12.3068 3.91623 12.8255 3.28413 13.3264 3.05674C13.828 2.82923 14.8138 2.91423 15.2239 3.22043ZM31.0853 3.22043C31.2634 3.3534 31.5241 3.61622 31.6646 3.80445C31.9094 4.13222 31.9201 4.30297 31.9201 7.84601C31.9201 11.389 31.9094 11.5598 31.6646 11.8876C31.1791 12.5378 30.7831 12.7407 29.9994 12.7407C29.2159 12.7407 28.82 12.538 28.3342 11.8878C28.0932 11.5654 28.0766 11.3544 28.0408 8.17798C28.02 6.32567 28.0362 4.63049 28.0767 4.41091C28.1682 3.91623 28.6869 3.28413 29.1878 3.05674C29.6894 2.82923 30.6752 2.91423 31.0853 3.22043ZM46.9467 3.22043C47.1248 3.3534 47.3855 3.61622 47.526 3.80445C47.7708 4.13222 47.7815 4.30297 47.7815 7.84601C47.7815 11.389 47.7708 11.5598 47.526 11.8876C47.0405 12.5378 46.6445 12.7407 45.8608 12.7407C45.0773 12.7407 44.6814 12.538 44.1956 11.8878C43.9546 11.5654 43.938 11.3544 43.9022 8.17798C43.8814 6.32567 43.8976 4.63049 43.9381 4.41091C44.0296 3.91623 44.5483 3.28413 45.0492 3.05674C45.5508 2.82923 46.5365 2.91423 46.9467 3.22043ZM10.1983 10.3553C10.2433 11.583 10.3055 11.9808 10.524 12.4348C10.9438 13.3077 11.4488 13.8367 12.301 14.2961C13.0173 14.6824 13.1753 14.7188 14.138 14.7188C15.1 14.7188 15.2591 14.6823 15.9721 14.2978C16.8436 13.8277 17.2205 13.4368 17.6992 12.5062C17.9851 11.9501 18.0313 11.6889 18.079 10.3553L18.1333 8.83735H22.0687H26.0042L26.0597 10.3553C26.1047 11.583 26.1669 11.9808 26.3854 12.4348C26.8052 13.3077 27.3102 13.8367 28.1624 14.2961C28.8807 14.6835 29.0341 14.7186 29.9994 14.7161C30.8945 14.7137 31.1478 14.6639 31.6856 14.3845C32.6209 13.8985 33.009 13.5229 33.4737 12.6541C33.8697 11.9138 33.894 11.7945 33.943 10.3553L33.9946 8.83735H37.9301H41.8656L41.9211 10.3553C41.9661 11.583 42.0283 11.9808 42.2468 12.4348C42.6666 13.3077 43.1716 13.8367 44.0237 14.2961C44.7401 14.6824 44.8981 14.7188 45.8608 14.7188C46.8228 14.7188 46.9819 14.6823 47.6949 14.2978C48.5664 13.8277 48.9433 13.4368 49.4219 12.5062C49.7078 11.9501 49.754 11.6889 49.8018 10.3553L49.856 8.83735H52.522C54.2529 8.83735 55.3667 8.89026 55.6979 8.98803C56.3785 9.18915 57.4051 10.2157 57.6062 10.8964C57.7096 11.2465 57.7569 12.5576 57.7569 15.0786V18.7507H29.9994H2.242V15.0786C2.242 12.5576 2.28922 11.2465 2.39269 10.8964C2.57918 10.2651 3.61649 9.19101 4.22468 8.99931C4.48044 8.91876 5.78368 8.85742 7.40055 8.84999L10.1428 8.83735L10.1983 10.3553ZM9.36104 25.8607C8.85992 26.0839 8.34207 26.7155 8.24764 27.2187C8.20576 27.4421 8.18953 28.4682 8.21171 29.4989C8.25558 31.5391 8.3132 31.7207 9.10515 32.312C9.42634 32.5517 9.61358 32.5675 12.1554 32.5675C14.6972 32.5675 14.8844 32.5517 15.2056 32.312C16.0286 31.6974 16.0588 31.5862 16.0588 29.1597C16.0588 27.1186 16.0389 26.9209 15.8032 26.6052C15.1814 25.7724 15.1124 25.7549 12.3016 25.7223C10.3584 25.6997 9.64766 25.7332 9.36104 25.8607ZM21.2571 25.8607C20.756 26.0839 20.2381 26.7155 20.1437 27.2187C20.1018 27.4421 20.0856 28.4682 20.1077 29.4989C20.1516 31.5391 20.2092 31.7207 21.0012 32.312C21.3224 32.5517 21.5096 32.5675 24.0514 32.5675C26.5932 32.5675 26.7804 32.5517 27.1016 32.312C27.9247 31.6974 27.9548 31.5862 27.9548 29.1597C27.9548 27.1186 27.935 26.9209 27.6993 26.6052C27.0775 25.7724 27.0084 25.7549 24.1976 25.7223C22.2545 25.6997 21.5437 25.7332 21.2571 25.8607ZM33.1531 25.8607C32.652 26.0839 32.1342 26.7155 32.0397 27.2187C31.9978 27.4421 31.9816 28.4682 32.0038 29.4989C32.0477 31.5391 32.1053 31.7207 32.8972 32.312C33.2184 32.5517 33.4057 32.5675 35.9475 32.5675C38.4892 32.5675 38.6765 32.5517 38.9977 32.312C39.8207 31.6974 39.8508 31.5862 39.8508 29.1597C39.8508 27.1186 39.831 26.9209 39.5953 26.6052C38.9735 25.7724 38.9045 25.7549 36.0937 25.7223C34.1505 25.6997 33.4397 25.7332 33.1531 25.8607ZM45.0492 25.8607C44.548 26.0839 44.0302 26.7155 43.9358 27.2187C43.8939 27.4421 43.8776 28.4682 43.8998 29.4989C43.9437 31.5391 44.0013 31.7207 44.7933 32.312C45.1145 32.5517 45.3017 32.5675 47.8435 32.5675C50.3853 32.5675 50.5725 32.5517 50.8937 32.312C51.7168 31.6974 51.7469 31.5862 51.7469 29.1597C51.7469 27.1186 51.7271 26.9209 51.4914 26.6052C50.8695 25.7724 50.8005 25.7549 47.9897 25.7223C46.0466 25.6997 45.3358 25.7332 45.0492 25.8607ZM14.138 29.1597V30.6468H12.1554H10.1727V29.1597V27.6727H12.1554H14.138V29.1597ZM26.0341 29.1597V30.6468H24.0514H22.0687V29.1597V27.6727H24.0514H26.0341V29.1597ZM37.9301 29.1597V30.6468H35.9475H33.9648V29.1597V27.6727H35.9475H37.9301V29.1597ZM49.8262 29.1597V30.6468H47.8435H45.8608V29.1597V27.6727H47.8435H49.8262V29.1597ZM9.36104 34.7827C8.85992 35.0059 8.34207 35.6375 8.24764 36.1407C8.20576 36.3642 8.18953 37.3902 8.21171 38.4209C8.25558 40.4611 8.3132 40.6428 9.10515 41.234C9.42634 41.4738 9.61358 41.4895 12.1554 41.4895C14.6972 41.4895 14.8844 41.4738 15.2056 41.234C16.0286 40.6195 16.0588 40.5082 16.0588 38.0818C16.0588 36.0406 16.0389 35.843 15.8032 35.5272C15.1814 34.6944 15.1124 34.6769 12.3016 34.6443C10.3584 34.6218 9.64766 34.6552 9.36104 34.7827ZM21.2571 34.7827C20.756 35.0059 20.2381 35.6375 20.1437 36.1407C20.1018 36.3642 20.0856 37.3902 20.1077 38.4209C20.1516 40.4611 20.2092 40.6428 21.0012 41.234C21.3224 41.4738 21.5096 41.4895 24.0514 41.4895C26.5932 41.4895 26.7804 41.4738 27.1016 41.234C27.9247 40.6195 27.9548 40.5082 27.9548 38.0818C27.9548 36.0406 27.935 35.843 27.6993 35.5272C27.0775 34.6944 27.0084 34.6769 24.1976 34.6443C22.2545 34.6218 21.5437 34.6552 21.2571 34.7827ZM33.1531 34.7865C32.6539 35.0039 32.1344 35.6357 32.0397 36.1407C31.9978 36.3642 31.9816 37.3902 32.0038 38.4209C32.0395 40.0837 32.0729 40.3336 32.2996 40.6368C32.7064 41.1809 33.1508 41.4501 33.7554 41.5181C34.2406 41.5729 34.3614 41.5378 34.6369 41.2624C35.0545 40.8448 35.0607 40.2817 34.6519 39.873C34.4846 39.7057 34.2616 39.5688 34.1562 39.5688C33.9941 39.5688 33.9648 39.3404 33.9648 38.0818V36.5948H36.1389C38.2822 36.5948 38.3175 36.5904 38.6172 36.2906C38.8091 36.0989 38.9215 35.8448 38.9215 35.6034C38.9215 35.362 38.8091 35.108 38.6172 34.9163C38.315 34.614 38.2985 34.6121 35.9221 34.6169C34.2157 34.6204 33.4229 34.669 33.1531 34.7865ZM44.7234 34.7976C40.1355 35.5697 36.2 38.8924 34.6938 43.2657C33.7715 45.9437 33.7534 48.9633 34.6438 51.5816C36.1113 55.8957 39.7498 59.1393 44.1879 60.0892C47.6621 60.8328 51.4503 60.0432 54.3491 57.9712C55.2245 57.3454 56.7179 55.8566 57.3213 55.0079C58.4162 53.4678 59.3218 51.1957 59.6073 49.2725C60.0797 46.0897 59.1535 42.4423 57.2199 39.8703C56.5599 38.9924 54.9608 37.4339 54.1421 36.8706C51.4921 35.0474 47.916 34.2604 44.7234 34.7976ZM14.138 38.0818V39.5688H12.1554H10.1727V38.0818V36.5948H12.1554H14.138V38.0818ZM26.0341 38.0818V39.5688H24.0514H22.0687V38.0818V36.5948H24.0514H26.0341V38.0818ZM49.5164 36.9405C53.5491 38.0449 56.3789 40.906 57.4577 44.9696C57.7971 46.2483 57.7782 48.8389 57.4197 50.1637C56.3478 54.1242 53.4769 56.9951 49.5164 58.067C48.1916 58.4255 45.601 58.4445 44.3223 58.105C39.536 56.8344 36.2965 52.9578 35.9835 48.1263C35.7844 45.0537 36.934 42.062 39.1743 39.8216C40.8067 38.1891 42.6631 37.2042 44.9314 36.7673C46.094 36.5432 48.3813 36.6297 49.5164 36.9405ZM52.9241 43.1237C52.8219 43.1599 50.9679 44.9534 48.8042 47.1091L44.8703 51.0289L43.0421 49.2047C40.9304 47.0977 40.677 46.964 40.0272 47.6139C39.3544 48.2866 39.4697 48.4798 42.12 51.1241C44.2318 53.2309 44.4883 53.4475 44.872 53.4475C45.2624 53.4475 45.6275 53.116 49.614 49.1414C51.9894 46.773 54.0127 44.6847 54.1101 44.5007C54.3666 44.0158 54.3315 43.8072 53.925 43.4007C53.577 43.0527 53.3235 42.9826 52.9241 43.1237ZM9.36104 43.7048C8.85992 43.9279 8.34207 44.5595 8.24764 45.0628C8.20576 45.2862 8.18953 46.3122 8.21171 47.343C8.25558 49.3831 8.3132 49.5648 9.10515 50.156C9.42634 50.3958 9.61358 50.4115 12.1554 50.4115C14.6972 50.4115 14.8844 50.3958 15.2056 50.156C16.0286 49.5415 16.0588 49.4302 16.0588 47.0038C16.0588 44.9626 16.0389 44.765 15.8032 44.4493C15.1814 43.6164 15.1124 43.5989 12.3016 43.5663C10.3584 43.5438 9.64766 43.5773 9.36104 43.7048ZM21.2571 43.7048C20.756 43.9279 20.2381 44.5595 20.1437 45.0628C20.1018 45.2862 20.0856 46.3122 20.1077 47.343C20.1516 49.3831 20.2092 49.5648 21.0012 50.156C21.3224 50.3958 21.5096 50.4115 24.0514 50.4115C26.5932 50.4115 26.7804 50.3958 27.1016 50.156C27.9247 49.5415 27.9548 49.4302 27.9548 47.0038C27.9548 44.9626 27.935 44.765 27.6993 44.4493C27.0775 43.6164 27.0084 43.5989 24.1976 43.5663C22.2545 43.5438 21.5437 43.5773 21.2571 43.7048ZM14.138 47.0038V48.4908H12.1554H10.1727V47.0038V45.5168H12.1554H14.138V47.0038ZM26.0341 47.0038V48.4908H24.0514H22.0687V47.0038V45.5168H24.0514H26.0341V47.0038Z" fill="url(#paint0_linear_14_315)"/>
<defs>
<linearGradient id="paint0_linear_14_315" x1="0.321289" y1="30.6585" x2="59.7449" y2="30.6585" gradientUnits="userSpaceOnUse">
<stop stop-color="#0BA360"/>
<stop offset="1" stop-color="#3CBA92"/>
</linearGradient>
</defs>
</svg>
