<svg width="60" height="61" viewBox="0 0 60 61" fill="none" xmlns="http://www.w3.org/2000/svg">
<path fill-rule="evenodd" clip-rule="evenodd" d="M26.4501 0.991545C25.8709 1.13842 25.1437 1.56008 24.6936 2.01012C23.9414 2.76251 23.7513 3.37058 23.4068 6.12837C23.2357 7.49813 23.0483 8.68149 22.9902 8.75824C22.9321 8.83487 22.6926 8.95779 22.4579 9.03117C22.2232 9.10466 21.4921 9.40178 20.8333 9.69157L19.6355 10.2182L19.2053 9.87764C17.1888 8.28087 15.6664 7.15276 15.2282 6.93053C14.5138 6.56829 13.3847 6.49538 12.4867 6.75342C11.8214 6.9446 11.7049 7.04426 9.10337 9.64576C6.50188 12.2473 6.40222 12.3638 6.21104 13.0291C5.9523 13.9293 6.02579 15.057 6.38966 15.7706C6.53641 16.0584 7.2688 17.0788 8.01724 18.0382C9.86181 20.4026 9.73843 20.1284 9.32816 20.9512C9.13849 21.3317 8.83789 22.0356 8.6602 22.5153C8.48251 22.995 8.27842 23.4444 8.20679 23.5138C8.13504 23.5833 6.95145 23.7816 5.57633 23.9546C2.81075 24.3026 2.21559 24.4882 1.46692 25.2368C1.2326 25.4711 0.89699 25.9358 0.721161 26.2695L0.401367 26.8761V30.5974V34.3186L0.706044 34.9682C0.873616 35.3256 1.20923 35.8164 1.4518 36.0591C2.21884 36.826 2.84122 37.0257 5.479 37.3505C6.77969 37.5106 7.94874 37.6851 8.07701 37.7381C8.21772 37.7962 8.3968 38.0823 8.52902 38.4605C8.64938 38.8048 8.9572 39.5435 9.21303 40.102C9.53422 40.8031 9.64342 41.163 9.56574 41.2649C9.50387 41.346 8.82393 42.2234 8.0548 43.2147C7.28566 44.2061 6.53641 45.2527 6.38966 45.5405C6.02579 46.254 5.9523 47.3818 6.21104 48.282C6.40222 48.9473 6.50188 49.0638 9.10337 51.6653C11.7049 54.2668 11.8214 54.3665 12.4867 54.5576C13.3847 54.8157 14.5138 54.7428 15.2282 54.3805C15.6664 54.1583 17.1888 53.0302 19.2053 51.4334L19.6355 51.0928L20.8333 51.6195C21.4921 51.9093 22.2232 52.2064 22.4579 52.2799C22.6926 52.3533 22.9321 52.4762 22.9902 52.5528C23.0483 52.6296 23.2357 53.8129 23.4068 55.1827C23.7529 57.9526 23.9403 58.5475 24.7096 59.3169C24.9523 59.5595 25.4431 59.8951 25.8005 60.0626L26.4501 60.3673H30.1132H33.7762L34.4258 60.0626C34.7832 59.8951 35.2741 59.5595 35.5167 59.3169C36.2943 58.5393 36.4866 57.9285 36.8232 55.1687C36.9893 53.8067 37.1828 52.6336 37.2533 52.5619C37.3236 52.4903 37.7737 52.2862 38.2534 52.1085C38.7331 51.9308 39.437 51.6302 39.8175 51.4405C40.6403 51.0303 40.3661 50.9069 42.7305 52.7514C43.6899 53.4999 44.7103 54.2323 44.9981 54.379C45.7117 54.7429 46.8394 54.8164 47.7396 54.5576C48.4049 54.3665 48.5214 54.2668 51.1229 51.6653C53.7244 49.0638 53.8241 48.9473 54.0153 48.282C54.2735 47.3832 54.2005 46.2537 53.8382 45.5441C53.6266 45.1299 52.5318 43.6539 50.6666 41.2685C50.5894 41.1698 50.7188 40.7502 51.079 39.9312C51.3677 39.2747 51.664 38.5455 51.7375 38.3108C51.8109 38.076 51.9338 37.8366 52.0104 37.7785C52.0872 37.7204 53.2705 37.533 54.6403 37.3619C57.4102 37.0158 58.0051 36.8284 58.7745 36.0591C59.0171 35.8164 59.3527 35.3256 59.5203 34.9682L59.8249 34.3186V30.6555V26.9924L59.5203 26.3428C59.3527 25.9855 59.0171 25.4946 58.7745 25.2519C58.0071 24.4846 57.4 24.292 54.6019 23.9279C53.2168 23.7476 52.04 23.5523 51.987 23.4938C51.9339 23.4353 51.7447 22.995 51.5668 22.5153C51.3888 22.0356 51.0878 21.3317 50.8981 20.9512C50.4879 20.1284 50.3645 20.4026 52.2091 18.0382C52.9575 17.0788 53.6899 16.0584 53.8366 15.7706C54.2005 15.057 54.274 13.9293 54.0153 13.0291C53.8241 12.3638 53.7244 12.2473 51.1229 9.64576C48.5214 7.04426 48.4049 6.9446 47.7396 6.75342C46.8394 6.49468 45.7117 6.56817 44.9981 6.93204C44.7103 7.0788 43.6899 7.81118 42.7305 8.55962C40.3661 10.4042 40.6403 10.2808 39.8175 9.87054C39.437 9.68088 38.7331 9.38027 38.2534 9.20258C37.7737 9.02489 37.3242 8.8208 37.2546 8.74917C37.1849 8.67742 36.9885 7.49813 36.8181 6.12837C36.4736 3.35814 36.2866 2.76413 35.5167 1.99419C35.2741 1.75161 34.7832 1.416 34.4258 1.24843L33.7762 0.94375L30.2876 0.9234C28.3688 0.912352 26.6419 0.942936 26.4501 0.991545ZM33.3581 3.47478C33.9873 3.79817 34.0623 4.05075 34.4699 7.21799C34.7676 9.5304 34.9052 10.282 35.0721 10.5055C35.2259 10.7115 35.6935 10.938 36.6914 11.2896C37.463 11.5615 38.6611 12.0594 39.3538 12.3961C40.4617 12.9345 40.6571 12.9948 40.9766 12.8966C41.1764 12.8353 42.4096 11.9523 43.7171 10.9346C46.921 8.44031 46.4065 8.39984 49.3877 11.381C52.3684 14.3618 52.3304 13.8327 49.7996 17.1006C48.7627 18.4393 47.8813 19.6853 47.8409 19.8694C47.7837 20.1299 47.9021 20.4785 48.3757 21.4434C48.7103 22.1249 49.1873 23.2524 49.4357 23.9487C49.9814 25.4787 50.0497 25.6121 50.3753 25.7863C50.5156 25.8614 51.962 26.0942 53.5895 26.3038C56.7154 26.706 56.9711 26.7824 57.2939 27.4106C57.4971 27.8059 57.4971 33.5052 57.2939 33.9005C56.9712 34.5285 56.7148 34.6052 53.5842 35.0102C51.9539 35.2211 50.5076 35.454 50.3701 35.5275C50.0497 35.699 49.9805 35.8352 49.4306 37.3767C49.1794 38.0809 48.6999 39.2165 48.3653 39.9001C47.8256 41.0024 47.7695 41.185 47.8701 41.5127C47.9324 41.716 48.8163 42.952 49.8341 44.2595C52.3284 47.4633 52.3689 46.9489 49.3877 49.93C46.4068 52.9108 46.936 52.8727 43.6681 50.3419C42.3294 49.3051 41.0834 48.4236 40.8993 48.3833C40.6388 48.3261 40.2902 48.4445 39.3253 48.9181C38.6437 49.2527 37.5088 49.7318 36.8032 49.9828C36.0978 50.2338 35.405 50.5142 35.2637 50.6058C34.9042 50.8392 34.8068 51.2759 34.425 54.3651C34.0694 57.2423 33.986 57.5136 33.3581 57.8363C32.9628 58.0394 27.2635 58.0394 26.8682 57.8363C26.2367 57.5117 26.1619 57.2596 25.7591 54.0967C25.4614 51.7594 25.33 51.041 25.158 50.8106C24.9997 50.5986 24.5449 50.3774 23.5378 50.0225C22.7678 49.7511 21.5785 49.2552 20.8948 48.9204C19.9193 48.4428 19.5788 48.3279 19.3126 48.3864C19.126 48.4275 17.9617 49.2478 16.7253 50.2094C15.489 51.1711 14.326 52.0362 14.141 52.1319C13.4629 52.4825 13.2359 52.3305 10.8081 49.9002C7.8635 46.9527 7.89851 47.4751 10.4267 44.2105C11.4636 42.8718 12.3438 41.6311 12.3828 41.4536C12.4366 41.209 12.3086 40.8323 11.8543 39.8974C11.5246 39.2188 11.0467 38.0786 10.7922 37.3634C10.5378 36.6481 10.2545 35.9474 10.1629 35.8061C9.92949 35.4466 9.49282 35.3492 6.40361 34.9674C3.5264 34.6118 3.25509 34.5284 2.93239 33.9005C2.72924 33.5052 2.72924 27.8059 2.93239 27.4106C3.25509 26.7827 3.5264 26.6993 6.40361 26.3437C9.49282 25.9619 9.92949 25.8644 10.1629 25.505C10.2545 25.3637 10.5349 24.6708 10.7858 23.9654C11.0369 23.2599 11.519 22.1189 11.8573 21.4296C12.406 20.3118 12.4599 20.1364 12.3576 19.8028C12.2945 19.5971 11.41 18.359 10.3922 17.0516C7.89792 13.8477 7.85746 14.3622 10.8386 11.381C13.8198 8.39984 13.3054 8.44031 16.5092 10.9346C17.8167 11.9523 19.0523 12.8361 19.2552 12.8984C19.5829 12.9989 19.771 12.9398 20.9438 12.3676C21.6698 12.0134 22.8131 11.5325 23.4847 11.299C24.1563 11.0655 24.8213 10.7989 24.9626 10.7065C25.3222 10.4713 25.4196 10.0345 25.8013 6.946C26.1569 4.06878 26.2403 3.79748 26.8682 3.47478C27.2635 3.27162 32.9628 3.27162 33.3581 3.47478ZM28.6999 18.3263C24.4009 18.8685 20.747 21.5235 18.8909 25.4535C16.656 30.1856 17.7003 35.8553 21.4805 39.5129C25.2157 43.1269 30.6889 44.0708 35.2853 41.8934C38.0536 40.5822 40.04 38.6003 41.3354 35.8576C44.3495 29.4758 41.3542 21.9071 34.7266 19.1575C33.0148 18.4473 30.495 18.0997 28.6999 18.3263ZM32.0929 20.9359C34.6639 21.4809 36.8848 22.9887 38.3557 25.1879C39.4853 26.8767 39.9993 28.6059 39.9957 30.706C39.9899 34.0584 38.4022 36.998 35.5688 38.9027C34.4839 39.6321 33.0432 40.2157 31.7881 40.4343C31.3305 40.514 30.4267 40.5467 29.6012 40.5134C27.9073 40.4452 26.5279 40.0369 25.0578 39.1688C23.953 38.5162 22.4505 37.075 21.7595 36.0048C21.1944 35.1294 20.624 33.7224 20.3935 32.6352C20.187 31.6612 20.187 29.6499 20.3935 28.6758C21.2138 24.8067 24.2068 21.7948 28.0781 20.943C29.0043 20.7392 31.1472 20.7354 32.0929 20.9359Z" fill="url(#paint0_linear_14_318)"/>
<defs>
<linearGradient id="paint0_linear_14_318" x1="0.401367" y1="30.6442" x2="59.8249" y2="30.6442" gradientUnits="userSpaceOnUse">
<stop stop-color="#0BA360"/>
<stop offset="1" stop-color="#3CBA92"/>
</linearGradient>
</defs>
</svg>
