<svg width="56" height="60" viewBox="0 0 56 60" fill="none" xmlns="http://www.w3.org/2000/svg">
<path fill-rule="evenodd" clip-rule="evenodd" d="M26.9531 0.585315C25.9079 1.10619 25.1227 2.19035 24.4708 4.01257C24.2677 4.58057 24.0307 5.07242 23.9444 5.1056C23.858 5.13866 23.4552 5.00225 23.0493 4.80247C21.2893 3.93607 19.5812 3.64481 18.5557 4.03642C16.7651 4.72032 16.5423 7.01284 17.9877 9.88292C18.2037 10.3117 18.3803 10.7115 18.3803 10.7713C18.3803 10.831 18.0304 10.9952 17.6026 11.1361C15.7293 11.753 14.241 12.7521 13.7815 13.7016C13.4734 14.3379 13.4646 15.2508 13.7608 15.8315C14.2614 16.8127 15.7145 17.8014 17.5162 18.3868C17.9598 18.531 18.3573 18.6683 18.3994 18.6919C18.4416 18.7155 18.2463 19.1945 17.9655 19.7563C16.7139 22.2602 16.7306 24.403 18.0082 25.2341C19.2013 26.0103 20.776 25.8781 22.9552 24.8188C23.4754 24.5661 23.951 24.3901 24.0121 24.4278C24.0731 24.4656 24.2372 24.8458 24.3768 25.2729C24.9327 26.9734 25.941 28.4887 26.8197 28.9442L27.1365 29.1084V43.9596V58.8108L27.4401 59.0496C27.8186 59.3473 28.1828 59.3535 28.5351 59.0681L28.8071 58.8479L28.8647 43.9836L28.9223 29.1192L29.4115 28.7648C30.2422 28.163 31.0106 26.9225 31.5562 25.3023C31.7077 24.8523 31.8633 24.4525 31.9019 24.4139C31.9405 24.3753 32.4406 24.5613 33.0131 24.8274C34.1169 25.3402 35.5563 25.7613 36.2058 25.7613C37.347 25.7613 38.3693 25.1284 38.7226 24.2034C39.125 23.1499 38.8148 21.4168 37.904 19.6299C37.6765 19.1833 37.5326 18.7811 37.5844 18.7362C37.6362 18.6912 38.0933 18.5119 38.6003 18.3377C40.4149 17.7144 41.6593 16.8382 42.1618 15.83C42.6611 14.828 42.5031 13.9804 41.6427 13.0431C40.946 12.2842 40.0752 11.7665 38.7013 11.2943C38.0952 11.0859 37.5779 10.894 37.5517 10.868C37.5256 10.8418 37.7342 10.3283 38.0152 9.72681C38.6298 8.41188 38.8883 7.47116 38.8883 6.55003C38.8883 5.30607 38.4867 4.57112 37.5748 4.14656C36.4737 3.63386 35.0086 3.81256 33.0942 4.69325C32.5372 4.94948 32.0184 5.13498 31.9414 5.10548C31.8644 5.07587 31.708 4.74705 31.5937 4.3748C31.1968 3.08084 30.5958 2.00889 29.8481 1.26116C28.8337 0.246703 28.0157 0.055794 26.9531 0.585315ZM28.5545 2.36893C29.0622 2.81469 29.5946 3.82834 30.0835 5.28015C30.5802 6.75488 30.8743 7.09672 31.6465 7.09672C32.0747 7.09672 32.4112 6.98323 33.1705 6.58275C34.4463 5.9099 35.394 5.59894 36.1689 5.59894C36.9852 5.59894 37.1601 5.77003 37.1601 6.56846C37.1601 7.29753 36.9079 8.06681 36.1952 9.51182C35.2451 11.4383 35.5031 12.0895 37.4503 12.6803C39.286 13.2372 40.7317 14.1782 40.7317 14.8161C40.7317 15.3776 39.3716 16.2759 37.691 16.8245C35.4705 17.5493 35.2251 18.0966 36.226 20.0911C37.4547 22.5396 37.4904 24.0331 36.3202 24.0331C35.6794 24.0331 34.616 23.6995 33.562 23.1681C32.2094 22.4859 31.7481 22.3677 31.2501 22.5756C30.6811 22.8134 30.4161 23.2249 30.0079 24.5044C29.6203 25.7194 29.0478 26.8026 28.5671 27.2303C27.695 28.0063 26.7483 26.9902 25.871 24.3359C25.1683 22.2095 24.6853 22.043 22.4225 23.1469C20.8983 23.8905 19.7735 24.1609 19.1972 23.9221C18.4741 23.6227 18.6035 22.4767 19.6017 20.3392C20.6674 18.0572 20.4736 17.5485 18.2651 16.8305C16.6356 16.3008 15.5016 15.6055 15.2714 14.9952C15.0057 14.2908 16.4245 13.2558 18.4399 12.6838C19.8675 12.2786 20.4537 11.7033 20.2804 10.8776C20.2364 10.6674 19.9479 9.97705 19.6395 9.34338C18.7784 7.57416 18.5346 6.27997 18.9649 5.76151C19.1465 5.54272 20.1357 5.55101 20.8988 5.77764C21.2298 5.87592 22.0252 6.21291 22.6665 6.52653C23.9757 7.16677 24.5021 7.24131 24.9918 6.85615C25.3792 6.55153 25.5268 6.26027 25.9769 4.91388C26.5382 3.23499 27.362 2.04219 27.9678 2.03101C28.0766 2.02894 28.3405 2.18102 28.5545 2.36893ZM26.5183 9.00765C25.047 9.36377 23.531 10.5076 22.7903 11.8205C21.7747 13.6203 21.7545 15.6851 22.733 17.6381C23.3262 18.8221 25.2074 20.3463 26.0757 20.3463C26.4598 20.3463 26.9061 19.9294 26.9061 19.5705C26.9061 19.1301 26.7683 18.9561 26.1851 18.6606C22.9337 17.0129 22.9364 12.5152 26.1898 10.9383C26.7651 10.6595 26.9872 10.6184 27.943 10.6149C28.8926 10.6113 29.1242 10.6513 29.6914 10.9172C32.9548 12.4471 33.0379 16.9593 29.8328 18.5944C29.2409 18.8964 29.0568 19.1218 29.0568 19.5444C29.0568 19.9999 29.3914 20.3463 29.8315 20.3463C30.7652 20.3463 32.5183 18.9389 33.2044 17.6387C34.4779 15.2249 34.0755 12.5202 32.1572 10.6019C30.6236 9.06825 28.6145 8.50036 26.5183 9.00765ZM11.6403 24.4791C11.3869 24.5949 10.9679 24.92 10.7095 25.2015C10.0086 25.965 9.65613 26.7914 9.23191 28.6655L9.16129 28.9774L8.33867 28.5831C6.23925 27.5769 4.30101 27.6416 3.36939 28.7489C2.93896 29.2603 2.79552 29.8173 2.85278 30.7538C2.912 31.7212 3.22607 32.5957 3.87472 33.5994C4.13026 33.9947 4.29709 34.3546 4.24536 34.3992C4.19375 34.4438 3.81446 34.5983 3.40258 34.7425C-1.32578 36.3989 -0.878294 40.403 4.15158 41.4453C5.11753 41.6454 5.5641 41.674 6.91659 41.6219C9.4931 41.5228 11.3601 40.8809 13.0423 39.5158C13.3064 39.3014 13.5767 39.126 13.643 39.126C13.7881 39.126 15.2746 40.8077 16.1933 42.0115C17.1299 43.2385 18.0419 44.6686 18.6046 45.7924C19.41 47.4007 19.4146 47.375 18.4372 46.737C16.2717 45.3234 13.2958 44.8654 10.9484 45.5846C9.18952 46.1234 7.66547 47.1595 7.66547 47.8165C7.66547 48.7283 8.604 50.7803 9.49898 51.8252C11.0712 53.6608 12.2178 54.1858 12.6843 53.2838C12.9234 52.8214 12.7483 52.3587 12.2078 52.0245C11.1932 51.3975 9.64634 49.2397 9.58735 48.369C9.56972 48.1088 9.6582 48.0119 10.162 47.7391C13.6009 45.8778 18.4445 47.5265 20.1469 51.1378C20.6391 52.1819 20.6203 52.2575 19.7629 52.6886C18.7066 53.2199 17.8297 53.4125 16.4679 53.4125C15.174 53.4125 14.8856 53.5326 14.7443 54.1297C14.6843 54.3831 14.74 54.5137 15.0334 54.8071L15.3968 55.1703L16.9173 55.1099C18.4951 55.0472 19.2096 54.8917 20.2692 54.3805C20.583 54.2291 20.8622 54.1278 20.8897 54.1553C20.9171 54.1827 20.9915 55.2323 21.055 56.4876C21.1664 58.6912 21.18 58.7789 21.4524 59.0292C21.798 59.3468 22.184 59.3602 22.544 59.0668C22.8122 58.8484 22.8156 58.8191 22.7853 56.9642C22.7053 52.0841 21.6905 47.7281 19.882 44.5019L19.3373 43.5301L19.8093 43.3888C20.7831 43.0975 21.6659 42.5483 22.4747 41.7311C24.137 40.0513 24.7189 37.8454 24.0732 35.6713C23.8004 34.7527 23.5032 34.5175 22.6151 34.5175C20.0592 34.5175 17.7344 36.2515 16.8714 38.8015L16.5717 39.6868L15.6837 38.7165L14.7958 37.7462L15.1584 37.2191C16.8164 34.8092 17.2039 31.0729 16.1284 27.865C15.1911 25.0694 13.3646 23.6915 11.6403 24.4791ZM42.1372 24.5617C40.7409 25.2575 39.6927 27.2281 39.277 29.9388C38.8756 32.5568 39.4282 35.3305 40.7277 37.2191L41.0903 37.7462L40.2023 38.7165L39.3144 39.6868L39.0147 38.8015C38.1516 36.2515 35.8269 34.5175 33.271 34.5175C32.3829 34.5175 32.0856 34.7527 31.8128 35.6713C31.1672 37.8454 31.7491 40.0513 33.4114 41.7311C34.2003 42.5283 35.0492 43.0621 36.0368 43.382C36.2745 43.459 36.4688 43.538 36.4688 43.5576C36.4688 43.5772 36.1672 44.1826 35.7986 44.9032C34.6496 47.1489 33.8244 49.8206 33.4263 52.584C33.1965 54.1786 32.9633 58.0115 33.0636 58.5458C33.193 59.2355 33.8721 59.494 34.4208 59.0625C34.6977 58.8447 34.7108 58.7727 34.7846 57.075C34.8267 56.1062 34.891 55.0485 34.9274 54.7246L34.9936 54.1356L35.7966 54.4729C37.9116 55.3617 40.5731 55.3649 42.7799 54.4816C44.4797 53.801 46.371 52.1538 47.2434 50.5938C47.6971 49.7824 48.2206 48.2989 48.2206 47.8243C48.2206 47.1602 46.711 46.1296 44.937 45.5828C42.5876 44.8586 39.4987 45.3478 37.3587 46.783C36.4753 47.3754 36.4762 47.3991 37.317 45.7249C38.2034 43.9601 39.9108 41.5672 41.5736 39.7597C42.0635 39.2272 42.2477 39.0949 42.3755 39.1837C42.4667 39.247 42.7952 39.492 43.1055 39.7279C43.8403 40.2868 45.2163 40.9695 45.6081 40.9695C46.0352 40.9695 46.3772 40.5932 46.3772 40.1232C46.3772 39.6554 46.2318 39.5204 45.1098 38.9461C44.4868 38.6272 43.9688 38.229 43.2529 37.5187C42.4085 36.681 42.1819 36.37 41.7374 35.4392C41.0366 33.9714 40.9033 33.3578 40.9113 31.6372C40.9164 30.5573 40.9815 29.9412 41.1717 29.1746C41.6073 27.4191 42.5209 25.9917 43.2088 25.9917C44.0765 25.9917 44.8697 27.6812 45.0573 29.9284C45.146 30.9924 45.3812 31.4067 45.896 31.4067C46.053 31.4067 46.596 31.1408 47.1027 30.8157C48.2783 30.0615 49.2094 29.685 50.1036 29.602C50.7047 29.5462 50.8566 29.5716 51.0993 29.7686C51.797 30.3351 51.1378 32.1617 49.5877 33.9571C48.6623 35.0289 48.8508 35.6339 50.1894 35.8875C51.789 36.1905 53.1627 36.8031 53.7549 37.4777C54.2107 37.9968 54.186 38.27 53.6362 38.7931C53.0242 39.3753 51.6734 39.8111 50.2016 39.9014C49.3892 39.9512 49.0611 40.0208 48.8478 40.1887C48.4744 40.4823 48.4635 41.0929 48.8255 41.4384C49.0659 41.6679 49.168 41.6811 50.2368 41.6211C54.2855 41.3938 56.6654 39.2623 55.4751 36.9294C55.0422 36.0805 53.6125 35.0802 52.1955 34.6346C51.942 34.5548 51.6923 34.451 51.6407 34.4039C51.589 34.3567 51.7558 33.9947 52.0113 33.5994C52.66 32.5957 52.9741 31.7212 53.0333 30.7538C53.0905 29.8173 52.9471 29.2603 52.5167 28.7489C51.5851 27.6416 49.6468 27.5769 47.5474 28.5831L46.7248 28.9774L46.6542 28.6655C46.2299 26.7914 45.8775 25.965 45.1765 25.2015C44.2918 24.2378 43.2339 24.0151 42.1372 24.5617ZM13.2862 26.2766C13.7771 26.6897 14.4219 27.9972 14.7154 29.1746C15.0864 30.6627 15.0842 32.8546 14.7105 34.0567C14.2501 35.5376 13.7106 36.4335 12.6253 37.5187C11.541 38.6031 10.6471 39.1418 9.16325 39.6051C8.40157 39.8429 8.08059 39.8739 6.45573 39.8665C4.77166 39.8589 4.53017 39.8312 3.66123 39.5445C2.62523 39.2029 1.78959 38.5628 1.78959 38.111C1.78959 37.3101 3.58692 36.2872 5.69671 35.8875C7.0356 35.6338 7.22167 35.0354 6.29582 33.9611C4.75011 32.168 4.09017 30.3342 4.78675 29.7686C5.39784 29.2725 7.05427 29.7065 8.78339 30.8157C9.2901 31.1408 9.8331 31.4067 9.99002 31.4067C10.5049 31.4067 10.7401 30.9924 10.8288 29.9284C11.0163 27.6812 11.8096 25.9917 12.6773 25.9917C12.826 25.9917 13.1 26.1199 13.2862 26.2766ZM22.5841 36.9245C22.8416 39.143 21.0745 41.4824 18.8769 41.8323L18.3941 41.9091L18.3148 41.4858C18.1023 40.3534 18.5127 38.8553 19.3118 37.8464C19.9563 37.0325 21.3537 36.2599 22.1999 36.2495C22.4876 36.2459 22.51 36.2853 22.5841 36.9245ZM35.0848 36.672C36.7981 37.5086 37.9127 39.6663 37.5713 41.4858L37.4919 41.9091L37.0092 41.8323C34.8046 41.4812 33.0443 39.1436 33.3036 36.9106L33.3839 36.2179L33.9182 36.2906C34.2121 36.3306 34.7371 36.5023 35.0848 36.672ZM44.248 47.1916C44.7448 47.3186 45.4141 47.5727 45.7354 47.756C46.4402 48.1583 46.4555 48.3224 45.8959 49.4668C45.3724 50.537 43.9644 51.9483 42.8401 52.5294C40.7204 53.6251 38.3288 53.7077 36.2135 52.7584C35.8489 52.5947 35.502 52.4024 35.4427 52.331C35.2907 52.1478 35.6535 51.1759 36.183 50.3481C36.8677 49.2774 37.8487 48.4113 39.0487 47.8183C40.7983 46.9535 42.5104 46.7472 44.248 47.1916Z" fill="url(#paint0_linear_21_242)"/>
<defs>
<linearGradient id="paint0_linear_21_242" x1="0.104004" y1="29.788" x2="55.7822" y2="29.788" gradientUnits="userSpaceOnUse">
<stop stop-color="#FCCB90"/>
<stop offset="1" stop-color="#D57EEB"/>
</linearGradient>
</defs>
</svg>
