<svg width="37" height="56" viewBox="0 0 37 56" fill="none" xmlns="http://www.w3.org/2000/svg">
<path fill-rule="evenodd" clip-rule="evenodd" d="M2.61891 0.639809C1.99614 0.86194 1.45152 1.26461 1.11283 1.75335C0.470434 2.68037 0.457104 1.96684 1.37965 16.0102C1.95945 24.8363 2.26284 28.8812 2.3585 29.0642C2.66178 29.644 3.54093 29.5755 3.74941 28.9557C3.80347 28.7952 3.50904 23.7604 2.99514 16.0555C2.4613 8.05098 2.18478 3.2991 2.24077 3.09264C2.2895 2.91338 2.47666 2.62545 2.65677 2.4528L2.98416 2.13896L5.78848 2.10739C8.41812 2.07785 8.60697 2.0626 8.82089 1.86329C9.1293 1.5759 9.12674 0.993321 8.81556 0.703473C8.59279 0.495951 8.45597 0.486247 5.80298 0.490726C3.74578 0.494138 2.91868 0.532955 2.61891 0.639809ZM11.5238 0.701553C11.2148 0.989589 11.2049 1.58965 11.5051 1.84676C11.7072 2.01973 12.4779 2.03594 22.9071 2.08564L34.0923 2.13896L34.3813 2.40556C35.0015 2.9779 35.0659 1.36496 33.4411 25.9197C32.6184 38.354 31.8985 48.5875 31.8412 48.6607C31.7619 48.7624 30.9308 48.794 28.3379 48.794C25.0805 48.794 24.9294 48.803 24.7251 49.0073C24.4075 49.3249 24.4407 49.8956 24.7928 50.1726C25.0616 50.3841 25.2012 50.3937 27.992 50.3937H30.9102L30.9098 51.4334C30.9095 52.2765 30.87 52.5378 30.7012 52.8145C30.2659 53.5285 31.0317 53.4862 18.54 53.4862C6.04825 53.4862 6.81403 53.5285 6.37873 52.8145C6.20992 52.5378 6.17046 52.2765 6.17014 51.4334L6.16971 50.3937H13.9401C21.6397 50.3937 21.7129 50.3916 21.9914 50.1726C22.3435 49.8956 22.3767 49.3249 22.0591 49.0073C21.8494 48.7977 21.7037 48.794 13.5942 48.794C7.11934 48.794 5.32043 48.7654 5.23906 48.6607C5.18212 48.5875 4.89206 44.8331 4.59442 40.3177L4.05344 32.1081L3.77266 31.8665C3.33223 31.4877 2.84574 31.5844 2.57402 32.1049C2.49361 32.2589 2.61753 34.6455 3.02063 40.7043C3.5454 48.5941 3.59211 49.1126 3.80955 49.4644C3.93667 49.6701 4.15976 49.9164 4.30543 50.0119C4.56137 50.1796 4.57011 50.2249 4.57011 51.3902C4.57011 52.8585 4.72879 53.3904 5.3842 54.1194C5.71991 54.4928 6.03033 54.7115 6.44485 54.8666C7.02284 55.0828 7.18738 55.0858 18.54 55.0858C29.8926 55.0858 30.0571 55.0828 30.6351 54.8666C31.0496 54.7115 31.36 54.4928 31.6958 54.1194C32.3512 53.3904 32.5098 52.8585 32.5098 51.3902C32.5098 50.2249 32.5186 50.1796 32.7745 50.0119C33.1656 49.7556 33.4472 49.2341 33.5192 48.6329C33.6217 47.7763 36.4685 4.45817 36.4802 3.5786C36.497 2.30318 35.9761 1.38341 34.922 0.827389L34.376 0.539354L23.0676 0.510774C11.7835 0.482301 11.7587 0.482728 11.5238 0.701553ZM28.6071 10.6749C27.0176 10.8485 26.19 11.0049 23.6054 11.6203C20.278 12.4128 19.5652 12.4804 14.5943 12.4756C11.0805 12.4723 10.0069 12.4361 8.83572 12.2816C6.63957 11.9919 6.00442 11.9574 5.64056 12.1081C5.19363 12.2932 4.59506 12.9869 4.51732 13.4098C4.41378 13.973 6.56044 46.0777 6.72446 46.4187C6.8006 46.5771 7.02593 46.8164 7.22524 46.9506L7.5876 47.1944H18.54H29.4924L29.8547 46.9506C30.054 46.8164 30.2798 46.5761 30.3565 46.4167C30.452 46.218 30.7856 41.7282 31.4167 32.143L32.3375 18.1592L32.0445 17.9071C31.4377 17.3852 30.7019 17.7819 30.6913 18.6367C30.6882 18.8886 30.2911 25.0453 29.8089 32.3181L28.9321 45.5415H18.5401H8.14821L7.10356 29.6596C6.41125 19.1344 6.09464 13.7418 6.16491 13.6716C6.23508 13.6014 6.74845 13.627 7.68656 13.7477C9.8937 14.0318 11.6485 14.1295 14.5996 14.1329C18.9232 14.1378 20.9579 13.9199 24.4243 13.081C26.6011 12.5542 27.6892 12.3663 29.5072 12.2034C30.6833 12.0981 30.9453 12.1006 31.0182 12.2186C31.0667 12.297 31.0793 12.9682 31.0463 13.7101C30.9879 15.0229 30.993 15.0651 31.235 15.2907C31.7266 15.7486 32.4442 15.4544 32.5542 14.7496C32.5841 14.5587 32.6383 13.8949 32.6748 13.2743C32.7648 11.7432 32.5323 11.1704 31.6343 10.7122C31.1686 10.4745 30.5154 10.4664 28.6071 10.6749ZM16.2472 17.5376C15.4506 17.7414 14.9523 18.1648 14.6032 18.9348C14.1076 20.0282 14.5046 21.2639 15.5539 21.8941C17.544 23.0891 19.9088 21.0329 18.9576 18.9348C18.6912 18.3472 18.3905 18.0144 17.8977 17.7615C17.444 17.5288 16.6842 17.4257 16.2472 17.5376ZM17.146 19.1974C17.6358 19.4507 17.7186 19.9031 17.3592 20.36C16.9233 20.9142 15.9806 20.5635 15.9806 19.8472C15.9806 19.5799 16.1552 19.3316 16.4605 19.1646C16.741 19.0111 16.7904 19.0136 17.146 19.1974ZM22.4157 23.0971C20.9737 23.3861 19.8197 24.783 19.8197 26.2396C19.8197 27.42 20.664 28.6996 21.752 29.1676C22.9967 29.7031 24.4176 29.3887 25.3463 28.3726C26.5039 27.106 26.5113 25.3815 25.3647 24.1269C24.5788 23.2669 23.4809 22.8836 22.4157 23.0971ZM23.8075 24.8927C25.1817 25.6667 24.6277 27.7859 23.0511 27.7859C21.9282 27.7859 21.194 26.8253 21.5103 25.7698C21.6555 25.2852 22.0126 24.935 22.5555 24.7448C23.0045 24.5875 23.3349 24.6265 23.8075 24.8927ZM14.0323 29.6436C12.8333 30.1366 12.0863 30.9551 11.7005 32.1979C10.997 34.4645 12.4399 36.8217 14.8113 37.2797C17.0649 37.7149 19.2711 36.0008 19.4671 33.6623C19.5784 32.3347 18.9324 30.892 17.8878 30.1353C16.8053 29.3511 15.2316 29.1504 14.0323 29.6436ZM16.8491 31.3619C17.4416 31.7783 17.9001 32.6345 17.9001 33.3243C17.9001 34.408 16.9562 35.543 15.9143 35.7121C14.129 36.0018 12.5849 34.1339 13.2646 32.5071C13.7204 31.4163 14.4465 30.9555 15.6273 31.0078C16.2756 31.0366 16.4639 31.0912 16.8491 31.3619Z" fill="url(#paint0_linear_21_251)"/>
<defs>
<linearGradient id="paint0_linear_21_251" x1="0.655518" y1="27.7879" x2="36.4806" y2="27.7879" gradientUnits="userSpaceOnUse">
<stop stop-color="#4FACFE"/>
<stop offset="1" stop-color="#00F2FE"/>
</linearGradient>
</defs>
</svg>
