<svg width="67" height="59" viewBox="0 0 67 59" fill="none" xmlns="http://www.w3.org/2000/svg">
<path fill-rule="evenodd" clip-rule="evenodd" d="M14.6294 1.00827C13.7532 1.47908 11.86 2.70528 11.5039 3.03252C11.0899 3.41298 11.1133 4.05856 11.5535 4.40474C11.7403 4.55167 11.995 4.67192 12.1193 4.67192C12.2438 4.67192 12.871 4.32703 13.5131 3.90545C14.1551 3.48387 14.8564 3.04785 15.0717 2.9365L15.4631 2.73415L16.3672 4.53904C16.8646 5.5317 17.2715 6.39355 17.2715 6.45412C17.2715 6.66949 16.0241 7.23232 14.5005 7.7043C11.0707 8.76669 10.3057 9.56164 9.4191 12.9849C9.19883 13.8356 8.87405 14.8215 8.69748 15.1759C8.52091 15.5304 7.77544 16.4739 7.04093 17.2726C6.3063 18.0713 5.56728 18.9993 5.39857 19.3348C5.22999 19.6703 5.07997 19.9663 5.0654 19.9927C5.02932 20.0581 2.66662 19.4807 2.55114 19.3782C2.38797 19.2336 3.4648 16.2582 4.31917 14.4927C5.57204 11.9036 6.9154 9.9354 8.79607 7.93294C9.5271 7.15448 9.66733 6.93318 9.66733 6.55684C9.66733 5.99079 9.14509 5.52023 8.6418 5.63301C7.95008 5.78792 5.41017 8.80935 3.92349 11.2456C2.50874 13.564 0.849615 17.5602 0.572643 19.3159C0.462706 20.0135 0.796643 20.7388 1.34234 20.9876C1.56157 21.0875 3.97389 21.7226 6.703 22.399C11.4275 23.5698 11.6867 23.6494 12.1161 24.0618C13.6836 25.5672 16.154 26.1865 18.3305 25.6197L19.057 25.4303L23.2229 26.4655C26.9834 27.3998 27.4365 27.4865 27.8783 27.3565C28.4525 27.1877 28.8699 26.6038 28.8705 25.9683C28.8709 25.7033 28.5306 24.8689 27.9507 23.7128C25.9221 19.6682 24.2447 16.0995 24.5439 16.4648C24.7181 16.6774 27.287 19.7223 30.2526 23.2312L35.6446 29.6109L27.2636 29.6754C22.654 29.7108 18.8065 29.7889 18.7134 29.849C18.18 30.1935 18.2933 31.1878 18.8973 31.463C19.1248 31.5667 21.7436 31.6086 27.9876 31.6086C35.8385 31.6086 36.805 31.5866 37.2024 31.3979C38.017 31.0114 38.2764 29.938 37.7318 29.2079C37.5722 28.9941 34.5419 25.3837 30.9976 21.1848C27.4533 16.9859 24.5373 13.4804 24.5176 13.3948C24.4526 13.1124 25.8285 11.1924 26.3578 10.8269C26.9655 10.4072 28.0978 10.224 30.1213 10.2179C32.2036 10.2116 32.2756 10.1878 35.7394 8.36225C36.7356 7.83718 36.9693 7.76513 37.6751 7.76513C38.5222 7.76513 38.8607 7.90407 41.3727 9.28351C42.6419 9.98038 43.584 10.2126 45.1697 10.2196C46.8997 10.2272 48.1784 10.3865 48.773 10.6686C49.2142 10.8781 50.2657 12.0115 50.2657 12.2777C50.2657 12.3369 50.0817 12.2933 49.8568 12.1812C48.8106 11.6594 47.0561 12.128 45.9629 13.2212C43.7019 15.482 44.4431 18.6384 47.2369 18.6464C49.2305 18.6521 51.2968 16.6702 51.2968 14.7524V14.0572L51.797 14.6902C52.5029 15.5831 53.1327 16.089 54.6913 17.0149C56.3597 18.006 56.7755 18.3487 57.1136 19.0114L57.3771 19.528L57.0112 19.4457C56.8101 19.4006 56.2321 19.327 55.727 19.2823C54.1599 19.1435 52.4758 19.8311 50.6183 21.368C50.1193 21.781 49.6348 22.0663 49.3403 22.1207C48.4883 22.2782 47.0443 23.1015 46.2848 23.8628C44.641 25.5104 43.9999 27.7779 44.5355 30.05C45.037 32.1776 46.7725 34.0619 48.8187 34.7007C51.2892 35.4718 53.7052 34.8949 55.493 33.1072C56.9123 31.6879 57.692 29.45 57.3862 27.6744L57.2604 26.9447L57.8495 26.6922L58.4385 26.4397L58.6624 26.7364C59.1904 27.4364 59.9703 29.1641 60.0276 29.7612C60.1124 30.6443 59.9245 31.2074 58.9758 32.911C57.7659 35.084 57.6031 35.6545 57.5287 37.9841C57.4947 39.0497 57.4043 40.2074 57.3278 40.5565C57.1297 41.4615 56.4512 42.1312 54.6091 43.2399C52.6641 44.4106 51.9866 45.0868 50.8216 47.0198C49.8555 48.623 49.1803 49.4005 48.5258 49.6636C48.3131 49.749 47.1242 49.8618 45.8837 49.9141C43.2443 50.0256 42.652 50.1823 40.7027 51.2849C38.0737 52.772 37.5266 52.8078 35.3425 51.6354C32.3933 50.0521 32.3407 50.0369 29.4358 49.9213C26.2121 49.793 26.2793 49.8399 23.9779 46.1142C23.3633 45.1191 22.538 44.3261 21.3958 43.6326C18.1813 41.6809 18.0056 41.4575 17.9342 39.2317L17.8873 37.7686L18.1916 37.8662C19.4077 38.2561 20.1864 38.2682 21.3301 37.9149C22.8402 37.4485 23.6878 36.3137 23.5553 34.9355C23.4649 33.9943 22.9408 33.3232 21.8693 32.7762C21.0837 32.3752 20.8985 32.333 19.9414 32.3371C18.7384 32.3422 17.9765 32.5753 17.2456 33.1614L16.7686 33.5439L16.2577 32.6692C15.9767 32.1882 15.6229 31.4193 15.4716 30.9605C15.0462 29.6712 15.0558 29.6752 12.3918 29.6759C10.3643 29.6763 10.0738 29.7036 9.70586 29.928C9.00822 30.3533 8.8502 30.8273 8.95524 32.1788C9.37863 37.6198 11.1536 42.4939 14.345 46.9798C15.4443 48.5249 18.1574 51.3708 19.7111 52.6084C22.9179 55.1628 26.8906 57.119 30.8146 58.0756C33.2225 58.6625 34.9122 58.8549 37.6996 58.8593C40.4158 58.8635 41.6091 58.7405 44.0597 58.203C46.3417 57.7026 49.8037 56.4381 50.4209 55.8794C50.7774 55.5568 50.722 54.8812 50.3128 54.5593C50.126 54.4124 49.9025 54.2922 49.8163 54.2922C49.7299 54.2922 49.0366 54.5532 48.2752 54.872C44.8034 56.3267 41.5429 56.9914 37.8556 56.9962C34.5795 57.0005 32.1523 56.6211 29.143 55.634C23.2588 53.7041 18.0838 49.6288 14.7911 44.332C13.2883 41.9148 11.9121 38.4896 11.3618 35.7973C11.0885 34.4608 10.8273 32.5883 10.8273 31.9664V31.6086H12.2329H13.6384L14.0281 32.4413C14.2424 32.8993 14.6312 33.6382 14.892 34.0832C15.7906 35.6165 15.8749 35.9576 15.9829 38.5039C16.0643 40.422 16.1306 40.953 16.3652 41.5694C16.7952 42.6995 17.7288 43.6185 19.5352 44.6903C20.3714 45.1865 21.2968 45.8245 21.5914 46.108C21.8862 46.3916 22.5255 47.2906 23.0125 48.1057C24.891 51.2513 25.6221 51.6725 29.4833 51.8337C32.1304 51.9442 31.5256 51.7575 34.8238 53.4815C37.0416 54.6407 38.3612 54.6457 40.5104 53.5034C41.1619 53.1571 42.1216 52.6615 42.643 52.4022L43.5911 51.9306L45.9296 51.8314C49.7278 51.6699 50.5346 51.2058 52.3416 48.1421C53.3704 46.3983 53.9714 45.7973 55.7152 44.7686C58.8241 42.9348 59.2537 42.1877 59.4077 38.3456L59.5019 35.9963L59.952 35.1235C60.1994 34.6435 60.6967 33.6869 61.0568 32.9977C62.2756 30.6657 62.2556 29.5108 60.9537 27.005L60.2024 25.5591L61.2777 24.8582C62.1458 24.2923 62.3823 24.0682 62.5057 23.6943C62.768 22.8997 62.5141 22.4267 61.4352 21.6994C60.9274 21.3572 60.2665 20.9521 59.9663 20.7993C59.6242 20.6252 59.3998 20.4139 59.3652 20.2331C59.0726 18.7124 58.9658 18.3942 58.537 17.7644C57.9351 16.8806 57.3337 16.3868 55.6326 15.3801C53.9582 14.3891 53.4055 13.8487 52.5102 12.3275C51.3267 10.3165 50.6226 9.50132 49.6288 8.99159C48.8328 8.58315 48.4269 8.5151 46.1414 8.40684C44.9009 8.3482 43.683 8.23878 43.4349 8.16377C43.1868 8.08889 42.3458 7.6722 41.5661 7.23787C39.4092 6.03654 39.0488 5.91307 37.6996 5.91307C36.3597 5.91307 35.8584 6.08152 33.8983 7.19044C32.062 8.22937 31.819 8.2933 29.2577 8.41045C28.0172 8.46729 26.8249 8.57001 26.6081 8.63883C25.4231 9.01504 24.5486 9.70238 23.7758 10.8647C23.4484 11.3574 23.1412 11.7572 23.0935 11.7532C23.0459 11.7491 22.5169 11.1602 21.9182 10.4444L20.8297 9.14303L21.2738 8.76604C22.8632 7.41714 26.514 5.45901 28.9999 4.62217C34.2807 2.8446 39.8297 2.70812 45.1217 4.22572C50.2332 5.69152 54.8799 8.7132 58.2725 12.7778C62.4526 17.7858 64.5738 23.6302 64.5687 30.1265C64.5642 36.0672 62.8236 41.3582 59.2753 46.2177C58.1391 47.7737 55.5047 50.4418 54.0387 51.5212C52.8501 52.3963 52.5975 52.7886 52.8643 53.3451C53.1115 53.8609 53.644 54.0194 54.1695 53.7336C54.893 53.3398 56.8588 51.6922 58.1263 50.4169C62.8403 45.6745 65.7405 39.4325 66.3865 32.6397C66.5662 30.7506 66.4752 27.7795 66.1775 25.8089C64.4267 14.2225 55.8791 4.8985 44.4367 2.09373C40.9874 1.24812 36.2403 1.08599 32.8382 1.69754C28.592 2.46066 24.3619 4.22173 21.0253 6.61523C20.4317 7.04106 19.9307 7.37255 19.912 7.3518C19.8932 7.33105 19.2107 5.98009 18.3951 4.34971C17.5795 2.71933 16.7668 1.25018 16.5889 1.08483C16.0909 0.621618 15.399 0.594552 14.6294 1.00827ZM19.001 9.79505C19.4176 10.628 20.1246 12.078 20.5719 13.0174L21.3853 14.7254L20.714 14.2256C20.3446 13.9506 19.912 13.6585 19.7525 13.5764C19.5356 13.4645 19.4625 13.3134 19.4625 12.9763C19.4625 12.0271 18.8726 11.1271 17.9803 10.7153C16.2698 9.92587 13.7272 11.2871 12.9612 13.4024C12.8647 13.669 12.4144 14.2641 11.9606 14.7249C10.6929 16.012 10.0578 17.5376 10.0562 19.3002C10.0558 19.7964 10.1173 20.4254 10.1929 20.6978C10.2686 20.9703 10.3038 21.2201 10.2709 21.2528C10.2009 21.3229 7.11362 20.5915 7.00021 20.4781C6.87055 20.3486 7.51458 19.4929 8.75509 18.1462C10.1448 16.6377 10.6421 15.7178 11.2072 13.6099C12.0032 10.6405 12.2178 10.4161 15.179 9.45609C16.2944 9.09444 17.381 8.68626 17.5937 8.549C17.8063 8.41174 18.0395 8.29523 18.1118 8.29007C18.1841 8.28492 18.5843 8.96207 19.001 9.79505ZM35.6738 10.4141C34.0532 10.8069 32.5745 11.8507 31.6816 13.2324C29.5944 16.4616 30.7744 20.8754 34.1862 22.6016C34.9671 22.9966 36.2704 23.3549 36.9381 23.3581C37.2949 23.3598 37.3535 23.4173 37.4991 23.9078C37.9684 25.4879 39.9372 28.8037 40.543 29.034C41.0981 29.245 41.5898 29.1774 41.9981 28.8339C42.7706 28.1838 44.3521 25.3099 44.8565 23.6399C45.3808 21.9035 45.0494 20.006 43.9534 18.4666C43.7385 18.1649 43.6926 17.8982 43.6926 16.9516C43.6926 15.0427 43.0254 13.3751 41.7711 12.1494C40.1271 10.5426 37.8346 9.89017 35.6738 10.4141ZM39.2865 12.6594C40.9125 13.5278 41.8015 14.9867 41.8015 16.787C41.8015 18.5863 40.829 20.1695 39.2251 20.9815C38.541 21.3278 38.3561 21.3624 37.184 21.3624C35.6289 21.3624 35.0259 21.1327 33.9778 20.1416C32.9671 19.1856 32.5524 18.2109 32.5509 16.787C32.55 15.859 32.6045 15.5732 32.9079 14.9182C33.105 14.4929 33.5097 13.8948 33.8074 13.5893C34.8918 12.4761 35.768 12.132 37.3773 12.1873C38.3348 12.2201 38.5753 12.2795 39.2865 12.6594ZM17.4014 12.5996C17.8166 13.0999 17.2217 14.4208 16.3398 14.9565C15.6504 15.3753 15.1415 15.4304 14.8311 15.1199C14.4913 14.7801 14.496 14.5291 14.8549 13.8196C15.4128 12.7167 16.9052 12.0017 17.4014 12.5996ZM34.9296 14.015C34.5074 14.4644 34.528 15.0664 34.9787 15.4541C35.4119 15.8268 35.8208 15.8378 36.2644 15.4887C36.5264 15.2828 36.604 15.108 36.604 14.7249C36.604 13.8053 35.5473 13.3573 34.9296 14.015ZM49.2567 14.036C49.5447 14.2966 49.5536 14.5866 49.2929 15.2105C48.9283 16.0833 47.991 16.787 47.1934 16.787C46.011 16.787 46.5028 14.9103 47.8936 14.1147C48.4942 13.7712 48.936 13.7457 49.2567 14.036ZM38.2795 15.2404C38.0031 15.5168 37.9397 16.1351 38.1479 16.5242C38.3179 16.8418 38.9863 17.0637 39.353 16.9243C40.0544 16.6576 40.2609 15.6709 39.7087 15.2238C39.3134 14.9036 38.6081 14.9119 38.2795 15.2404ZM19.7023 15.8287C20.1219 16.2059 20.5086 16.7255 20.7796 17.276C21.163 18.0547 21.2024 18.2436 21.2024 19.3002C21.2024 20.3568 21.163 20.5458 20.7796 21.3245C19.9519 23.0058 18.4828 23.9126 16.5626 23.9275C15.6691 23.9345 15.4198 23.8827 14.6938 23.539C12.2926 22.4022 11.3022 19.7597 12.3714 17.3425C12.5215 17.0033 12.7599 16.6027 12.9013 16.4522L13.1584 16.1785L13.544 16.5386C14.0611 17.0217 14.6997 17.2135 15.5792 17.1499C16.5269 17.0814 17.4053 16.6465 18.1529 15.876C18.4834 15.5355 18.8199 15.2531 18.9008 15.2486C18.9818 15.2441 19.3425 15.5051 19.7023 15.8287ZM37.0313 17.3006C36.426 17.5505 36.2794 18.4915 36.7734 18.9556C37.2808 19.4322 38.0377 19.3123 38.3514 18.7057C38.7887 17.8602 37.9188 16.9343 37.0313 17.3006ZM15.11 18.1621C14.8932 18.2493 14.5649 18.8957 14.5649 19.2353C14.5649 19.6353 15.1299 20.138 15.5796 20.138C16.143 20.138 16.3563 20.0215 16.5778 19.5929C17.045 18.6896 16.0966 17.7651 15.11 18.1621ZM26.511 25.2476C26.4271 25.3313 21.5266 24.157 21.3652 24.0144C21.3129 23.9681 21.4339 23.7296 21.6341 23.4842C22.6368 22.2544 23.114 20.8917 23.1193 19.2434L23.1228 18.1555L24.8564 21.662C25.8099 23.5906 26.5545 25.2041 26.511 25.2476ZM43.1253 21.1287C43.3748 21.9875 43.265 22.7396 42.6907 24.1039C42.2828 25.0728 41.2819 26.8402 41.1415 26.8395C40.9227 26.8385 39.0329 23.1403 39.207 23.0537C39.2285 23.043 39.5651 22.8832 39.955 22.6985C40.8564 22.2714 41.8835 21.4606 42.3565 20.8026C42.5589 20.521 42.7676 20.3171 42.8202 20.3497C42.8729 20.3822 43.0101 20.7328 43.1253 21.1287ZM57.198 21.5599C58.0897 21.9003 60.3178 23.0939 60.3178 23.2312C60.3178 23.3496 58.2026 24.5078 57.3649 24.8482C56.5783 25.1677 56.5318 25.1726 56.4137 24.9487C56.0822 24.3202 54.534 22.9926 53.6338 22.565L52.6935 22.1183L53.4602 21.7097C54.8563 20.9657 55.5667 20.9372 57.198 21.5599ZM52.9514 24.311C53.8627 24.7796 54.6479 25.585 55.1093 26.5247C55.4465 27.2114 55.485 27.4182 55.4809 28.5154C55.4769 29.5794 55.4302 29.8347 55.1255 30.4631C54.7052 31.3297 53.6132 32.404 52.752 32.798C51.8498 33.2107 49.9465 33.2108 49.0516 32.7982C47.2632 31.9738 46.256 30.4079 46.256 28.4523C46.256 27.2852 46.6117 26.3007 47.3272 25.4879C48.3972 24.2723 49.3901 23.8595 51.1035 23.9177C52.0671 23.9506 52.3798 24.0171 52.9514 24.311ZM48.268 27.2435C47.711 27.5548 47.5159 28.2106 47.8142 28.7682C47.988 29.0927 48.6521 29.3078 49.0332 29.1629C49.4114 29.0192 49.7502 28.5507 49.7502 28.1717C49.7502 27.5264 48.8124 26.939 48.268 27.2435ZM51.6928 29.3706C51.3227 29.8411 51.3577 30.2716 51.8024 30.7164C52.2272 31.141 52.4391 31.1754 52.963 30.9045C53.3664 30.696 53.4878 30.4741 53.4878 29.9451C53.4878 29.0955 52.2267 28.6919 51.6928 29.3706ZM36.6685 33.3907C34.8126 34.2766 34.6807 36.7376 36.3949 38.4933C37.2727 39.3924 37.9921 39.7509 39.0746 39.8286C40.1715 39.9073 40.9644 39.5637 41.4779 38.7872C41.7782 38.333 41.8232 38.1352 41.8193 37.2884C41.8157 36.4916 41.7528 36.1938 41.4761 35.6625C40.4859 33.7616 38.1769 32.6705 36.6685 33.3907ZM20.8681 34.3546C21.1096 34.4393 21.4229 34.6647 21.5645 34.8556C21.8108 35.1879 21.8122 35.2171 21.5987 35.5429C21.0284 36.4133 19.1898 36.5029 18.3348 35.7018C17.9674 35.3577 17.9674 35.0771 18.3349 34.732C18.9082 34.1934 19.9605 34.0367 20.8681 34.3546ZM27.9044 34.5046C25.4213 35.047 23.337 37.1277 22.827 39.5735C22.1144 42.9905 24.3248 46.4618 27.723 47.2628C31.6776 48.1951 35.4513 45.4219 35.7838 41.3393C36.0389 38.2081 33.7264 35.1711 30.5796 34.5043C29.5286 34.2814 28.9255 34.2815 27.9044 34.5046ZM38.6639 35.3451C39.9249 35.9883 40.4932 37.7516 39.5185 37.9962C38.9062 38.1499 37.7179 37.4066 37.3014 36.6093C37.079 36.1836 37.0645 35.4528 37.2742 35.2431C37.5049 35.0124 38.097 35.0559 38.6639 35.3451ZM31.2358 36.6843C32.1642 37.1386 33.0087 37.9853 33.4698 38.9242C33.7908 39.5779 33.833 39.8063 33.833 40.8883C33.833 41.9439 33.7864 42.2103 33.4947 42.8215C33.0169 43.8222 32.3708 44.5094 31.4263 45.0216C30.6443 45.4455 30.5555 45.4636 29.2577 45.4626C28.1 45.4617 27.8165 45.418 27.2966 45.1605C26.3802 44.7066 25.6149 43.963 25.1305 43.0562C24.7565 42.3557 24.6883 42.088 24.6443 41.146C24.6026 40.2552 24.6444 39.9144 24.8678 39.3219C25.3851 37.95 26.4998 36.8769 27.8727 36.4291C28.7711 36.1362 30.3621 36.2568 31.2358 36.6843ZM48.1685 36.4138C47.462 36.6418 46.8998 37.1456 46.4685 37.9369C45.9735 38.8456 45.8557 40.4784 46.2085 41.5405C46.464 42.3097 47.2205 43.2082 47.8738 43.5181C49.3304 44.2093 51.0915 43.173 51.6346 41.3049C52.4406 38.5323 50.4237 35.686 48.1685 36.4138ZM49.3687 38.4446C49.7448 38.8207 49.8792 39.2547 49.8786 40.0911C49.8775 41.6475 48.7372 42.4315 48.1438 41.2838C47.679 40.3851 47.7814 39.1183 48.3707 38.4717C48.699 38.1116 49.0268 38.1027 49.3687 38.4446ZM30.9431 38.5181C30.7159 38.6136 30.4864 38.8384 30.4095 39.0408C29.945 40.2625 31.6937 41.1324 32.2912 39.9768C32.5456 39.485 32.5285 39.1807 32.225 38.7947C31.91 38.3944 31.4654 38.2983 30.9431 38.5181ZM26.7935 38.827C26.419 39.0459 26.2396 39.674 26.4243 40.1199C26.6155 40.5816 26.9008 40.7594 27.4507 40.7594C27.9833 40.7594 28.4844 40.2596 28.4844 39.7283C28.4844 38.9515 27.4887 38.4208 26.7935 38.827ZM28.7236 41.7251C28.5362 41.8286 28.3209 42.0907 28.2453 42.3078C27.8769 43.3646 29.1833 44.1964 29.9723 43.4073C30.3742 43.0056 30.385 42.428 29.9987 41.9958C29.6312 41.5844 29.1597 41.4843 28.7236 41.7251ZM41.115 41.7281C37.7472 42.4162 36.33 44.0621 35.2434 48.5477C34.8057 50.3541 34.8229 50.7324 35.3668 51.2763C35.913 51.8225 36.266 51.8364 38.1071 51.3842C40.5747 50.778 42.0868 50.0957 43.1131 49.1251C44.3481 47.9569 44.9454 46.3473 45.0711 43.8479L45.1458 42.3611L44.7314 41.9469C44.3229 41.5383 44.301 41.5328 43.135 41.5448C42.4847 41.5515 41.5757 41.634 41.115 41.7281ZM43.1999 44.0459C43.0928 45.7071 42.4594 47.3381 41.6949 47.9212C40.8657 48.5536 37.9943 49.6524 37.1706 49.6524H36.8804L37.1893 48.4979C37.7456 46.4197 38.4373 45.0408 39.2251 44.4398C39.7524 44.0377 40.8929 43.6357 41.9527 43.4787C43.2261 43.2899 43.2481 43.2999 43.1999 44.0459Z" fill="url(#paint0_linear_21_248)"/>
<defs>
<linearGradient id="paint0_linear_21_248" x1="0.551758" y1="29.788" x2="66.4784" y2="29.788" gradientUnits="userSpaceOnUse">
<stop stop-color="#F6D365"/>
<stop offset="1" stop-color="#FDA085"/>
</linearGradient>
</defs>
</svg>
