<svg width="82" height="55" viewBox="0 0 82 55" fill="none" xmlns="http://www.w3.org/2000/svg">
<path fill-rule="evenodd" clip-rule="evenodd" d="M39.316 0.752097C37.8094 1.15303 36.4861 2.25285 35.8042 3.67083C35.458 4.39075 35.3978 4.78406 35.3424 6.69286C35.2819 8.77928 35.2615 8.89085 34.927 8.96368C34.7334 9.00573 33.9445 9.15422 33.1735 9.2936C27.2348 10.3676 20.8947 13.3519 15.8608 17.4428C12.819 19.9147 9.47703 23.7337 7.33386 27.1866C5.21227 30.6046 3.3117 35.2081 2.38299 39.1783C1.93441 41.0961 1.47227 44.0795 1.46949 45.0761C1.46638 46.1635 1.28247 46.9586 1.03382 46.9586C0.906638 46.9586 0.622026 47.1415 0.401334 47.3649C0.00326951 47.7679 0 47.7968 0 50.9314C0 54.066 0.00326951 54.095 0.401334 54.4979L0.802504 54.9043H40.5421H80.2816L80.6828 54.4979C81.0808 54.095 81.0841 54.066 81.0841 50.9314C81.0841 47.7968 81.0808 47.7679 80.6828 47.3649C80.4621 47.1415 80.1732 46.9586 80.0407 46.9586C79.7963 46.9586 79.7591 46.754 79.5306 44.1444C79.375 42.3667 78.8023 39.3944 78.2225 37.3545C74.1712 23.1023 62.4019 12.121 48.2258 9.36627C47.2815 9.18269 46.352 9.00027 46.1601 8.96054C45.8292 8.89234 45.8078 8.77547 45.7453 6.69352C45.6816 4.57333 45.6603 4.46276 45.1248 3.4515C44.2123 1.72843 42.7897 0.799936 40.8875 0.686213C40.2929 0.650623 39.5857 0.680254 39.316 0.752097ZM41.9746 3.6993C42.9329 4.42386 43.0718 4.79499 43.1299 6.78622L43.1838 8.63692H40.5551H37.9264V7.0337C37.9264 4.86203 38.2853 4.0413 39.4795 3.48146C40.1309 3.17604 41.4328 3.28977 41.9746 3.6993ZM45.9368 11.6166C60.8893 13.9159 72.9747 25.3165 76.2439 40.2067C76.6276 41.9537 76.8436 43.433 77.0791 45.9239L77.1769 46.9586H40.5421H3.90724L4.005 45.9239C4.36612 42.1047 4.87813 39.4768 5.8258 36.5784C9.42685 25.5658 18.2014 16.698 29.0276 13.1302C31.998 12.1513 34.3172 11.6619 37.6812 11.3045C39.017 11.1625 44.2773 11.3613 45.9368 11.6166ZM37.5178 13.9645C26.0004 14.9773 15.5724 22.0627 10.3198 32.4448C8.84062 35.3684 7.49668 39.374 7.11137 42.0072L7.00021 42.7667L8.14977 42.959C8.7821 43.0646 9.36767 43.1512 9.4512 43.1512C9.53458 43.1512 9.65244 42.7733 9.71293 42.3113C9.88719 40.9819 10.8963 37.6198 11.7001 35.6917C14.2875 29.4849 19.3564 23.8068 25.296 20.4627C29.2478 18.2375 34.0148 16.8465 38.6495 16.5659L40.5421 16.4512V15.1513V13.8513L39.3569 13.8791C38.7049 13.8945 37.8774 13.9329 37.5178 13.9645ZM78.4685 50.9314V52.2557H40.5421H2.61562V50.9314V49.6071H40.5421H78.4685V50.9314Z" fill="url(#paint0_linear_21_245)"/>
<defs>
<linearGradient id="paint0_linear_21_245" x1="0" y1="27.7877" x2="81.0841" y2="27.7877" gradientUnits="userSpaceOnUse">
<stop stop-color="#A18CD1"/>
<stop offset="1" stop-color="#FBC2EB"/>
</linearGradient>
</defs>
</svg>
