<svg width="448" height="243" viewBox="0 0 448 243" fill="none" xmlns="http://www.w3.org/2000/svg">
<path fill-rule="evenodd" clip-rule="evenodd" d="M362.221 1.39872C363.997 2.04783 367.403 5.19977 368.643 7.34217C369.23 8.35695 369.84 14.7885 370.094 22.6513L370.531 36.2109L387.59 36.6964C396.972 36.9632 404.766 37.258 404.91 37.3525C405.053 37.4461 405.692 38.7636 406.329 40.2796C407.968 44.176 406.903 47.279 403.292 49.13C400.506 50.5577 396.9 50.6583 356.24 50.4423L312.204 50.2078L310.093 47.7531C307.504 44.7429 307.411 41.9846 309.796 38.9534L311.609 36.6483H333.853H356.097V25.7132V14.778H240.18H124.265L124.487 105.977L124.71 197.176L175.692 197.401C216.029 197.58 226.755 197.397 227.057 196.527C231.121 184.837 234.795 179.23 241.955 173.789C253.325 165.15 269.608 163.859 282.736 170.557C290.676 174.607 297.949 183.4 301.127 192.79L302.612 197.176L329.355 197.407L356.097 197.638V177.505V157.372H344.287C333.643 157.372 332.304 157.199 330.727 155.622C328.067 152.962 328.11 148.344 330.821 145.562C332.484 143.855 333.677 143.812 379.816 143.812H427.108L429.22 146.267C431.809 149.277 431.902 152.036 429.517 155.067L427.704 157.372H398.899H370.094V182.207C370.094 205.351 369.98 207.183 368.422 209.107L366.751 211.173L334.619 211.61L302.488 212.047L301.442 215.547C297.365 229.198 285.383 239.669 270.807 242.318C253.186 245.521 233.527 233.61 228.565 216.725L227.063 211.613L163.586 211.611L100.109 211.61L98.9923 215.967C96.5761 225.394 88.3914 234.68 78.5104 239.203C57.8492 248.663 33.9476 238.406 26.3657 216.828L24.686 212.047L16.4839 211.61C7.38672 211.125 4.66516 209.947 1.72757 205.22C0.0811768 202.57 0.0032959 201.08 0.238647 176.618C0.482697 151.22 0.522064 150.728 2.70734 145.562C3.9277 142.675 13.6853 124.567 24.3904 105.321C44.8609 68.5158 47.4774 64.769 53.958 62.9695C56.0331 62.393 67.6042 62.0256 83.7654 62.023L110.181 62.0177L110.447 35.5548C110.71 9.45309 110.741 9.05242 112.75 6.23554C116.929 0.377819 107.532 0.77411 240.36 0.850218C306.661 0.887835 361.499 1.1354 362.221 1.39872ZM366.157 65.6989C369.922 67.8579 370.037 68.5902 370.066 90.6677L370.094 111.882H380.631C390.653 111.882 391.274 111.987 393.316 114.029C396.157 116.87 396.157 120.891 393.316 123.731L391.169 125.879H326.948C263.303 125.879 262.708 125.862 260.423 124.065C257.167 121.505 257.167 116.256 260.423 113.695C262.69 111.912 263.508 111.882 309.413 111.882H356.097V90.8191V69.7563L358.654 67.1992C361.379 64.4742 363.339 64.0823 366.157 65.6989ZM445.132 76.5019C448.123 78.5962 447.889 84.8721 444.726 87.3592C442.434 89.1622 441.723 89.2015 415.78 88.954L389.183 88.6994L387.512 86.634C385.191 83.7672 385.352 79.4028 387.865 77.0417C389.852 75.1749 390.382 75.1399 416.539 75.1399C439.243 75.1399 443.476 75.3411 445.132 76.5019ZM56.3637 77.6567C53.4751 81.03 16.5626 148.357 15.33 152.501C14.3615 155.755 14.0466 161.833 14.0466 177.255V197.696L19.3593 197.436L24.672 197.176L26.1531 192.79C32.7544 173.245 52.554 162.371 72.2564 167.469C84.865 170.732 95.6234 181.135 99.3589 193.676C100.4 197.173 100.405 197.176 105.338 197.438L110.276 197.701V136.858V76.0147H84.0226C59.4265 76.0147 57.6812 76.1179 56.3637 77.6567ZM257.32 181.488C251.925 183.09 245.744 188.344 243.057 193.612C240.56 198.505 240.028 206.745 241.854 212.242C243.75 217.953 248.464 223.36 254.061 226.243C259.525 229.059 268.71 229.409 274.142 227.009C279.186 224.781 284.803 219.116 286.976 214.066C289.37 208.501 289.172 199.125 286.546 193.714C282.91 186.222 273.658 180.267 265.495 180.162C263.537 180.137 259.858 180.734 257.32 181.488ZM53.9965 181.888C37.3611 188.111 33.0877 210.433 46.258 222.306C51.2811 226.835 55.4504 228.462 62.1611 228.511C75.6813 228.611 85.5981 219.43 86.4589 206.015C86.9593 198.217 84.8405 192.632 79.331 187.225C72.455 180.476 63.0587 178.497 53.9965 181.888Z" fill="url(#paint0_linear_21_205)"/>
<defs>
<linearGradient id="paint0_linear_21_205" x1="447.243" y1="121.828" x2="0.140472" y2="121.828" gradientUnits="userSpaceOnUse">
<stop stop-color="#D4FC79"/>
<stop offset="1" stop-color="#96E6A1"/>
</linearGradient>
</defs>
</svg>
