<svg width="177" height="43" viewBox="0 0 177 43" fill="none" xmlns="http://www.w3.org/2000/svg">
<path d="M6.04817 28.5115C6.04817 23.7333 9.95148 19.8301 14.7296 19.8301C19.5078 19.8301 23.4111 23.7333 23.4111 28.5115V42.3749H28.5931V28.5115C28.5931 20.8394 22.4016 14.6481 14.7296 14.6481C7.05764 14.6481 0.866211 20.8394 0.866211 28.5115V42.3749H6.04817V28.5115ZM46.4729 42.3749C51.9239 42.3749 56.7021 39.212 58.9229 34.6358H52.6642C51.0491 36.1836 48.8955 37.1929 46.4729 37.1929C42.5695 37.1929 39.2718 34.6358 38.1953 31.1361H60.067C60.2018 30.3286 60.3363 29.4538 60.3363 28.5115C60.3363 20.9069 54.1447 14.6481 46.4729 14.6481C38.8008 14.6481 32.6095 20.9069 32.6095 28.5115C32.6095 36.1836 38.8008 42.3749 46.4729 42.3749ZM46.4729 19.8974C50.3088 19.8974 53.6065 22.4547 54.7505 25.9541H38.1953C39.2718 22.4547 42.5695 19.8974 46.4729 19.8974ZM74.7164 0.784668H69.5344V9.63358H64.3527V14.6481H69.5344V42.3749H74.7164V14.6481H83.3981V9.63358H74.7164V0.784668Z" fill="white"/>
<path d="M101.285 14.6481C98.0547 14.6481 95.0263 15.7922 92.6707 17.7438V0.784668H87.4215V28.5115C87.4215 36.1836 93.6803 42.3749 101.285 42.3749C108.957 42.3749 115.148 36.1836 115.148 28.5115C115.148 20.9069 108.957 14.6481 101.285 14.6481ZM101.285 37.1929C96.5069 37.1929 92.6707 33.2897 92.6707 28.5115C92.6707 23.7333 96.5069 19.8974 101.285 19.8974C106.063 19.8974 109.967 23.7333 109.967 28.5115C109.967 33.2897 106.063 37.1929 101.285 37.1929ZM119.165 42.3749H124.414V14.6481H119.165V42.3749ZM133.613 28.4443V0.784668H128.432V42.3749H133.613V28.4443ZM150.775 42.3076L140.141 28.4443L150.775 14.5809H144.179L133.613 28.4443L144.179 42.3076H150.775ZM162.865 42.3749C168.317 42.3749 173.095 39.212 175.316 34.6358H169.057C167.442 36.1836 165.288 37.1929 162.865 37.1929C158.962 37.1929 155.665 34.6358 154.588 31.1361H176.46C176.594 30.3286 176.729 29.4538 176.729 28.5115C176.729 20.9069 170.538 14.6481 162.865 14.6481C155.193 14.6481 149.002 20.9069 149.002 28.5115C149.002 36.1836 155.193 42.3749 162.865 42.3749ZM162.865 19.8974C166.701 19.8974 169.999 22.4547 171.143 25.9541H154.588C155.665 22.4547 158.962 19.8974 162.865 19.8974Z" fill="white"/>
<path d="M121.779 10.4414C123.875 10.4414 125.574 8.74205 125.574 6.6458C125.574 4.54956 123.875 2.85021 121.779 2.85021C119.682 2.85021 117.983 4.54956 117.983 6.6458C117.983 8.74205 119.682 10.4414 121.779 10.4414Z" fill="white"/>
<path d="M14.7296 10.443C16.8259 10.443 18.5252 8.7437 18.5252 6.64745C18.5252 4.55121 16.8259 2.85186 14.7296 2.85186C12.6334 2.85186 10.934 4.55121 10.934 6.64745C10.934 8.7437 12.6334 10.443 14.7296 10.443Z" fill="white"/>
</svg>
