<svg width="150" height="40" viewBox="0 0 150 40" fill="none" xmlns="http://www.w3.org/2000/svg">
<path d="M71.9951 13.4539C71.3623 13.4539 70.8271 13.323 70.3896 13.0613C69.9561 12.7957 69.6279 12.4187 69.4053 11.9304C69.1865 11.4382 69.0771 10.8562 69.0771 10.1843C69.0771 9.48511 69.2041 8.88745 69.458 8.39136C69.7119 7.89136 70.0693 7.50854 70.5303 7.24292C70.9912 6.97729 71.5322 6.84448 72.1533 6.84448C72.458 6.84448 72.7412 6.87183 73.0029 6.92651C73.2646 6.9812 73.501 7.05737 73.7119 7.15503L73.5537 7.67651C73.335 7.57886 73.1025 7.50464 72.8564 7.45386C72.6104 7.40308 72.374 7.37769 72.1475 7.37769C71.624 7.37769 71.1787 7.49292 70.8115 7.72339C70.4482 7.94995 70.1689 8.27417 69.9736 8.69604C69.7822 9.11401 69.6865 9.60815 69.6865 10.1785C69.6865 10.7136 69.7686 11.1882 69.9326 11.6023C70.0967 12.0125 70.3486 12.3367 70.6885 12.575C71.0283 12.8093 71.4639 12.9265 71.9951 12.9265C72.3037 12.9265 72.5967 12.8953 72.874 12.8328C73.1553 12.7703 73.4111 12.6902 73.6416 12.5925V13.1316C73.4346 13.2253 73.1943 13.3015 72.9209 13.3601C72.6514 13.4226 72.3428 13.4539 71.9951 13.4539ZM77.6846 6.8562C77.8525 6.8562 78.0107 6.86597 78.1592 6.8855C78.3076 6.90503 78.4463 6.93237 78.5752 6.96753L78.4814 7.51245C78.3525 7.47729 78.2217 7.4519 78.0889 7.43628C77.9561 7.41675 77.8135 7.40698 77.6611 7.40698C77.3604 7.40698 77.0908 7.46362 76.8525 7.5769C76.6182 7.69019 76.4189 7.85229 76.2549 8.06323C76.0908 8.27417 75.9658 8.52808 75.8799 8.82495C75.7939 9.12183 75.751 9.45386 75.751 9.82104V13.3367H75.1533V6.96753H75.6631L75.7217 8.1687H75.7568C75.8545 7.92261 75.9912 7.7019 76.167 7.50659C76.3467 7.30737 76.5635 7.14917 76.8174 7.03198C77.0713 6.91479 77.3604 6.8562 77.6846 6.8562ZM82.2373 6.84448C82.7803 6.84448 83.2314 6.97144 83.5908 7.22534C83.9541 7.47925 84.2236 7.8269 84.3994 8.26831C84.5791 8.70972 84.6689 9.21558 84.6689 9.78589V10.2136H80.0693C80.0693 11.0886 80.2705 11.7605 80.6729 12.2292C81.0791 12.698 81.6592 12.9324 82.4131 12.9324C82.8076 12.9324 83.1494 12.9011 83.4385 12.8386C83.7314 12.7722 84.0557 12.6609 84.4111 12.5046V13.0496C84.0986 13.1902 83.7861 13.2917 83.4736 13.3542C83.1611 13.4207 82.8018 13.4539 82.3955 13.4539C81.751 13.4539 81.21 13.321 80.7725 13.0554C80.3389 12.7859 80.0107 12.407 79.7881 11.9187C79.5693 11.4304 79.46 10.8601 79.46 10.2078C79.46 9.57104 79.5654 8.99878 79.7764 8.49097C79.9912 7.98315 80.3037 7.58276 80.7139 7.28979C81.1279 6.99292 81.6357 6.84448 82.2373 6.84448ZM82.2314 7.35425C81.6221 7.35425 81.1279 7.55737 80.749 7.96362C80.374 8.36597 80.1533 8.948 80.0869 9.70972H84.0537C84.0537 9.24487 83.9873 8.83472 83.8545 8.47925C83.7217 8.12378 83.5205 7.84839 83.251 7.65308C82.9854 7.45386 82.6455 7.35425 82.2314 7.35425ZM88.6475 6.8562C89.3467 6.8562 89.8701 7.03198 90.2178 7.38354C90.5654 7.73511 90.7393 8.29565 90.7393 9.06519V13.3367H90.2822L90.1768 12.2234H90.1416C90.0049 12.4617 89.8389 12.6746 89.6436 12.8621C89.4482 13.0457 89.208 13.1902 88.9229 13.2957C88.6416 13.4011 88.2979 13.4539 87.8916 13.4539C87.4814 13.4539 87.1299 13.3855 86.8369 13.2488C86.5479 13.1121 86.3232 12.9128 86.1631 12.6511C86.0068 12.3894 85.9287 12.071 85.9287 11.696C85.9287 11.0632 86.1904 10.5828 86.7139 10.2546C87.2373 9.92261 87.9893 9.73511 88.9697 9.69214L90.1533 9.63354V9.17065C90.1533 8.51831 90.0244 8.05347 89.7666 7.77612C89.5088 7.49878 89.1279 7.36011 88.624 7.36011C88.2959 7.36011 87.9795 7.40308 87.6748 7.48901C87.374 7.57104 87.0674 7.69019 86.7549 7.84644L86.5674 7.35425C86.8721 7.20972 87.1982 7.09058 87.5459 6.99683C87.8975 6.90308 88.2646 6.8562 88.6475 6.8562ZM90.1475 10.0964L89.0342 10.1433C88.2256 10.1824 87.6104 10.3269 87.1885 10.5769C86.7666 10.8269 86.5557 11.2019 86.5557 11.7019C86.5557 12.1042 86.6807 12.4128 86.9307 12.6277C87.1846 12.8425 87.5361 12.95 87.9854 12.95C88.6846 12.95 89.2178 12.7507 89.585 12.3523C89.9561 11.9539 90.1436 11.4109 90.1475 10.7234V10.0964ZM94.5068 12.9441C94.6904 12.9441 94.8604 12.9304 95.0166 12.9031C95.1768 12.8757 95.3174 12.8406 95.4385 12.7976V13.2898C95.3135 13.3328 95.167 13.3699 94.999 13.4011C94.8311 13.4363 94.6455 13.4539 94.4424 13.4539C94.083 13.4539 93.7842 13.3875 93.5459 13.2546C93.3076 13.1179 93.1279 12.9128 93.0068 12.6394C92.8857 12.3621 92.8252 12.0105 92.8252 11.5847V7.45972H91.876V7.10815L92.8193 6.92651L93.0244 5.42651H93.417V6.96753H95.4033V7.45972H93.417V11.5496C93.417 12.0066 93.501 12.3542 93.6689 12.5925C93.8408 12.8269 94.1201 12.9441 94.5068 12.9441ZM99.2178 6.84448C99.7607 6.84448 100.212 6.97144 100.571 7.22534C100.935 7.47925 101.204 7.8269 101.38 8.26831C101.56 8.70972 101.649 9.21558 101.649 9.78589V10.2136H97.0498C97.0498 11.0886 97.251 11.7605 97.6533 12.2292C98.0596 12.698 98.6396 12.9324 99.3936 12.9324C99.7881 12.9324 100.13 12.9011 100.419 12.8386C100.712 12.7722 101.036 12.6609 101.392 12.5046V13.0496C101.079 13.1902 100.767 13.2917 100.454 13.3542C100.142 13.4207 99.7822 13.4539 99.376 13.4539C98.7314 13.4539 98.1904 13.321 97.7529 13.0554C97.3193 12.7859 96.9912 12.407 96.7686 11.9187C96.5498 11.4304 96.4404 10.8601 96.4404 10.2078C96.4404 9.57104 96.5459 8.99878 96.7568 8.49097C96.9717 7.98315 97.2842 7.58276 97.6943 7.28979C98.1084 6.99292 98.6162 6.84448 99.2178 6.84448ZM99.2119 7.35425C98.6025 7.35425 98.1084 7.55737 97.7295 7.96362C97.3545 8.36597 97.1338 8.948 97.0674 9.70972H101.034C101.034 9.24487 100.968 8.83472 100.835 8.47925C100.702 8.12378 100.501 7.84839 100.231 7.65308C99.9658 7.45386 99.626 7.35425 99.2119 7.35425ZM105.71 13.4539C104.839 13.4539 104.175 13.1804 103.718 12.6335C103.265 12.0828 103.038 11.282 103.038 10.2312C103.038 9.12964 103.278 8.28979 103.759 7.71167C104.239 7.13354 104.909 6.84448 105.769 6.84448C106.136 6.84448 106.454 6.90112 106.724 7.0144C106.997 7.12769 107.226 7.28198 107.409 7.47729C107.597 7.6687 107.741 7.88745 107.843 8.13354H107.89C107.874 7.92651 107.862 7.70386 107.854 7.46558C107.847 7.22729 107.843 7.00854 107.843 6.80933V4.21948H108.435V13.3367H107.954L107.878 12.1707H107.843C107.737 12.405 107.591 12.6199 107.403 12.8152C107.22 13.0105 106.989 13.1667 106.712 13.2839C106.435 13.3972 106.101 13.4539 105.71 13.4539ZM105.774 12.9382C106.524 12.9382 107.058 12.7058 107.374 12.241C107.69 11.7722 107.849 11.1042 107.849 10.2371V10.1433C107.849 9.24487 107.69 8.55737 107.374 8.08081C107.058 7.60034 106.542 7.36011 105.827 7.36011C105.12 7.36011 104.579 7.6062 104.204 8.09839C103.833 8.59058 103.647 9.30542 103.647 10.2429C103.647 11.1257 103.821 11.7957 104.169 12.2527C104.521 12.7097 105.056 12.9382 105.774 12.9382Z" fill="white"/>
<path d="M4.88828 26.3667C4.88828 21.9449 8.50048 18.3327 12.9223 18.3327C17.3442 18.3327 20.9564 21.9449 20.9564 26.3667V39.1962H25.7518V26.3667C25.7518 19.2669 20.0222 13.5371 12.9223 13.5371C5.82247 13.5371 0.0927734 19.2669 0.0927734 26.3667V39.1962H4.88828V26.3667Z" fill="white"/>
<path d="M42.2974 13.5372C39.308 13.5372 36.5054 14.596 34.3256 16.4021V0.707764H29.4678V26.3668C29.4678 33.4666 35.2598 39.1963 42.2974 39.1963C49.3972 39.1963 55.127 33.4666 55.127 26.3668C55.127 19.3292 49.3972 13.5372 42.2974 13.5372ZM42.2974 34.4009C37.8756 34.4009 34.3256 30.7887 34.3256 26.3668C34.3256 21.945 37.8756 18.3951 42.2974 18.3951C46.7192 18.3951 50.3315 21.945 50.3315 26.3668C50.3315 30.7887 46.7192 34.4009 42.2974 34.4009Z" fill="white"/>
<path d="M42.3904 29.726C44.3304 29.726 45.903 28.1534 45.903 26.2134C45.903 24.2735 44.3304 22.7009 42.3904 22.7009C40.4505 22.7009 38.8779 24.2735 38.8779 26.2134C38.8779 28.1534 40.4505 29.726 42.3904 29.726Z" fill="white"/>
<path d="M12.9217 9.77089C14.8616 9.77089 16.4342 8.19828 16.4342 6.25837C16.4342 4.31846 14.8616 2.74585 12.9217 2.74585C10.9818 2.74585 9.40918 4.31846 9.40918 6.25837C9.40918 8.19828 10.9818 9.77089 12.9217 9.77089Z" fill="white"/>
<path d="M71.5869 22.8585V32.5867H69.4165V18.8278H71.1994L78.9896 28.7691V18.8471H81.1794V32.5867H79.2803L71.5869 22.8585ZM93.7097 30.6682V32.5867H84.2723V18.8278H93.5353V20.7463H86.4427V24.6608H92.5858V26.463H86.4427V30.6682H93.7097ZM106.045 20.7463H101.472V32.5867H99.2819V20.7463H94.6891V18.8278H106.045V20.7463ZM118.703 29.0404C118.703 29.7768 118.51 30.4098 118.122 30.9395C117.747 31.4692 117.237 31.8761 116.591 32.1603C115.945 32.4446 115.235 32.5867 114.46 32.5867H107.89V18.8278H114.983C115.629 18.8278 116.184 19.0022 116.649 19.351C117.127 19.6869 117.489 20.1261 117.735 20.6687C117.993 21.1984 118.122 21.7539 118.122 22.3353C118.122 23.0071 117.948 23.6401 117.599 24.2344C117.263 24.8158 116.779 25.2486 116.145 25.5328C116.934 25.7653 117.554 26.1917 118.006 26.8118C118.471 27.419 118.703 28.1619 118.703 29.0404ZM116.475 28.6334C116.475 28.2458 116.391 27.897 116.223 27.587C116.068 27.264 115.848 27.0056 115.564 26.8118C115.293 26.6051 114.97 26.5017 114.595 26.5017H110.061V30.7069H114.46C114.847 30.7069 115.189 30.6165 115.487 30.4356C115.797 30.2418 116.036 29.9899 116.204 29.6799C116.384 29.3569 116.475 29.0081 116.475 28.6334ZM110.061 20.7075V24.7577H114.053C114.414 24.7577 114.737 24.6737 115.022 24.5057C115.306 24.3249 115.532 24.0859 115.7 23.7887C115.868 23.4787 115.952 23.1298 115.952 22.7423C115.952 22.3418 115.874 21.993 115.719 21.6958C115.564 21.3858 115.351 21.1467 115.08 20.9788C114.821 20.7979 114.518 20.7075 114.169 20.7075H110.061ZM120.967 32.5867V18.8278H123.137V32.5867H120.967ZM126.247 32.5867V18.8471H128.417V25.9204L134.89 18.8278H137.293L131.867 24.9127L137.603 32.5867H135.142L130.491 26.2886L128.417 28.4396V32.5867H126.247ZM148.477 30.6682V32.5867H139.04V18.8278H148.303V20.7463H141.21V24.6608H147.353V26.463H141.21V30.6682H148.477Z" fill="white"/>
</svg>
