<svg width="1921" height="601" viewBox="0 0 1921 601" fill="none" xmlns="http://www.w3.org/2000/svg">
<rect x="0.558594" y="0.656006" width="1920" height="600" fill="#B4AAC1"/>
<mask id="mask0_41_5721" style="mask-type:alpha" maskUnits="userSpaceOnUse" x="872" y="0" width="1049" height="601">
<rect x="872.56" y="0.656006" width="1048" height="600" fill="#D9D9D9"/>
</mask>
<g mask="url(#mask0_41_5721)">
<g filter="url(#filter0_i_41_5721)">
<path fill-rule="evenodd" clip-rule="evenodd" d="M1540.99 31.6477H1085.52V157.863H1540.99V31.6477ZM1311.88 67.3172C1304.97 67.3172 1299.15 71.9584 1297.36 78.2925H1254.3C1248.97 78.2925 1244.66 82.6103 1244.66 87.9366V98.8303C1244.66 104.157 1248.97 108.474 1254.3 108.474H1369.46C1374.79 108.474 1379.1 104.157 1379.1 98.8303V87.9366C1379.1 82.6103 1374.79 78.2925 1369.46 78.2925H1326.4C1324.61 71.9584 1318.79 67.3172 1311.88 67.3172Z" fill="#544F5B"/>
</g>
<rect x="1308.08" y="31.6477" width="232.773" height="115.291" fill="url(#paint0_linear_41_5721)"/>
<g filter="url(#filter1_i_41_5721)">
<rect x="1085.39" y="146.938" width="455.463" height="828.514" fill="#B4AAC1"/>
</g>
<mask id="mask1_41_5721" style="mask-type:alpha" maskUnits="userSpaceOnUse" x="1085" y="146" width="456" height="822">
<rect x="1085.52" y="146.938" width="455.472" height="820.348" fill="#C4C4C4"/>
</mask>
<g mask="url(#mask1_41_5721)">
<path d="M1123.32 201.748L1123.43 201.978L1123.69 201.987L1136.23 202.39L1125.06 208.102L1124.83 208.22L1124.82 208.478L1124.42 221.015L1118.71 209.847L1118.59 209.617L1118.33 209.609L1105.79 209.206L1116.96 203.494L1117.19 203.376L1117.2 203.118L1117.6 190.58L1123.32 201.748Z" stroke="white" stroke-width="0.876734"/>
<path d="M1480.67 250.267L1480.74 250.517L1480.99 250.582L1493.13 253.715L1480.99 256.848L1480.74 256.913L1480.67 257.163L1477.54 269.309L1474.41 257.163L1474.34 256.913L1474.09 256.848L1461.94 253.715L1474.09 250.582L1474.34 250.517L1474.41 250.267L1477.54 238.12L1480.67 250.267Z" stroke="white" stroke-width="0.876734"/>
<path d="M1115.77 600.291L1115.16 609.719L1123.12 614.814L1113.69 614.203L1108.59 622.16L1109.2 612.732L1101.25 607.637L1110.68 608.247L1115.77 600.291Z" fill="#C4C4C4"/>
<path d="M1498.94 197.625L1503.53 205.881L1512.98 205.856L1504.73 210.448L1504.75 219.895L1500.16 211.639L1490.71 211.664L1498.97 207.072L1498.94 197.625Z" fill="#C4C4C4"/>
</g>
<g filter="url(#filter2_f_41_5721)">
<path d="M1198.53 240.31C1171.86 240.31 1150.26 262.21 1150.26 289.19V849.831C1150.26 876.81 1171.86 898.711 1198.53 898.711H1431.14C1457.81 898.711 1479.41 876.81 1479.41 849.831V289.19C1479.41 262.21 1457.81 240.31 1431.14 240.31H1198.53Z" stroke="black" stroke-opacity="0.71" stroke-width="2.6302"/>
</g>
<g filter="url(#filter3_f_41_5721)">
<path d="M1170.89 291.014C1170.89 274.403 1184.36 260.938 1200.97 260.938H1255.84C1272.45 260.938 1285.92 274.403 1285.92 291.014V359.609C1285.92 376.22 1272.45 389.685 1255.84 389.685H1200.97C1184.36 389.685 1170.89 376.22 1170.89 359.609V291.014Z" stroke="black" stroke-opacity="0.15" stroke-width="5.69877"/>
</g>
<path fill-rule="evenodd" clip-rule="evenodd" d="M1199.14 241.872C1172.99 241.872 1151.79 263.069 1151.79 289.216V849.887C1151.79 876.034 1172.99 897.231 1199.14 897.231H1430.39C1456.54 897.231 1477.73 876.035 1477.73 849.887V289.216C1477.73 263.069 1456.54 241.872 1430.39 241.872H1199.14ZM1202.48 258.597C1183.59 258.597 1168.28 273.906 1168.28 292.79V357.325C1168.28 376.209 1183.59 391.517 1202.48 391.517H1255.62C1274.5 391.517 1289.81 376.209 1289.81 357.325V292.79C1289.81 273.906 1274.5 258.597 1255.62 258.597H1202.48Z" fill="#3E3945"/>
<mask id="mask2_41_5721" style="mask-type:alpha" maskUnits="userSpaceOnUse" x="1151" y="241" width="327" height="657">
<path fill-rule="evenodd" clip-rule="evenodd" d="M1199.14 241.872C1172.99 241.872 1151.79 263.069 1151.79 289.216V849.887C1151.79 876.034 1172.99 897.231 1199.14 897.231H1430.39C1456.54 897.231 1477.73 876.035 1477.73 849.887V289.216C1477.73 263.069 1456.54 241.872 1430.39 241.872H1199.14ZM1202.48 258.597C1183.59 258.597 1168.28 273.906 1168.28 292.79V357.325C1168.28 376.209 1183.59 391.517 1202.48 391.517H1255.62C1274.5 391.517 1289.81 376.209 1289.81 357.325V292.79C1289.81 273.906 1274.5 258.597 1255.62 258.597H1202.48Z" fill="#C4C4C4"/>
</mask>
<g mask="url(#mask2_41_5721)">
<path d="M1359.37 399.494L1361.93 398.664L1360.14 393.158L1366.29 385.715L1376.17 416.189L1368.43 418.702L1366.85 413.837L1364.29 414.667L1363.37 411.85L1365.93 411.02L1362.69 401.032L1360.13 401.863L1359.37 399.494Z" fill="white"/>
<path d="M1321.71 411.711L1324.27 410.88L1322.49 405.374L1328.63 397.931L1338.52 428.406L1330.77 430.919L1329.19 426.053L1326.63 426.884L1325.72 424.067L1328.28 423.236L1325.04 413.249L1322.48 414.079L1321.71 411.711Z" fill="white"/>
<path d="M1309.16 415.782L1311.72 414.951L1309.93 409.445L1316.08 402.002L1325.97 432.476L1318.22 434.989L1316.64 430.124L1314.08 430.955L1313.17 428.138L1315.73 427.307L1312.49 417.319L1309.93 418.15L1309.16 415.782Z" fill="white"/>
<path d="M1371.92 395.423L1374.48 394.592L1372.69 389.086L1378.84 381.644L1388.73 412.118L1380.98 414.631L1379.4 409.765L1376.84 410.596L1375.93 407.779L1378.49 406.948L1375.25 396.961L1372.69 397.792L1371.92 395.423Z" fill="white"/>
<path d="M1334.26 407.638L1336.82 406.808L1335.04 401.302L1341.18 393.859L1351.07 424.333L1343.32 426.846L1341.74 421.981L1339.18 422.811L1338.27 419.995L1340.83 419.164L1337.59 409.176L1335.03 410.007L1334.26 407.638Z" fill="white"/>
<path d="M1384.47 391.351L1387.03 390.52L1385.24 385.014L1391.39 377.572L1401.28 408.046L1393.53 410.559L1391.95 405.693L1389.39 406.524L1388.48 403.707L1391.04 402.876L1387.8 392.889L1385.24 393.72L1384.47 391.351Z" fill="white"/>
<path d="M1346.81 403.566L1349.38 402.736L1347.59 397.23L1353.74 389.787L1363.62 420.261L1355.88 422.774L1354.3 417.909L1351.74 418.739L1350.82 415.922L1353.38 415.092L1350.14 405.104L1347.58 405.935L1346.81 403.566Z" fill="white"/>
<path d="M1397.02 387.279L1399.58 386.449L1397.8 380.943L1403.94 373.5L1413.83 403.974L1406.08 406.487L1404.5 401.622L1401.94 402.452L1401.03 399.635L1403.59 398.805L1400.35 388.817L1397.79 389.648L1397.02 387.279Z" fill="white"/>
<path d="M1409.57 383.207L1412.13 382.376L1410.35 376.871L1416.5 369.428L1426.38 399.902L1418.63 402.415L1417.06 397.549L1414.49 398.38L1413.58 395.563L1416.14 394.733L1412.9 384.745L1410.34 385.576L1409.57 383.207Z" fill="white"/>
<path d="M1422.13 379.136L1424.69 378.305L1422.9 372.799L1429.05 365.356L1438.93 395.83L1431.19 398.343L1429.61 393.478L1427.05 394.309L1426.13 391.492L1428.69 390.661L1425.46 380.673L1422.89 381.504L1422.13 379.136Z" fill="white"/>
<path d="M1367.71 339.823L1344.99 347.193L1331.9 340.602C1329.18 339.215 1327.4 339.893 1326.07 342.493C1318.36 357.552 1303.22 388.075 1302.45 389.576C1299.92 394.538 1306.86 398.128 1309.38 393.18C1311.91 388.232 1331.83 350.156 1331.83 350.156L1373.8 372.645L1420.81 357.395C1428.04 355.05 1424.59 351.184 1421.97 349.545L1396.6 334.287C1392.09 331.989 1392.93 331.64 1389.36 332.798L1377.7 336.58L1374.15 325.614L1364.15 328.856L1367.71 339.823Z" fill="white"/>
<rect x="1325.9" y="370.274" width="9.62995" height="9.62995" transform="rotate(-17.9729 1325.9 370.274)" fill="white"/>
<rect x="1337.27" y="366.585" width="9.62995" height="9.62995" transform="rotate(-17.9729 1337.27 366.585)" fill="white"/>
<rect x="1340.91" y="377.797" width="9.62995" height="9.62995" transform="rotate(-17.9729 1340.91 377.797)" fill="white"/>
<rect x="1329.53" y="381.486" width="9.62995" height="9.62995" transform="rotate(-17.9729 1329.53 381.486)" fill="white"/>
<path d="M1327.52 465.392L1321.95 448.231L1325.95 446.935L1336.84 456.298L1334.73 456.982L1337.86 443.07L1341.86 441.774L1347.47 458.918L1343.01 460.366L1339.6 450.012L1340.36 449.765L1338 460.121L1335.84 460.821L1327.71 453.869L1328.64 453.566L1332 463.936L1327.52 465.392ZM1353.43 445.362L1361.39 442.778L1362.57 446.406L1354.6 448.991L1353.43 445.362ZM1355.97 452.017L1364.94 449.107L1366.15 452.857L1352.38 457.327L1346.81 440.166L1360.27 435.8L1361.49 439.551L1352.83 442.358L1355.97 452.017ZM1373.97 450.322L1369.65 437.01L1364.38 438.72L1363.13 434.871L1378.51 429.885L1379.75 433.733L1374.51 435.435L1378.83 448.747L1373.97 450.322ZM1387.35 445.981L1381.78 428.821L1389.63 426.276C1391.2 425.767 1392.63 425.583 1393.92 425.724C1395.23 425.859 1396.35 426.308 1397.28 427.071C1398.21 427.818 1398.89 428.845 1399.31 430.152C1399.73 431.443 1399.78 432.663 1399.47 433.813C1399.15 434.946 1398.5 435.951 1397.52 436.829C1396.55 437.685 1395.29 438.368 1393.72 438.877L1388.57 440.547L1390.07 437.812L1392.21 444.407L1387.35 445.981ZM1397.97 442.538L1391.67 437.67L1396.85 435.992L1403.16 440.852L1397.97 442.538ZM1390.23 438.327L1387.35 436.796L1392.21 435.221C1393.22 434.893 1393.9 434.428 1394.25 433.828C1394.61 433.222 1394.66 432.527 1394.41 431.743C1394.15 430.942 1393.7 430.403 1393.05 430.126C1392.41 429.844 1391.59 429.867 1390.58 430.196L1385.72 431.77L1387.16 428.84L1390.23 438.327ZM1404.91 440.285L1406.92 420.667L1411.7 419.117L1424.87 433.812L1419.82 435.45L1409.09 422.592L1411 421.972L1409.86 438.679L1404.91 440.285ZM1407.97 435.607L1408.06 431.623L1416.44 428.903L1418.86 432.076L1407.97 435.607ZM1427.71 432.888L1422.15 415.728L1427 414.153L1432.57 431.314L1427.71 432.888ZM1437.49 429.716L1431.92 412.556L1436.78 410.981L1441.1 424.293L1449.28 421.637L1450.53 425.486L1437.49 429.716Z" fill="white"/>
<path d="M1330.13 525.108L1332.69 524.277L1330.91 518.771L1337.05 511.328L1346.94 541.803L1339.19 544.316L1337.61 539.45L1335.05 540.281L1334.14 537.464L1336.7 536.633L1333.46 526.646L1330.9 527.476L1330.13 525.108Z" fill="white"/>
<path d="M1401.23 504.262L1403.79 503.432L1402 497.926L1408.15 490.483L1418.04 520.957L1410.29 523.47L1408.71 518.605L1406.15 519.435L1405.24 516.619L1407.8 515.788L1404.56 505.8L1402 506.631L1401.23 504.262Z" fill="white"/>
<path d="M1264.35 505.398L1266.91 504.568L1265.12 499.062L1271.27 491.619L1281.16 522.093L1273.41 524.606L1271.83 519.741L1269.27 520.571L1268.36 517.755L1270.92 516.924L1267.68 506.936L1265.12 507.767L1264.35 505.398Z" fill="white"/>
<path d="M1333.57 601.937L1336.13 601.106L1334.34 595.6L1340.49 588.157L1350.38 618.631L1342.63 621.144L1341.05 616.279L1338.49 617.11L1337.58 614.293L1340.14 613.462L1336.9 603.474L1334.34 604.305L1333.57 601.937Z" fill="white"/>
<path d="M1240.99 427.001L1243.55 426.17L1241.76 420.665L1247.91 413.222L1257.8 443.696L1250.05 446.209L1248.47 441.343L1245.91 442.174L1245 439.357L1247.56 438.526L1244.32 428.539L1241.76 429.37L1240.99 427.001Z" fill="white"/>
<path d="M1188.65 492.754L1191.21 491.923L1189.42 486.417L1195.57 478.975L1205.45 509.449L1197.71 511.962L1196.13 507.096L1193.57 507.927L1192.65 505.11L1195.22 504.279L1191.98 494.292L1189.41 495.123L1188.65 492.754Z" fill="white"/>
<path d="M1224.65 572.082L1227.21 571.251L1225.43 565.745L1231.57 558.302L1241.46 588.776L1233.71 591.289L1232.13 586.424L1229.57 587.255L1228.66 584.438L1231.22 583.607L1227.98 573.619L1225.42 574.45L1224.65 572.082Z" fill="white"/>
<path d="M1410.4 582.68L1412.96 581.849L1411.17 576.343L1417.32 568.901L1427.21 599.375L1419.46 601.888L1417.88 597.022L1415.32 597.853L1414.41 595.036L1416.97 594.205L1413.73 584.218L1411.17 585.049L1410.4 582.68Z" fill="white"/>
</g>
<g filter="url(#filter4_i_41_5721)">
<path fill-rule="evenodd" clip-rule="evenodd" d="M1199.14 241.872C1172.99 241.872 1151.79 263.069 1151.79 289.216V849.887C1151.79 876.034 1172.99 897.231 1199.14 897.231H1430.39C1456.54 897.231 1477.73 876.035 1477.73 849.887V289.216C1477.73 263.069 1456.54 241.872 1430.39 241.872H1199.14ZM1202.48 258.597C1183.59 258.597 1168.28 273.906 1168.28 292.79V357.325C1168.28 376.209 1183.59 391.517 1202.48 391.517H1255.62C1274.5 391.517 1289.81 376.209 1289.81 357.325V292.79C1289.81 273.906 1274.5 258.597 1255.62 258.597H1202.48Z" fill="white" fill-opacity="0.01"/>
</g>
<g filter="url(#filter5_f_41_5721)">
<path fill-rule="evenodd" clip-rule="evenodd" d="M1201.31 245.833C1175.16 245.833 1153.96 267.03 1153.96 293.177V849.041C1153.96 871.906 1170.17 890.985 1191.72 895.415C1174.1 888.525 1161.61 871.372 1161.61 851.303V298.154C1161.61 272.006 1182.8 250.81 1208.95 250.81H1420.16C1446.3 250.81 1467.5 272.006 1467.5 298.154V851.303C1467.5 871.168 1455.26 888.175 1437.92 895.201C1458.98 890.4 1474.7 871.556 1474.7 849.041V293.177C1474.7 267.03 1453.5 245.833 1427.35 245.833H1201.31Z" fill="white" fill-opacity="0.5"/>
</g>
<g filter="url(#filter6_i_41_5721)">
<rect x="1071.8" y="157.863" width="485.654" height="834.117" fill="#C4C4C4" fill-opacity="0.01"/>
</g>
<g filter="url(#filter7_i_41_5721)">
<path d="M1084.07 146.888L1071.8 157.863H1557.45L1541.08 146.888H1084.07Z" fill="#C4C4C4" fill-opacity="0.01"/>
</g>
<path d="M1084.07 146.888L1071.8 157.863H1557.45L1541.08 146.888H1084.07Z" stroke="#B3B3B3" stroke-width="0.0876734" stroke-linecap="round" stroke-linejoin="round"/>
<path d="M1241.91 147.902C1241.91 147.902 1435.67 145.619 1540.85 147.902L1557.45 158.336V942.591H1410.69C1354.43 679.979 1241.91 147.902 1241.91 147.902Z" fill="url(#paint1_linear_41_5721)"/>
<path d="M1071.8 990.494V367.65L1196.64 990.494H1071.8Z" fill="url(#paint2_linear_41_5721)"/>
</g>
<defs>
<filter id="filter0_i_41_5721" x="1085.52" y="31.6477" width="455.472" height="126.215" filterUnits="userSpaceOnUse" color-interpolation-filters="sRGB">
<feFlood flood-opacity="0" result="BackgroundImageFix"/>
<feBlend mode="normal" in="SourceGraphic" in2="BackgroundImageFix" result="shape"/>
<feColorMatrix in="SourceAlpha" type="matrix" values="0 0 0 0 0 0 0 0 0 0 0 0 0 0 0 0 0 0 127 0" result="hardAlpha"/>
<feOffset/>
<feGaussianBlur stdDeviation="0.65755"/>
<feComposite in2="hardAlpha" operator="arithmetic" k2="-1" k3="1"/>
<feColorMatrix type="matrix" values="0 0 0 0 0 0 0 0 0 0 0 0 0 0 0 0 0 0 0.25 0"/>
<feBlend mode="normal" in2="shape" result="effect1_innerShadow_41_5721"/>
</filter>
<filter id="filter1_i_41_5721" x="1085.39" y="146.5" width="455.463" height="828.952" filterUnits="userSpaceOnUse" color-interpolation-filters="sRGB">
<feFlood flood-opacity="0" result="BackgroundImageFix"/>
<feBlend mode="normal" in="SourceGraphic" in2="BackgroundImageFix" result="shape"/>
<feColorMatrix in="SourceAlpha" type="matrix" values="0 0 0 0 0 0 0 0 0 0 0 0 0 0 0 0 0 0 127 0" result="hardAlpha"/>
<feOffset dy="-0.438367"/>
<feGaussianBlur stdDeviation="0.65755"/>
<feComposite in2="hardAlpha" operator="arithmetic" k2="-1" k3="1"/>
<feColorMatrix type="matrix" values="0 0 0 0 0 0 0 0 0 0 0 0 0 0 0 0 0 0 0.25 0"/>
<feBlend mode="normal" in2="shape" result="effect1_innerShadow_41_5721"/>
</filter>
<filter id="filter2_f_41_5721" x="1127.03" y="217.077" width="375.61" height="704.867" filterUnits="userSpaceOnUse" color-interpolation-filters="sRGB">
<feFlood flood-opacity="0" result="BackgroundImageFix"/>
<feBlend mode="normal" in="SourceGraphic" in2="BackgroundImageFix" result="shape"/>
<feGaussianBlur stdDeviation="10.9592" result="effect1_foregroundBlur_41_5721"/>
</filter>
<filter id="filter3_f_41_5721" x="1146.12" y="236.17" width="164.564" height="178.283" filterUnits="userSpaceOnUse" color-interpolation-filters="sRGB">
<feFlood flood-opacity="0" result="BackgroundImageFix"/>
<feBlend mode="normal" in="SourceGraphic" in2="BackgroundImageFix" result="shape"/>
<feGaussianBlur stdDeviation="10.9592" result="effect1_foregroundBlur_41_5721"/>
</filter>
<filter id="filter4_i_41_5721" x="1150.48" y="241.872" width="327.258" height="655.359" filterUnits="userSpaceOnUse" color-interpolation-filters="sRGB">
<feFlood flood-opacity="0" result="BackgroundImageFix"/>
<feBlend mode="normal" in="SourceGraphic" in2="BackgroundImageFix" result="shape"/>
<feColorMatrix in="SourceAlpha" type="matrix" values="0 0 0 0 0 0 0 0 0 0 0 0 0 0 0 0 0 0 127 0" result="hardAlpha"/>
<feOffset dx="-1.3151"/>
<feGaussianBlur stdDeviation="5.47959"/>
<feComposite in2="hardAlpha" operator="arithmetic" k2="-1" k3="1"/>
<feColorMatrix type="matrix" values="0 0 0 0 0 0 0 0 0 0 0 0 0 0 0 0 0 0 0.51 0"/>
<feBlend mode="normal" in2="shape" result="effect1_innerShadow_41_5721"/>
</filter>
<filter id="filter5_f_41_5721" x="1147.39" y="239.258" width="333.886" height="662.733" filterUnits="userSpaceOnUse" color-interpolation-filters="sRGB">
<feFlood flood-opacity="0" result="BackgroundImageFix"/>
<feBlend mode="normal" in="SourceGraphic" in2="BackgroundImageFix" result="shape"/>
<feGaussianBlur stdDeviation="3.28775" result="effect1_foregroundBlur_41_5721"/>
</filter>
<filter id="filter6_i_41_5721" x="1071.8" y="156.986" width="485.654" height="834.994" filterUnits="userSpaceOnUse" color-interpolation-filters="sRGB">
<feFlood flood-opacity="0" result="BackgroundImageFix"/>
<feBlend mode="normal" in="SourceGraphic" in2="BackgroundImageFix" result="shape"/>
<feColorMatrix in="SourceAlpha" type="matrix" values="0 0 0 0 0 0 0 0 0 0 0 0 0 0 0 0 0 0 127 0" result="hardAlpha"/>
<feOffset dy="-0.876734"/>
<feGaussianBlur stdDeviation="8.76734"/>
<feComposite in2="hardAlpha" operator="arithmetic" k2="-1" k3="1"/>
<feColorMatrix type="matrix" values="0 0 0 0 0 0 0 0 0 0 0 0 0 0 0 0 0 0 0.4 0"/>
<feBlend mode="normal" in2="shape" result="effect1_innerShadow_41_5721"/>
</filter>
<filter id="filter7_i_41_5721" x="1071.75" y="146.844" width="485.742" height="11.063" filterUnits="userSpaceOnUse" color-interpolation-filters="sRGB">
<feFlood flood-opacity="0" result="BackgroundImageFix"/>
<feBlend mode="normal" in="SourceGraphic" in2="BackgroundImageFix" result="shape"/>
<feColorMatrix in="SourceAlpha" type="matrix" values="0 0 0 0 0 0 0 0 0 0 0 0 0 0 0 0 0 0 127 0" result="hardAlpha"/>
<feOffset/>
<feGaussianBlur stdDeviation="5.47959"/>
<feComposite in2="hardAlpha" operator="arithmetic" k2="-1" k3="1"/>
<feColorMatrix type="matrix" values="0 0 0 0 0 0 0 0 0 0 0 0 0 0 0 0 0 0 0.25 0"/>
<feBlend mode="normal" in2="shape" result="effect1_innerShadow_41_5721"/>
</filter>
<linearGradient id="paint0_linear_41_5721" x1="1308.08" y1="89.293" x2="1540.85" y2="89.293" gradientUnits="userSpaceOnUse">
<stop offset="0.015625" stop-color="white" stop-opacity="0.1"/>
<stop offset="1" stop-color="white" stop-opacity="0"/>
</linearGradient>
<linearGradient id="paint1_linear_41_5721" x1="1438.1" y1="146.887" x2="1438.1" y2="986.492" gradientUnits="userSpaceOnUse">
<stop stop-color="white" stop-opacity="0.25"/>
<stop offset="0.90625" stop-color="#FDFDFD" stop-opacity="0"/>
</linearGradient>
<linearGradient id="paint2_linear_41_5721" x1="971.648" y1="820.378" x2="1163.71" y2="777.85" gradientUnits="userSpaceOnUse">
<stop offset="0.015625" stop-color="white" stop-opacity="0.7"/>
<stop offset="1" stop-color="white" stop-opacity="0"/>
</linearGradient>
</defs>
</svg>
