<svg width="1921" height="601" viewBox="0 0 1921 601" fill="none" xmlns="http://www.w3.org/2000/svg">
<rect x="0.558594" y="0.45166" width="1920" height="600" fill="#373C63"/>
<mask id="mask0_43_7798" style="mask-type:alpha" maskUnits="userSpaceOnUse" x="872" y="0" width="1049" height="601">
<rect x="872.56" y="0.45166" width="1048" height="600" fill="#D9D9D9"/>
</mask>
<g mask="url(#mask0_43_7798)">
<path d="M1579.17 38.796C1543.73 20.1926 1503.36 9.63647 1460.55 9.63647C1390.01 9.63647 1326.12 38.2422 1279.89 84.4739C1233.66 130.706 1205.05 194.596 1205.05 265.133C1205.05 270.378 1205.21 275.591 1205.54 280.739V600.452H1323.68V480.783C1363.29 506.033 1410.28 520.662 1460.55 520.662C1530.92 520.662 1594.75 492.056 1641.08 445.792L1641.21 445.662C1686 400.798 1714.22 339.547 1715.98 271.845C1698.06 280.609 1677.96 285.528 1656.72 285.528C1635.41 285.528 1615.24 280.576 1597.26 271.747C1595.59 306.836 1580.64 338.472 1557.34 361.832L1557.25 361.93C1532.45 386.691 1498.24 402.004 1460.58 402.004C1422.85 402.004 1388.64 386.691 1363.82 361.864C1339.02 337.168 1323.68 302.926 1323.68 265.133C1323.68 227.372 1339.02 193.13 1363.78 168.369C1388.54 143.608 1422.79 128.262 1460.58 128.262C1482.41 128.262 1503.07 133.41 1521.38 142.5C1523.27 108.062 1537.99 77.013 1560.9 54.1415C1566.5 48.505 1572.66 43.3899 1579.17 38.796Z" fill="white"/>
<path d="M1715.98 150.091C1715.98 166.447 1709.33 181.271 1698.58 192.055L1698.55 192.087C1687.8 202.806 1672.97 209.453 1656.62 209.453C1640.26 209.453 1625.44 202.806 1614.65 192.055C1603.9 181.336 1597.26 166.479 1597.26 150.091C1597.26 133.703 1603.9 118.879 1614.65 108.127C1625.41 97.3758 1640.23 90.7294 1656.62 90.7294C1673.01 90.7294 1687.86 97.3758 1698.58 108.127C1709.33 118.912 1715.98 133.736 1715.98 150.091Z" fill="#48AC3C"/>
<path fill-rule="evenodd" clip-rule="evenodd" d="M1570.21 271.747C1566.79 329.349 1519 374.994 1460.58 374.994C1402.13 374.994 1354.34 329.349 1350.91 271.747C1424.02 291.556 1497.1 291.458 1570.21 271.747Z" fill="#48AC3C"/>
<path d="M1656.62 209.453C1689.4 209.453 1715.98 182.876 1715.98 150.091C1715.98 117.307 1689.4 90.7294 1656.62 90.7294C1623.83 90.7294 1597.26 117.307 1597.26 150.091C1597.26 182.876 1623.83 209.453 1656.62 209.453Z" fill="#48AC3C"/>
<path d="M1082.09 519.794C1078.93 525.81 1077.14 532.66 1077.14 539.925C1077.14 551.896 1082 562.738 1089.84 570.584C1097.69 578.43 1108.53 583.284 1120.5 583.284C1121.39 583.284 1122.27 583.257 1123.15 583.201L1177.4 583.201L1177.4 563.153L1157.1 563.153C1161.38 556.43 1163.86 548.457 1163.86 539.925C1163.86 527.983 1159.01 517.151 1151.16 509.289L1151.14 509.267C1143.52 501.665 1133.13 496.876 1121.64 496.578C1123.13 499.619 1123.96 503.03 1123.96 506.635C1123.96 510.251 1123.12 513.674 1121.62 516.726C1127.58 517.008 1132.95 519.545 1136.91 523.499L1136.93 523.515C1141.13 527.723 1143.73 533.528 1143.73 539.92C1143.73 546.323 1141.13 552.128 1136.92 556.341C1132.72 560.549 1126.91 563.153 1120.5 563.153C1114.09 563.153 1108.28 560.549 1104.08 556.347C1099.88 552.145 1097.27 546.334 1097.27 539.92C1097.27 536.215 1098.15 532.71 1099.69 529.603C1093.84 529.282 1088.57 526.783 1084.69 522.896C1083.74 521.945 1082.87 520.9 1082.09 519.794Z" fill="white"/>
<path d="M1100.98 496.578C1103.75 496.578 1106.27 497.706 1108.1 499.53L1108.1 499.536C1109.92 501.36 1111.05 503.876 1111.05 506.652C1111.05 509.427 1109.92 511.943 1108.1 513.773C1106.28 515.598 1103.76 516.726 1100.98 516.726C1098.2 516.726 1095.68 515.598 1093.85 513.773C1092.03 511.949 1090.9 509.433 1090.9 506.652C1090.9 503.871 1092.03 501.349 1093.85 499.53C1095.69 497.706 1098.2 496.578 1100.98 496.578Z" fill="#48AC3C"/>
<path fill-rule="evenodd" clip-rule="evenodd" d="M1121.62 521.315C1131.4 521.895 1139.14 530.006 1139.14 539.92C1139.14 549.839 1131.4 557.95 1121.62 558.531C1124.98 546.124 1124.97 533.722 1121.62 521.315Z" fill="#48AC3C"/>
<path d="M1111.05 506.652C1111.05 501.088 1106.54 496.578 1100.98 496.578C1095.41 496.578 1090.9 501.088 1090.9 506.652C1090.9 512.215 1095.41 516.726 1100.98 516.726C1106.54 516.726 1111.05 512.215 1111.05 506.652Z" fill="#48AC3C"/>
<path d="M1153.91 482.739L1119.82 482.739L1119.82 469.287C1119.82 466.701 1120.31 464.498 1121.3 462.678C1122.28 460.858 1123.64 459.471 1125.38 458.516C1127.11 457.55 1129.11 457.068 1131.37 457.068C1133.64 457.068 1135.63 457.556 1137.36 458.533C1139.1 459.509 1140.44 460.924 1141.41 462.778C1142.38 464.62 1142.86 466.851 1142.86 469.47L1142.86 475.53L1137.08 475.53L1137.08 470.636C1137.08 469.248 1136.84 468.105 1136.37 467.206C1135.88 466.296 1135.21 465.619 1134.35 465.175C1133.49 464.72 1132.49 464.493 1131.37 464.493C1130.24 464.493 1129.25 464.72 1128.41 465.175C1127.55 465.619 1126.89 466.296 1126.43 467.206C1125.95 468.116 1125.71 469.271 1125.71 470.669L1125.71 475.53L1153.91 475.53L1153.91 482.739Z" fill="#48AC3C"/>
<path d="M1153.91 452.385L1119.82 452.385L1119.82 445.177L1134.85 445.177L1134.85 444.727L1119.82 432.458L1119.82 423.817L1135.08 436.47L1153.91 423.668L1153.91 432.291L1139.9 441.631L1144.22 445.177L1153.91 445.177L1153.91 452.385Z" fill="#48AC3C"/>
<path d="M1153.91 419.122L1119.82 419.122L1119.82 405.67C1119.82 403.084 1120.31 400.881 1121.3 399.061C1122.28 397.241 1123.64 395.853 1125.38 394.899C1127.11 393.933 1129.11 393.451 1131.37 393.451C1133.64 393.451 1135.63 393.939 1137.36 394.916C1139.1 395.892 1140.44 397.307 1141.41 399.161C1142.38 401.003 1142.86 403.234 1142.86 405.853L1142.86 411.913L1137.08 411.913L1137.08 407.019C1137.08 405.631 1136.84 404.488 1136.37 403.589C1135.88 402.679 1135.21 402.002 1134.35 401.558C1133.49 401.103 1132.49 400.876 1131.37 400.876C1130.24 400.876 1129.25 401.103 1128.41 401.558C1127.55 402.002 1126.89 402.679 1126.43 403.589C1125.95 404.499 1125.71 405.654 1125.71 407.052L1125.71 411.913L1153.91 411.913L1153.91 419.122Z" fill="white"/>
<path d="M1154.41 377.76C1154.41 380.346 1153.86 382.582 1152.76 384.469C1151.65 386.345 1150.11 387.793 1148.14 388.814C1146.15 389.835 1143.85 390.346 1141.23 390.346C1138.59 390.346 1136.28 389.835 1134.3 388.814C1132.31 387.793 1130.77 386.345 1129.67 384.469C1128.56 382.582 1128.01 380.346 1128.01 377.76C1128.01 375.174 1128.56 372.943 1129.67 371.067C1130.77 369.181 1132.31 367.727 1134.3 366.706C1136.28 365.684 1138.59 365.174 1141.23 365.174C1143.85 365.174 1146.15 365.684 1148.14 366.706C1150.11 367.727 1151.65 369.181 1152.76 371.067C1153.86 372.943 1154.41 375.174 1154.41 377.76ZM1148.92 377.727C1148.92 376.55 1148.59 375.568 1147.92 374.78C1147.24 373.992 1146.32 373.398 1145.16 372.999C1143.99 372.588 1142.66 372.383 1141.18 372.383C1139.69 372.383 1138.36 372.588 1137.2 372.999C1136.03 373.398 1135.11 373.992 1134.43 374.78C1133.76 375.568 1133.42 376.55 1133.42 377.727C1133.42 378.914 1133.76 379.913 1134.43 380.723C1135.11 381.522 1136.03 382.127 1137.2 382.538C1138.36 382.937 1139.69 383.137 1141.18 383.137C1142.66 383.137 1143.99 382.937 1145.16 382.538C1146.32 382.127 1147.24 381.522 1147.92 380.723C1148.59 379.913 1148.92 378.914 1148.92 377.727Z" fill="white"/>
<path d="M1119.82 353.47L1153.91 353.47L1153.91 360.562L1119.82 360.562L1119.82 353.47Z" fill="white"/>
<path d="M1153.91 347.789L1128.34 347.789L1128.34 340.697L1153.91 340.697L1153.91 347.789ZM1125.05 344.227C1125.05 345.281 1124.7 346.186 1124 346.94C1123.29 347.684 1122.44 348.056 1121.45 348.056C1120.47 348.056 1119.63 347.684 1118.94 346.94C1118.23 346.186 1117.87 345.281 1117.87 344.227C1117.87 343.172 1118.23 342.273 1118.94 341.53C1119.63 340.775 1120.47 340.398 1121.45 340.398C1122.44 340.398 1123.29 340.775 1124 341.53C1124.7 342.273 1125.05 343.172 1125.05 344.227Z" fill="white"/>
<path d="M1139.13 327.924L1153.91 327.924L1153.91 335.016L1119.82 335.016L1119.82 328.124L1132.85 328.124L1132.85 327.824C1131.34 327.247 1130.16 326.315 1129.31 325.027C1128.44 323.74 1128.01 322.125 1128.01 320.183C1128.01 318.407 1128.4 316.859 1129.17 315.538C1129.94 314.206 1131.04 313.174 1132.49 312.441C1133.92 311.698 1135.63 311.332 1137.63 311.343L1153.91 311.343L1153.91 318.435L1138.9 318.435C1137.32 318.424 1136.09 318.823 1135.22 319.633C1134.34 320.432 1133.9 321.553 1133.9 322.996C1133.9 323.962 1134.11 324.816 1134.52 325.56C1134.93 326.293 1135.53 326.87 1136.32 327.291C1137.09 327.702 1138.03 327.913 1139.13 327.924Z" fill="white"/>
<path d="M1153.91 305.762L1128.34 305.762L1128.34 298.669L1153.91 298.669L1153.91 305.762ZM1125.05 302.199C1125.05 303.253 1124.7 304.158 1124 304.912C1123.29 305.656 1122.44 306.028 1121.45 306.028C1120.47 306.028 1119.63 305.656 1118.94 304.912C1118.23 304.158 1117.87 303.253 1117.87 302.199C1117.87 301.144 1118.23 300.245 1118.94 299.502C1119.63 298.747 1120.47 298.37 1121.45 298.37C1122.44 298.37 1123.29 298.747 1124 299.502C1124.7 300.245 1125.05 301.144 1125.05 302.199Z" fill="white"/>
<path d="M1153.91 292.988L1128.34 292.988L1128.34 286.229L1132.85 286.229L1132.85 285.93C1131.35 285.397 1130.17 284.509 1129.31 283.266C1128.44 282.023 1128.01 280.536 1128.01 278.804C1128.01 277.051 1128.45 275.558 1129.32 274.326C1130.19 273.094 1131.37 272.273 1132.85 271.862L1132.85 271.596C1131.39 271.074 1130.22 270.131 1129.34 268.766C1128.45 267.389 1128.01 265.763 1128.01 263.888C1128.01 261.501 1128.77 259.565 1130.29 258.078C1131.8 256.579 1133.94 255.83 1136.72 255.83L1153.91 255.83L1153.91 262.905L1138.11 262.905C1136.69 262.905 1135.63 263.283 1134.92 264.038C1134.21 264.792 1133.85 265.736 1133.85 266.868C1133.85 268.155 1134.26 269.16 1135.08 269.881C1135.89 270.602 1136.97 270.963 1138.3 270.963L1153.91 270.963L1153.91 277.839L1137.96 277.839C1136.71 277.839 1135.71 278.199 1134.97 278.921C1134.22 279.631 1133.85 280.569 1133.85 281.734C1133.85 282.522 1134.05 283.233 1134.45 283.865C1134.84 284.487 1135.39 284.981 1136.1 285.347C1136.8 285.713 1137.62 285.896 1138.56 285.896L1153.91 285.896L1153.91 292.988Z" fill="white"/>
<path d="M1177.4 480.289L1170.69 480.289L1170.69 476.612L1177.4 476.612L1177.4 474.843L1169.09 474.843L1169.09 482.07L1177.4 482.07L1177.4 480.289ZM1169.09 472.637L1177.4 472.637L1177.4 470.857L1174.67 470.857L1174.67 469.502C1174.67 467.501 1174.03 465.919 1171.88 465.919C1169.73 465.919 1169.09 467.501 1169.09 469.502L1169.09 472.637ZM1171.88 467.733C1172.85 467.733 1173.1 468.507 1173.1 469.419L1173.1 470.857L1170.66 470.857L1170.66 469.419C1170.66 468.507 1170.9 467.733 1171.88 467.733ZM1173.25 464.758C1175.5 464.758 1177.57 463.287 1177.57 460.346C1177.57 457.399 1175.5 455.928 1173.25 455.928C1170.99 455.928 1168.92 457.399 1168.92 460.346C1168.92 463.287 1170.99 464.758 1173.25 464.758ZM1173.25 457.758C1174.71 457.758 1175.92 458.621 1175.92 460.346C1175.92 462.077 1174.71 462.945 1173.25 462.945C1171.79 462.945 1170.58 462.077 1170.58 460.346C1170.58 458.621 1171.79 457.758 1173.25 457.758ZM1177.4 446.899L1169.09 446.899L1169.09 448.575L1174.52 452.445C1174.17 452.417 1173.76 452.406 1173.38 452.406L1169.09 452.406L1169.09 454.187L1177.4 454.187L1177.4 452.517L1171.97 448.641C1172.32 448.669 1172.74 448.68 1173.11 448.68L1177.4 448.68L1177.4 446.899ZM1175.15 438.617C1173.9 438.617 1173.25 439.413 1173.01 440.281C1172.74 439.474 1172.11 438.949 1171.2 438.949C1169.66 438.949 1168.92 440.281 1168.92 442.227C1168.92 443.095 1169.07 444.019 1169.47 444.981L1171.17 444.981C1170.68 443.975 1170.51 443.129 1170.53 442.382C1170.53 441.326 1170.81 440.729 1171.48 440.729C1172.06 440.729 1172.35 441.243 1172.35 442.023L1172.35 443.77L1173.91 443.781L1173.91 441.907C1173.91 441.099 1174.11 440.408 1174.88 440.408C1175.74 440.408 1175.97 441.276 1175.97 442.178C1175.98 443.057 1175.86 444.03 1175.33 445.125L1177.03 445.125C1177.43 444.019 1177.57 443.035 1177.57 442.05C1177.57 440.397 1177 438.617 1175.15 438.617ZM1169.09 436.864L1177.4 436.864L1177.4 433.292C1177.4 431.844 1176.96 430.03 1175.08 430.03C1173.85 430.03 1173.25 430.799 1173.01 431.617C1172.76 430.882 1172.17 430.362 1171.2 430.362C1169.77 430.362 1169.09 431.462 1169.09 433.232L1169.09 436.864ZM1174.88 431.811C1175.79 431.811 1175.96 432.518 1175.96 433.315L1175.96 435.095L1173.82 435.095L1173.82 433.221C1173.82 432.507 1174 431.811 1174.88 431.811ZM1171.5 432.131C1172.14 432.131 1172.45 432.618 1172.45 433.292L1172.45 435.084L1170.55 435.084L1170.55 433.386C1170.55 432.601 1170.85 432.131 1171.5 432.131ZM1173.25 428.753C1175.5 428.753 1177.57 427.277 1177.57 424.335C1177.57 421.388 1175.5 419.918 1173.25 419.918C1170.99 419.918 1168.92 421.388 1168.92 424.335C1168.92 427.277 1170.99 428.753 1173.25 428.753ZM1173.25 421.748C1174.71 421.748 1175.92 422.61 1175.92 424.335C1175.92 426.066 1174.71 426.934 1173.25 426.934C1171.79 426.934 1170.58 426.066 1170.58 424.335C1170.58 422.61 1171.79 421.748 1173.25 421.748ZM1179.21 417.535L1177.4 417.535L1177.4 411.674L1179.21 411.674L1179.21 410.104L1175.83 410.104L1175.83 411.16L1169.09 411.16L1169.09 416.81C1171.41 416.81 1173.92 417.065 1175.83 418.132L1175.83 419.105L1179.21 419.105L1179.21 417.535ZM1170.69 415.152L1170.69 412.94L1175.83 412.94L1175.83 416.241C1174.47 415.533 1172.53 415.268 1170.69 415.152ZM1173.34 409.075C1176.24 409.075 1177.57 406.808 1177.57 404.591C1177.57 403.712 1177.38 402.894 1177.03 402.181L1175.29 402.181C1175.74 402.678 1175.98 403.463 1175.98 404.315C1175.98 405.763 1175.17 407.262 1173.34 407.251C1171.33 407.251 1170.5 405.78 1170.5 404.315C1170.5 403.546 1170.74 402.772 1171.16 402.241L1169.46 402.241C1169.11 402.949 1168.92 403.784 1168.92 404.613C1168.92 406.836 1170.3 409.064 1173.34 409.075ZM1169.09 401.163L1170.69 401.163L1170.69 398.614L1177.4 398.614L1177.4 396.845L1170.69 396.845L1170.69 394.291L1169.09 394.291L1169.09 401.163ZM1169.09 392.825L1177.4 392.825L1177.4 389.248C1177.4 387.8 1176.96 385.986 1175.08 385.986C1173.85 385.986 1173.25 386.76 1173.01 387.578C1172.76 386.843 1172.17 386.318 1171.2 386.318C1169.77 386.318 1169.09 387.424 1169.09 389.193L1169.09 392.825ZM1174.88 387.766C1175.79 387.766 1175.96 388.48 1175.96 389.276L1175.96 391.056L1173.82 391.056L1173.82 389.182C1173.82 388.469 1174 387.766 1174.88 387.766ZM1171.5 388.087C1172.14 388.087 1172.45 388.574 1172.45 389.248L1172.45 391.045L1170.55 391.045L1170.55 389.348C1170.55 388.563 1170.85 388.087 1171.5 388.087ZM1169.09 384.244L1177.4 384.244L1177.4 378.323L1175.83 378.323L1175.83 382.464L1173.98 382.464L1173.98 378.748L1172.43 378.748L1172.43 382.464L1170.66 382.464L1170.66 378.395L1169.09 378.395L1169.09 384.244ZM1169.09 370.991L1172.44 370.991L1172.44 374.718L1169.09 374.718L1169.09 376.498L1177.4 376.498L1177.4 374.718L1174.05 374.718L1174.05 370.991L1177.4 370.991L1177.4 369.211L1169.09 369.211L1169.09 370.991ZM1169.09 361.498L1172.44 361.498L1172.44 365.224L1169.09 365.224L1169.09 367.005L1177.4 367.005L1177.4 365.224L1174.05 365.224L1174.05 361.498L1177.4 361.498L1177.4 359.718L1169.09 359.718L1169.09 361.498ZM1177.4 356.527L1175.84 355.914L1175.84 352.115L1177.4 351.507L1177.4 349.666L1169.09 353.049L1169.09 354.974L1177.4 358.368L1177.4 356.527ZM1171.39 354.205C1171.23 354.133 1171.06 354.072 1170.74 354.012C1171.06 353.951 1171.23 353.895 1171.39 353.835L1174.37 352.668L1174.37 355.355L1171.39 354.205ZM1177.4 346.979L1174.58 344.878L1174.58 343.628L1177.4 343.628L1177.4 341.848L1169.09 341.848L1169.09 345.231C1169.09 346.99 1169.87 348.571 1171.87 348.571C1173.22 348.571 1173.99 347.786 1174.35 346.719L1177.4 349.03L1177.4 346.979ZM1171.87 346.741C1171.04 346.741 1170.66 346.122 1170.66 345.22L1170.66 343.628L1173.09 343.628L1173.09 345.22C1173.09 346.122 1172.7 346.741 1171.87 346.741ZM1177.4 333.018L1174 333.018L1174 331.674L1177.4 329.407L1177.4 327.433L1173.14 330.286L1169.09 327.588L1169.09 329.573L1172.39 331.674L1172.39 333.018L1169.09 333.018L1169.09 334.798L1177.4 334.798L1177.4 333.018ZM1173.25 327.035C1175.5 327.035 1177.57 325.565 1177.57 322.623C1177.57 319.676 1175.5 318.206 1173.25 318.206C1170.99 318.206 1168.92 319.676 1168.92 322.623C1168.92 325.565 1170.99 327.035 1173.25 327.035ZM1173.25 320.036C1174.71 320.036 1175.92 320.898 1175.92 322.623C1175.92 324.354 1174.71 325.222 1173.25 325.222C1171.79 325.222 1170.58 324.354 1170.58 322.623C1170.58 320.898 1171.79 320.036 1173.25 320.036ZM1169.09 309.127L1173.41 311.963L1169.09 314.816L1169.09 316.464L1177.4 316.464L1177.4 314.684L1172.27 314.684L1175.62 312.488L1175.62 311.455L1172.28 309.26L1177.4 309.26L1177.4 307.479L1169.09 307.479L1169.09 309.127ZM1177.4 303.493L1170.69 303.493L1170.69 299.816L1177.4 299.816L1177.4 298.047L1169.09 298.047L1169.09 305.273L1177.4 305.273L1177.4 303.493ZM1177.4 294.856L1175.84 294.243L1175.84 290.439L1177.4 289.836L1177.4 287.995L1169.09 291.379L1169.09 293.303L1177.4 296.698L1177.4 294.856ZM1171.39 292.529C1171.23 292.457 1171.06 292.402 1170.74 292.341C1171.06 292.28 1171.23 292.219 1171.39 292.164L1174.37 290.997L1174.37 293.679L1171.39 292.529ZM1169.09 281.139L1172.44 281.139L1172.44 284.865L1169.09 284.865L1169.09 286.646L1177.4 286.646L1177.4 284.865L1174.05 284.865L1174.05 281.139L1177.4 281.139L1177.4 279.358L1169.09 279.358L1169.09 281.139ZM1177.4 269.865L1169.09 269.865L1169.09 271.54L1174.52 275.411C1174.17 275.383 1173.76 275.372 1173.38 275.372L1169.09 275.372L1169.09 277.152L1177.4 277.152L1177.4 275.483L1171.97 271.612C1172.32 271.634 1172.74 271.645 1173.11 271.645L1177.4 271.645L1177.4 269.865ZM1177.4 266.321L1174.58 264.22L1174.58 262.97L1177.4 262.97L1177.4 261.19L1169.09 261.19L1169.09 264.574C1169.09 266.332 1169.87 267.913 1171.87 267.913C1173.22 267.913 1173.99 267.128 1174.35 266.061L1177.4 268.372L1177.4 266.321ZM1171.87 266.083C1171.04 266.083 1170.66 265.464 1170.66 264.563L1170.66 262.97L1173.09 262.97L1173.09 264.563C1173.09 265.464 1172.7 266.083 1171.87 266.083Z" fill="white"/>
</g>
</svg>
