<svg width="152" height="210" viewBox="0 0 152 210" fill="none" xmlns="http://www.w3.org/2000/svg">
<path opacity="0.1" d="M151.7 209.455H2.49658V172.892L52.6997 122.127C63.106 111.252 71.1685 102.533 76.8872 95.9705C82.6997 89.408 86.7778 83.8298 89.1216 79.2361C91.4653 74.6423 92.6372 69.8611 92.6372 64.8923C92.6372 58.7986 90.6685 54.3923 86.731 51.6736C82.7935 48.9548 78.1528 47.5955 72.8091 47.5955C66.3403 47.5955 59.7778 49.4705 53.1216 53.2205C46.5591 56.8767 39.106 62.3142 30.7622 69.533L0.246582 33.8142C6.43408 28.283 12.9966 23.033 19.9341 18.0642C26.8716 13.0017 35.0747 8.87671 44.5435 5.68921C54.0122 2.50171 65.5435 0.907959 79.1372 0.907959C93.106 0.907959 105.2 3.34546 115.418 8.22046C125.731 13.0955 133.7 19.7986 139.325 28.3298C144.95 36.7673 147.762 46.3767 147.762 57.158C147.762 69.0642 145.559 79.7048 141.153 89.0798C136.84 98.3611 130.325 107.689 121.606 117.064C112.887 126.345 102.012 136.892 88.981 148.705L73.9341 162.205V163.611H151.7V209.455Z" fill="#669966"/>
</svg>
