<svg width="148" height="212" viewBox="0 0 148 212" fill="none" xmlns="http://www.w3.org/2000/svg">
<path opacity="0.1" d="M141.829 47.9575C141.829 57.7075 139.72 66.145 135.501 73.27C131.376 80.3013 125.845 86.0669 118.907 90.5669C112.063 95.0669 104.563 98.4419 96.4072 100.692V101.536C112.813 103.598 125.47 108.614 134.376 116.583C143.376 124.458 147.876 135.661 147.876 150.192C147.876 161.442 144.876 171.754 138.876 181.129C132.876 190.411 123.548 197.864 110.892 203.489C98.2354 209.02 81.9697 211.786 62.0947 211.786C48.7822 211.786 37.4385 210.801 28.0635 208.833C18.6885 206.864 9.59473 204.145 0.782227 200.676V154.551C9.68848 159.145 18.8291 162.567 28.2041 164.817C37.6729 166.973 46.2979 168.051 54.0791 168.051C67.5791 168.051 76.7666 166.129 81.6416 162.286C86.6104 158.442 89.0947 153.286 89.0947 146.817C89.0947 142.129 87.9229 138.145 85.5791 134.864C83.2354 131.583 78.876 129.051 72.501 127.27C66.2197 125.489 57.1729 124.598 45.3604 124.598H32.7041V82.8325H45.6416C56.1416 82.8325 64.4385 81.895 70.5322 80.02C76.7197 78.145 81.1729 75.6138 83.8916 72.4263C86.6104 69.145 87.9697 65.395 87.9697 61.1763C87.9697 55.7388 85.8604 51.7075 81.6416 49.0825C77.4229 46.4575 71.8447 45.145 64.9072 45.145C58.7197 45.145 52.9072 45.9888 47.4697 47.6763C42.0322 49.3638 37.2979 51.2388 33.2666 53.3013C29.2354 55.3638 26.1885 57.0513 24.126 58.3638L1.06348 21.2388C9.59473 15.4263 19.3447 10.5044 30.3135 6.47314C41.376 2.44189 55.8135 0.42627 73.626 0.42627C94.8135 0.42627 111.454 4.64502 123.548 13.0825C135.735 21.52 141.829 33.145 141.829 47.9575Z" fill="#667F99"/>
</svg>
