<svg width="33" height="32" viewBox="0 0 33 32" fill="none" xmlns="http://www.w3.org/2000/svg">
<path d="M2.78834 19.3C2.78834 16.729 4.88864 14.6286 7.45971 14.6286C10.0308 14.6286 12.1311 16.729 12.1311 19.3V26.7597H14.9194V19.3C14.9194 15.1719 11.5879 11.8403 7.45971 11.8403C3.33152 11.8403 0 15.1719 0 19.3V26.7597H2.78834V19.3Z" fill="#669966"/>
<path d="M24.5402 11.8403C22.8021 11.8403 21.1725 12.4559 19.9051 13.506V4.38062H17.0805V19.3C17.0805 23.4282 20.4482 26.7597 24.5402 26.7597C28.6684 26.7597 32 23.4282 32 19.3C32 15.208 28.6684 11.8403 24.5402 11.8403ZM24.5402 23.9714C21.9692 23.9714 19.9051 21.8711 19.9051 19.3C19.9051 16.729 21.9692 14.6649 24.5402 14.6649C27.1113 14.6649 29.2116 16.729 29.2116 19.3C29.2116 21.8711 27.1113 23.9714 24.5402 23.9714Z" fill="#66998E"/>
<path d="M24.5929 21.2531C25.7208 21.2531 26.6352 20.3387 26.6352 19.2107C26.6352 18.0828 25.7208 17.1684 24.5929 17.1684C23.4649 17.1684 22.5505 18.0828 22.5505 19.2107C22.5505 20.3387 23.4649 21.2531 24.5929 21.2531Z" fill="#66998E"/>
<path d="M7.45976 9.65052C8.58772 9.65052 9.50211 8.73613 9.50211 7.60818C9.50211 6.48022 8.58772 5.56583 7.45976 5.56583C6.3318 5.56583 5.41742 6.48022 5.41742 7.60818C5.41742 8.73613 6.3318 9.65052 7.45976 9.65052Z" fill="#669966"/>
</svg>
