<svg width="238" height="238" viewBox="0 0 238 238" fill="none" xmlns="http://www.w3.org/2000/svg">
<path fill-rule="evenodd" clip-rule="evenodd" d="M22.1125 1.56613C12.0661 3.72123 3.19052 12.6838 1.0738 22.8101C0.056129 27.6779 0.056129 210.75 1.0738 215.617C3.21456 225.858 12.1031 234.746 22.3436 236.887C27.2114 237.905 210.283 237.905 215.151 236.887C225.45 234.734 234.308 225.832 236.437 215.495C237.026 212.637 237.11 206.265 237.006 172.852L236.882 133.568L235.611 132.296C233.836 130.522 231.143 130.522 229.369 132.296L228.097 133.567L227.866 173.668L227.635 213.768L226.578 216.383C224.631 221.196 220.73 225.098 215.916 227.044L213.301 228.101H118.747H24.1931L21.5784 227.044C16.7647 225.098 12.8633 221.196 10.9167 216.383L9.85971 213.768V119.214V24.6595L10.9167 22.0449C12.1642 18.9599 14.3086 16.1238 17.0125 13.9844C18.0857 13.135 20.14 11.9648 21.5784 11.3831L24.1931 10.3261H118.747H213.301L215.916 11.3831C220.73 13.3297 224.631 17.2311 226.578 22.0449L227.635 24.6595L227.866 58.2261C227.881 60.3854 227.894 62.4106 227.907 64.3099C228.069 89.1204 228.091 92.4823 229.655 93.5186C229.9 93.6811 230.183 93.7864 230.51 93.9082C230.67 93.9677 230.841 94.0312 231.023 94.1072C232.389 94.6782 232.751 94.6574 234.256 93.9204C235.188 93.4636 236.209 92.5698 236.525 91.9341C237.437 90.0998 237.342 27.2183 236.421 22.8101C234.28 12.5696 225.391 3.681 215.151 1.54024C210.419 0.551234 26.7283 0.57574 22.1125 1.56613ZM231.103 108.426C227.486 109.838 226.935 114.994 230.22 116.692C234.987 119.157 239.445 113.215 235.564 109.569C234.466 108.538 232.263 107.973 231.103 108.426ZM79.5982 150.404C77.8305 151.173 77.1342 152.349 77.1342 154.565C77.1342 155.872 77.5508 156.678 79.0993 158.368C85.3898 165.231 97.9121 171.629 108.753 173.52C114.014 174.437 123.481 174.437 128.741 173.52C139.583 171.629 152.105 165.231 158.395 158.368C159.986 156.632 160.36 155.889 160.36 154.467C160.36 152.252 159.404 150.868 157.42 150.214C155.34 149.527 153.963 150.1 150.716 153.001C143.121 159.789 133.145 164.109 123.255 164.893C109.387 165.994 96.6827 161.852 86.7783 153.001C84.4914 150.957 82.3895 149.69 81.3811 149.748C81.2067 149.758 80.4045 150.053 79.5982 150.404ZM90.2779 90.9768C90.2779 98.1707 84.4461 104.003 77.2521 104.003C70.0582 104.003 64.2264 98.1707 64.2264 90.9768C64.2264 83.7829 70.0582 77.951 77.2521 77.951C84.4461 77.951 90.2779 83.7829 90.2779 90.9768ZM160.222 104.003C167.416 104.003 173.248 98.1707 173.248 90.9768C173.248 83.7829 167.416 77.951 160.222 77.951C153.028 77.951 147.196 83.7829 147.196 90.9768C147.196 98.1707 153.028 104.003 160.222 104.003Z" fill="#669966"/>
</svg>
