<svg width="160" height="172" viewBox="0 0 160 172" fill="none" xmlns="http://www.w3.org/2000/svg">
<rect x="44.4888" y="83.4474" width="13.6091" height="14.1611" rx="1" transform="rotate(-25.986 44.4888 83.4474)" fill="#B8FFD4"/>
<rect x="32.5923" y="38.8746" width="45.9255" height="13.3923" rx="1" transform="rotate(-25.986 32.5923 38.8746)" fill="#B8FFD4"/>
<path fill-rule="evenodd" clip-rule="evenodd" d="M80.0842 1.46205C78.4918 2.62673 80.2768 5.22739 81.947 4.17578C83.0129 3.5045 83.1439 2.46942 82.2728 1.59836C81.395 0.721047 81.1215 0.704063 80.0842 1.46205ZM82.0587 2.66159C82.0587 3.25735 81.7606 3.55544 81.1649 3.55544C80.5691 3.55544 80.271 3.25735 80.271 2.66159C80.271 2.06584 80.5691 1.76774 81.1649 1.76774C81.7606 1.76774 82.0587 2.06584 82.0587 2.66159ZM128.265 11.7212C126.431 15.8365 126.248 16.005 124.275 15.3999C123.342 15.1138 122.784 16.245 110.645 43.0685L109.247 46.1572L102.415 31.4677C98.6566 23.3886 95.3655 16.7062 95.1 16.6177C94.835 16.5292 90.923 18.1797 86.4064 20.2856C81.8898 22.3911 77.9881 24.114 77.7356 24.114C77.4831 24.114 76.7211 22.8067 76.0422 21.209C75.3629 19.6112 74.7443 18.304 74.667 18.304C74.5897 18.304 70.4002 20.2146 65.3567 22.5498C60.3136 24.8849 56.0803 26.7955 55.9498 26.7955C55.8193 26.7955 55.8282 26.2168 55.9699 25.5093C56.4575 23.0709 54.6734 21.0226 52.0428 20.9998C50.7548 20.9886 50.1603 21.2783 49.2495 22.3607C48.6131 23.1169 48.0924 24.1958 48.0924 24.7585C48.0924 25.9745 49.6468 28.0787 50.8826 28.5359C51.5521 28.7835 49.4113 29.9616 41.8824 33.4878C36.4487 36.0321 32.0031 38.2882 32.0031 38.501C32.0031 38.7141 32.6194 40.1094 33.3729 41.6022C34.1265 43.0949 34.6798 44.3664 34.602 44.4276C34.5247 44.4889 30.5899 46.3288 25.8588 48.5165C21.1276 50.7038 17.2564 52.6948 17.2559 52.9407C17.2559 53.3804 66.6242 159.442 67.0076 159.825C67.1158 159.934 72.8087 157.42 79.6592 154.24C86.5096 151.059 93.7235 147.71 95.6899 146.797C100.179 144.713 99.664 144.953 124.282 133.449C135.582 128.168 144.889 123.667 144.962 123.447C145.036 123.226 139.359 110.729 132.348 95.6752C125.337 80.6214 119.6 68.1576 119.6 67.9779C119.6 67.7978 124.231 57.5047 129.891 45.1043C135.551 32.7034 140.004 22.4979 139.787 22.4255C139.569 22.3531 139.02 22.0219 138.565 21.6894C137.776 21.1124 137.825 20.8952 139.629 16.9337C140.669 14.6504 141.365 12.6499 141.175 12.4881C140.796 12.1655 130.596 7.57196 130.292 7.58715C130.188 7.59207 129.276 9.45262 128.265 11.7212ZM135.69 10.6481C139.061 12.1798 140.348 12.9802 140.26 13.4901C140.193 13.8803 139.439 15.7149 138.583 17.5665L137.027 20.9332L132.321 18.784C129.732 17.6014 127.494 16.5136 127.346 16.3661C127.056 16.0756 130.355 8.45687 130.755 8.49397C130.888 8.50648 133.109 9.47586 135.69 10.6481ZM126.093 16.8354C127.145 17.3373 127.63 17.8383 127.499 18.2879C127.389 18.6655 121.418 31.8458 114.231 47.5776C107.043 63.3093 100.888 76.8252 100.552 77.6127L99.9411 79.0447L98.039 78.183C96.9927 77.7088 96.1717 77.0648 96.2142 76.751C96.2571 76.4373 102.356 62.9071 109.769 46.6837C117.181 30.4603 123.351 16.9355 123.482 16.628C123.794 15.8915 124.176 15.9219 126.093 16.8354ZM101.915 32.0898L108.853 46.9617L106.071 53.1811C104.54 56.6014 103.174 59.405 103.035 59.4108C102.897 59.4162 102.445 58.7127 102.032 57.8466L101.281 56.272L99.6028 57.1154C98.6799 57.5793 91.0866 61.135 82.7291 65.0166C74.3716 68.8986 67.4684 72.1254 67.3884 72.187C67.2029 72.3309 73.0608 84.9968 73.5385 85.4853C73.7356 85.6864 78.4985 83.7079 84.1231 81.088C89.7472 78.4686 94.5503 76.2411 94.7961 76.1387C95.0674 76.0257 95.306 77.4889 95.4035 79.8657C95.4915 82.0176 95.5921 84.4614 95.6269 85.2962L95.6899 86.8136L86.9749 90.9007C82.1816 93.1487 78.2599 95.1934 78.2599 95.4446C78.2599 95.6957 79.5671 98.7558 81.1649 102.245C83.6703 107.717 84.1928 108.56 84.9637 108.378C86.1056 108.108 117.446 93.4861 117.939 92.9932C118.142 92.7903 117.162 90.1834 115.761 87.2006L113.215 81.7767L116.042 75.5072C117.597 72.0588 119.023 69.392 119.212 69.5806C120.126 70.4968 144.237 123.007 143.898 123.345C143.594 123.648 125.675 132.064 100.159 143.887C99.1759 144.343 96.1592 145.763 93.4553 147.044C76.2876 155.173 67.5766 159.079 67.2986 158.769C67.1238 158.575 65.1712 154.493 62.9594 149.7C60.748 144.907 49.7608 121.327 38.5434 97.3011C27.3261 73.2753 18.1484 53.4448 18.1484 53.2334C18.1484 52.8638 34.6856 44.955 34.9139 45.2151C34.9752 45.2853 35.6558 46.6001 36.4259 48.1362C37.1959 49.6723 37.9803 50.9295 38.1693 50.9295C38.3579 50.9295 47.1539 46.8853 57.7156 41.9427C68.2773 36.9997 77.7696 32.5841 78.8087 32.13L80.6987 31.305L79.3526 28.3053C78.6125 26.6552 78.1642 25.1495 78.3568 24.9591C78.7215 24.598 94.7286 17.0378 94.8859 17.1522C94.9355 17.188 98.0984 23.9102 101.915 32.0898ZM131.876 19.4718C133.753 20.3312 134.371 20.8327 134.214 21.3712C134.098 21.7734 128.122 34.9743 120.934 50.706C113.747 66.4378 107.592 79.9515 107.258 80.7363L106.649 82.1633L103.851 80.8851C101.853 79.9725 101.063 79.3722 101.089 78.7877C101.147 77.4576 128.268 18.3058 128.82 18.3049C129.098 18.3044 130.473 18.8296 131.876 19.4718ZM77.0255 25.0096C79.4433 30.1515 79.6721 30.8675 79.0094 31.2192C77.1122 32.2252 38.623 50.0356 38.3477 50.0343C38.0035 50.0325 33.1204 39.5235 33.1204 38.7843C33.1204 38.4245 72.9821 19.3788 74.0413 19.2327C74.1794 19.2135 75.5224 21.8132 77.0255 25.0096ZM138.903 23.2823C138.745 23.9754 111.596 83.6641 111.306 83.9532C111.025 84.2343 107.533 82.583 107.533 82.1687C107.533 81.9725 113.288 69.1819 120.321 53.7451C127.355 38.3083 133.577 24.6253 134.149 23.3386L135.188 20.9989L137.115 21.836C138.243 22.3263 138.984 22.9261 138.903 23.2823ZM54.0656 22.3589C54.9196 23.0306 55.2432 23.697 55.2432 24.7844C55.2432 26.425 53.6048 28.1363 52.0343 28.1363C50.7159 28.1363 48.9863 26.1372 48.9863 24.6137C48.9863 23.1804 50.7051 21.4324 52.1147 21.4324C52.5402 21.4324 53.418 21.8494 54.0656 22.3589ZM62.1706 46.8848C46.9304 53.9949 34.1899 59.9788 33.8583 60.1817C33.3855 60.4709 33.9017 61.9489 36.248 67.0251C37.894 70.5857 39.3139 73.5752 39.4033 73.6681C39.6478 73.9216 96.8072 47.2155 96.8072 46.8477C96.8072 45.9172 90.982 34.1537 90.4766 34.0634C90.1485 34.0049 77.4107 39.7747 62.1706 46.8848ZM95.6023 46.1304C95.6721 46.7579 90.0301 49.557 67.83 59.9091C52.5071 67.0541 39.8976 72.8279 39.8091 72.7394C39.1195 72.0494 34.2878 60.9804 34.5595 60.7118C34.7513 60.5223 47.3773 54.5447 62.6175 47.4278L90.3268 34.4885L92.9208 39.9159C94.3474 42.9005 95.5541 45.6973 95.6023 46.1304ZM99.3377 67.7585L96.1083 74.7868L85.3964 79.812C79.505 82.5763 74.5218 84.8507 74.3229 84.8667C73.9591 84.8958 68.0633 72.8208 68.3171 72.5669C68.3918 72.4918 75.7879 69.0049 84.7532 64.8172L101.053 57.2039L101.81 58.967L102.567 60.7297L99.3377 67.7585ZM1.36865 74.8199C0.212901 75.9752 -0.171008 78.7595 0.746976 79.3267C1.06787 79.5251 1.12686 79.1121 0.928428 78.0543C0.568206 76.1329 1.82496 74.6165 3.77757 74.6165C5.88617 74.6165 6.73488 76.0069 6.637 79.3025C6.59097 80.8636 6.52348 82.3081 6.48773 82.5128C6.32728 83.4281 6.55924 84.8953 6.86359 84.8922C7.458 84.8855 7.51253 76.9611 6.92571 75.8599C5.66047 73.4854 3.16931 73.0188 1.36865 74.8199ZM152.226 75.055C152.226 75.3249 152.642 76.3618 153.151 77.3593C153.66 78.3564 153.97 79.2784 153.841 79.4076C153.711 79.5372 152.641 80.1052 151.463 80.6701C150.285 81.2346 149.681 81.7128 150.121 81.732C150.561 81.7517 151.711 81.3642 152.677 80.8712L154.434 79.9752L155.396 82.212C155.925 83.4424 156.535 84.4489 156.75 84.4489C157.311 84.4489 157.25 84.1785 156.248 82.2142C155.757 81.2507 155.354 80.2625 155.354 80.0185C155.354 79.774 156.309 79.1403 157.477 78.6094C158.645 78.0789 159.364 77.5546 159.075 77.4451C158.786 77.3356 157.711 77.6739 156.685 78.1968C155.66 78.7202 154.779 79.084 154.729 79.0053C154.678 78.9267 154.26 77.998 153.8 76.9414C152.963 75.017 152.226 74.1338 152.226 75.055ZM57.978 76.9629C57.7473 77.7615 57.5404 78.1423 57.5181 77.8085C57.4595 76.9253 56.2323 77.3361 49.7009 80.423C43.738 83.2413 43.801 83.1769 44.7463 85.4772C45.0319 86.1722 44.9014 86.2455 43.7912 86.0149C42.6225 85.7718 42.6587 85.8316 44.1899 86.6772C45.6133 87.4634 46.1934 88.2956 47.9414 92.0613C49.0783 94.5114 50.264 96.5158 50.576 96.5158C51.2861 96.5158 63.2879 90.8484 63.2879 90.5127C63.2879 90.3773 62.1688 87.8567 60.8007 84.9114C58.5491 80.0632 58.3422 79.3646 58.6166 77.5331C58.9688 75.1863 58.5889 74.8471 57.978 76.9629ZM57.232 79.0152C57.472 79.7718 55.5887 89.6158 55.1127 90.0917C54.9983 90.2062 53.0493 89.5572 50.7816 88.6495C47.5597 87.3601 46.4741 86.6965 45.8131 85.6127C45.3479 84.8498 44.9666 84.0176 44.9657 83.7633C44.9639 83.315 55.3809 78.2862 56.4423 78.2232C56.7328 78.2062 57.0881 78.5624 57.232 79.0152ZM103.348 81.3691C107.248 83.1166 110.506 84.6089 110.589 84.6853C110.672 84.7622 108.386 86.566 105.51 88.6947C100.246 92.5892 99.5822 92.843 97.7614 91.6573C97.0727 91.2086 95.4531 78.1919 96.0859 78.1919C96.1807 78.1919 99.449 79.6216 103.348 81.3691ZM62.394 90.2187C62.394 90.3729 59.729 91.7275 56.4723 93.2287L50.5505 95.959L48.7195 92.1034C47.7121 89.9827 46.9545 88.1673 47.0354 88.069C47.1168 87.9711 48.9912 88.6401 51.2008 89.5559C53.4104 90.4716 55.3983 91.1094 55.6191 90.9735C55.8394 90.8372 56.1411 89.9653 56.2899 89.0357C56.4383 88.1061 56.8986 85.8469 57.3125 84.0149L58.0647 80.6835L60.2291 85.3114C61.4197 87.8567 62.394 90.0649 62.394 90.2187ZM115.34 87.9367C116.509 90.4694 117.394 92.6097 117.305 92.6928C116.95 93.0218 85.2431 107.689 84.8851 107.689C84.515 107.689 78.7649 95.6229 79.0254 95.3927C79.5376 94.9409 95.6631 87.6247 95.8142 87.7758C95.9197 87.8817 96.1923 89.6287 96.4193 91.6587C96.6463 93.6881 96.9203 95.437 97.0276 95.5447C97.1353 95.6519 100.556 93.2497 104.631 90.2062C109.471 86.5905 112.13 84.3126 112.301 83.6341C112.648 82.2589 112.85 82.5454 115.34 87.9367ZM7.57063 87.8357C7.4218 88.2232 7.62917 88.8699 8.03141 89.2721C8.70894 89.9492 8.818 89.9483 9.50671 89.2596C10.1212 88.6455 10.1503 88.3957 9.67564 87.8232C8.9342 86.9302 7.91565 86.936 7.57063 87.8357ZM9.20995 88.4712C9.20995 88.717 9.00883 88.9181 8.76302 88.9181C8.51721 88.9181 8.3161 88.717 8.3161 88.4712C8.3161 88.2254 8.51721 88.0243 8.76302 88.0243C9.00883 88.0243 9.20995 88.2254 9.20995 88.4712ZM98.957 92.8783C99.3981 93.1581 99.2604 93.4343 98.3983 93.9992C97.2752 94.7353 97.2542 94.7281 97.2542 93.6211C97.2542 92.4792 97.8901 92.2017 98.957 92.8783ZM67.9873 98.2727C67.8291 98.9931 67.4613 99.7739 67.1699 100.007C66.8785 100.241 63.9659 101.665 60.6975 103.171C55.809 105.425 54.5965 105.826 53.8586 105.431C53.3652 105.167 52.6202 105.024 52.2032 105.113C51.7112 105.219 52.0079 105.468 53.0461 105.822C54.5483 106.334 54.8356 106.775 57.6566 112.88C60.3744 118.762 60.6193 119.523 60.1889 120.757C59.6146 122.405 59.6128 122.437 60.0946 122.437C60.3051 122.437 60.6595 121.802 60.8821 121.024C61.2477 119.75 61.8787 119.334 67.3156 116.784C70.9254 115.09 73.7021 114.045 74.2375 114.178C74.7292 114.3 75.6141 114.528 76.2036 114.685C76.9097 114.873 77.1752 114.807 76.9808 114.493C76.8181 114.23 76.1142 113.889 75.4156 113.736C74.2916 113.489 73.7995 112.72 71.1184 107.022C68.1589 100.733 67.9578 99.9031 68.8646 97.7449C69.0541 97.2939 68.9991 96.9628 68.7341 96.9628C68.4816 96.9628 68.1455 97.5523 67.9873 98.2727ZM65.4841 105.355L64.1151 109.437L62.0253 108.609C60.8763 108.153 59.0345 107.418 57.9333 106.974L55.9301 106.169L61.2852 103.633C64.23 102.238 66.6876 101.137 66.7466 101.185C66.8052 101.234 66.2371 103.11 65.4841 105.355ZM70.4239 107.151C71.7204 109.927 72.6934 112.287 72.5861 112.395C72.3966 112.584 65.5216 110.072 65.114 109.664C65.0027 109.553 65.4899 107.654 66.1965 105.443C66.903 103.233 67.6128 101.577 67.7737 101.763C67.9346 101.95 69.1274 104.374 70.4239 107.151ZM105.746 109.988C96.7737 114.178 89.2721 117.758 89.0759 117.944C88.8792 118.129 90.0797 121.235 91.7436 124.846C94.0792 129.915 94.944 131.383 95.5362 131.283C96.6589 131.092 128.97 116.008 128.979 115.671C128.995 115.017 122.746 102.328 122.417 102.348C122.22 102.36 114.718 105.798 105.746 109.988ZM125.308 109.323C126.85 112.674 128.053 115.474 127.983 115.545C127.614 115.914 96.0953 130.482 95.6667 130.482C95.0008 130.482 89.3123 118.308 89.8853 118.109C90.1279 118.025 97.3659 114.657 105.969 110.624C114.573 106.591 121.813 103.278 122.059 103.26C122.304 103.243 123.767 105.971 125.308 109.323ZM61.8354 109.256C62.8803 109.676 63.7348 110.176 63.7348 110.366C63.7348 110.648 62.6653 113.683 61.2132 117.521C61.06 117.927 59.9176 116.001 58.3248 112.654C56.8758 109.608 55.6901 107.046 55.6901 106.962C55.6901 106.819 56.9715 107.297 61.8354 109.256ZM68.7761 111.883C70.6738 112.592 72.2264 113.313 72.2264 113.486C72.2264 113.883 62.327 118.497 62.0557 118.226C61.8434 118.013 63.5654 112.496 64.272 111.125C64.5013 110.68 64.8324 110.379 65.0076 110.455C65.1828 110.531 66.8785 111.174 68.7761 111.883ZM78.4498 121.436C77.8004 122.979 77.2789 123.324 71.7026 125.902C66.1518 128.468 65.5422 128.655 64.2273 128.197C62.3306 127.535 61.9699 127.963 63.7889 128.717C65.0242 129.229 65.6217 130.165 68.3024 135.797C70.9446 141.347 71.3231 142.438 70.9151 143.333C70.6532 143.908 70.453 144.721 70.4704 145.14C70.4874 145.559 70.8628 145.097 71.3044 144.113C72.0615 142.428 72.4646 142.164 78.372 139.489C83.7557 137.052 84.7738 136.726 85.6073 137.172C86.1409 137.457 86.8176 137.606 87.1112 137.502C87.4048 137.399 86.9414 137.012 86.081 136.642C84.6643 136.034 84.2491 135.379 81.677 129.695C79.1501 124.112 78.8708 123.217 79.1461 121.587C79.3164 120.58 79.3879 119.758 79.3048 119.76C79.2216 119.763 78.8368 120.517 78.4498 121.436ZM76.2509 128.017C75.5175 130.187 74.8485 132.031 74.7645 132.115C74.6804 132.2 73.3204 131.743 71.7428 131.101C70.1652 130.458 68.3716 129.733 67.7571 129.488C66.7274 129.078 67.0604 128.842 72.0029 126.478C74.9526 125.068 77.4152 123.949 77.4755 123.992C77.5354 124.036 76.9848 125.847 76.2509 128.017ZM83.2475 135.253C82.8797 135.62 75.3539 132.5 75.5417 132.058C75.6485 131.805 76.3037 129.915 76.9973 127.855L78.2581 124.11L80.8435 129.591C82.2657 132.605 83.3472 135.153 83.2475 135.253ZM70.7622 131.415C72.6737 132.174 74.2854 132.842 74.3443 132.9C74.4029 132.957 73.8277 134.862 73.0661 137.133L71.6816 141.262L70.5665 138.889C67.2798 131.894 66.5053 130.035 66.8771 130.035C67.1024 130.035 68.8507 130.656 70.7622 131.415ZM78.5834 134.434C80.372 135.133 82.2272 135.847 82.7063 136.019C83.6283 136.351 83.6002 136.367 75.5233 140.087L72.3394 141.553L73.7213 137.358C74.4811 135.051 75.1542 133.164 75.2172 133.164C75.2802 133.164 76.7948 133.736 78.5834 134.434ZM95.1089 167.666C94.2079 168.567 94.4926 170.186 95.6899 170.97C96.725 171.648 96.8895 171.648 97.9246 170.97C99.1286 170.181 99.3096 169.359 98.5793 167.994C98.0551 167.015 95.9585 166.817 95.1089 167.666ZM97.6283 167.969C97.9572 168.178 98.1583 168.828 98.0752 169.415C97.9621 170.215 97.6448 170.482 96.8072 170.482C95.9697 170.482 95.6524 170.215 95.5393 169.415C95.4102 168.503 96.0443 167.591 96.8072 167.591C96.9301 167.591 97.2998 167.761 97.6283 167.969Z" fill="black"/>
</svg>
