<svg width="150" height="179" viewBox="0 0 150 179" fill="none" xmlns="http://www.w3.org/2000/svg">
<path d="M25.5518 38.3394C25.2066 39.145 24.6407 47.9781 24.4009 52.294L24.9766 53.5457L26.7027 54.0203H28.8606L30.587 55.1712C31.0185 55.7946 32.0544 57.0414 32.7449 57.0414C41.0889 53.0133 43.2468 48.2659 45.2609 47.115C46.8721 46.1943 51.6867 38.3874 53.8926 34.599C46.7954 30.427 32.4572 22.1981 31.8817 22.6585C31.1624 23.2339 25.9834 37.3324 25.5518 38.3394Z" fill="#B8FFD4"/>
<path d="M41.484 117.937L40.0454 111.187L41.484 106.712C43.5426 104.679 51.2909 99.0569 65.8154 92.8321C67.5013 92.054 67.2204 89.2658 66.8691 87.969C71.2189 85.3483 82.3825 80.3177 92.2384 81.1606C93.1533 81.2389 95.1178 88.0535 95.7663 91.5117C95.4961 95.2671 94.2161 103.11 90.1311 104.342L90.2562 104.908L94.2647 123.065L115.257 124.118C116.797 128.09 118.953 136.924 115.257 140.491L88.51 139.842C84.9422 139.62 77.9246 135.903 74.8122 123.065C73.5802 118.655 73.8042 117.867 74.0702 118.024L83.447 108.327L62.8502 116.902L74.8122 141.426C70.9819 148.479 62.5225 148.955 58.911 148.294L49.5986 133.109L41.484 117.937Z" fill="#B8FFD4"/>
<path fill-rule="evenodd" clip-rule="evenodd" d="M70.9392 0.764669C70.7907 1.01925 67.261 9.79288 63.0961 20.2627C58.8765 30.8684 55.2693 39.2982 54.9503 39.2982C54.635 39.2982 53.9791 39.0072 53.4924 38.6512C52.6268 38.0182 52.6268 37.9608 53.476 36.0769C53.9539 35.0174 54.2594 34.0822 54.1548 33.9995C53.7012 33.6389 31.9189 22.0144 31.6975 22.0144C31.5621 22.0144 31.073 22.8529 30.611 23.8778L29.7706 25.7416L25.1582 23.2939C19.9637 20.5378 20.3206 20.4542 18.6539 24.8172C17.103 28.8761 16.627 32.6481 17.231 36.089C17.8962 39.8774 20.1197 44.4156 22.2101 46.2509C23.7017 47.5608 23.8353 47.8929 23.8353 50.2888C23.8353 51.8742 23.6554 52.7889 23.378 52.6174C22.5609 52.1125 21.0325 53.3041 21.0325 54.4463C21.0325 55.0521 20.7172 55.6687 20.3318 55.8168C19.9464 55.9644 19.6246 56.5651 19.6162 57.1514C19.6082 57.7372 19.292 58.6261 18.9136 59.1269C18.5348 59.6272 18.34 60.3975 18.4801 60.8389C18.6202 61.2804 18.5161 61.7769 18.2489 61.9423C17.4907 62.4108 17.6776 64.4293 18.5231 64.9025C19.7329 65.5793 18.5315 66.0016 15.4372 65.9867C12.6868 65.9736 12.6718 65.9811 11.0462 68.1677C10.1493 69.3748 9.55933 70.5085 9.73497 70.6865C10.7113 71.6768 25.8575 79.4979 26.1564 79.1667C26.3531 78.9486 26.852 77.7499 27.2649 76.5022L28.0165 74.2343L26.6264 72.214C25.2572 70.224 24.8999 69.1875 25.587 69.2015C26.4227 69.2187 27.115 70.0274 26.8604 70.6897C26.4666 71.7165 27.2079 72.3004 33.5632 75.9678C36.6795 77.7663 39.2277 79.4479 39.2263 79.7049C39.2244 79.9618 35.9956 88.265 32.0511 98.1565C26.0252 113.267 25.0078 116.163 25.6837 116.28C26.1261 116.357 29.3936 115.893 32.9448 115.248C36.4959 114.604 39.5504 114.169 39.7326 114.282C39.9153 114.394 40.1946 115.139 40.3544 115.937C40.9009 118.67 44.5721 125.456 55.5664 144.052C58.6761 149.312 58.6892 149.323 62.0231 149.199C62.3445 149.187 62.607 149.211 62.607 149.253C62.607 149.295 62.1016 151.321 61.484 153.756C60.2545 158.604 59.1045 167.004 59.5674 167.754C60.0518 168.537 60.54 168.318 63.2914 166.077C68.2686 162.022 75.9786 152.027 77.1534 148.105C77.6916 146.309 77.6575 146.187 76.1855 144.669C75.0611 143.509 74.7407 142.839 74.9677 142.125C75.191 141.421 73.5995 137.871 69.1576 129.171C65.7928 122.58 63.1003 117.128 63.1736 117.055C63.496 116.737 70.6286 114.039 71.1443 114.04C71.4666 114.041 72.7063 117.049 73.9849 120.93C76.847 129.62 79.7394 135.858 81.6551 137.47C82.4586 138.146 84.1772 138.971 85.4739 139.303C86.7712 139.636 87.8255 140.131 87.8171 140.403C87.7629 142.197 91.3205 178.344 91.5807 178.648C91.8596 178.973 100.376 158.372 105.497 144.986L107.15 140.665H111.178C113.675 140.665 115.417 140.454 115.763 140.108C116.195 139.676 116.611 139.818 117.608 140.74C120.544 143.451 126.274 146.652 129.523 147.396C130.728 147.672 130.808 147.592 130.808 146.123C130.808 142.299 127.86 135.827 123.501 130.081C120.63 126.296 119.294 125.25 117.327 125.25C116.543 125.25 115.845 124.951 115.691 124.549C115.543 124.164 115.078 123.849 114.656 123.849C114.229 123.849 113.996 123.591 114.129 123.265C121.678 104.732 137.861 63.4791 137.661 63.2792C137.508 63.1264 128.118 64.6325 116.794 66.6252C105.47 68.618 96.0955 70.1399 95.9624 70.0063C95.8293 69.8732 96.1833 68.1686 96.75 66.2188L97.78 62.6738L108.25 56.7086C120.197 49.9015 123.783 47.2627 124.906 44.4567C126.004 41.7132 126.06 15.5951 124.969 15.1765C124.412 14.9626 124.268 13.9667 124.268 10.3165C124.268 4.59933 123.85 3.32921 121.972 3.32921C121.21 3.32921 120.469 3.14049 120.327 2.90973C120.027 2.42531 112.075 2.5477 111.263 3.0494C110.965 3.23345 110.721 4.01776 110.721 4.79132C110.721 5.56536 110.406 6.5141 110.021 6.89948C109.581 7.33905 109.32 8.48772 109.32 9.98534C109.32 12.1014 109.49 12.512 110.828 13.6294C112.06 14.6576 112.233 15.0131 111.771 15.5689C111.375 16.0468 111.169 19.427 111.081 26.9188L110.955 37.588L102.78 41.6777C98.284 43.9274 93.3329 46.1187 91.7774 46.548C89.1974 47.2599 88.7966 47.2646 87.2061 46.5999C83.6152 45.0995 83.5246 41.7067 86.8767 34.2616C87.9198 31.9456 88.6513 29.7323 88.5023 29.3441C88.3253 28.8826 87.3135 28.5388 85.579 28.3515C79.8539 27.7325 76.3486 28.5435 75.1999 30.752C74.516 32.0665 74.4128 31.4126 73.1655 17.8499C71.809 3.09751 71.4017 -0.0280498 70.9392 0.764669ZM72.4307 18.2844C73.2445 26.6306 73.8868 35.6293 73.8588 38.2822C73.8237 41.5502 74.0223 43.5832 74.473 44.5884C74.8393 45.404 75.2723 47.5715 75.4358 49.4055L75.7329 52.7389L73.9625 54.1982C72.0267 55.7935 60.3386 61.8638 53.2046 64.9781C48.8304 66.8882 48.6679 66.9214 47.2665 66.1969L45.8259 65.4518L46.6662 63.4693C47.1282 62.379 48.0872 59.9565 48.7968 58.0861C49.9642 55.0091 50.3379 54.5135 52.7268 52.8767C56.5582 50.2505 61.2056 45.0042 61.2056 43.3038C61.2056 43.0095 60.0485 42.1458 58.6341 41.3839C56.8464 40.4212 56.1391 39.7854 56.3143 39.2982C57.1397 36.9985 70.7972 2.95924 70.8668 3.02698C70.9135 3.07276 71.6175 9.93862 72.4307 18.2844ZM116.56 6.13199C116.56 8.35506 116.386 9.14357 115.86 9.30473C115.294 9.47757 115.272 9.39909 115.743 8.89973C116.622 7.9678 116.445 6.73879 115.393 6.46365C114.359 6.19365 114.195 5.16176 114.957 3.73701C115.878 2.01704 116.56 3.03632 116.56 6.13199ZM113.524 4.7306C113.524 5.82041 113.317 6.13199 112.59 6.13199C111.863 6.13199 111.656 5.82041 111.656 4.7306C111.656 3.64078 111.863 3.32921 112.59 3.32921C113.317 3.32921 113.524 3.64078 113.524 4.7306ZM120.064 4.90577C120.064 7.80618 119.546 9.40189 118.604 9.40189C117.848 9.40189 117.728 9.03006 117.728 6.67713C117.728 3.72627 117.903 3.32921 119.208 3.32921C119.869 3.32921 120.064 3.68843 120.064 4.90577ZM123.106 4.38025C123.221 4.70164 123.16 6.01287 122.969 7.2942C122.721 8.96279 122.393 9.66909 121.811 9.7812C121.126 9.91293 120.998 9.56959 120.998 7.60578C120.998 6.32351 121.126 4.94174 121.282 4.53534C121.619 3.6548 122.809 3.5539 123.106 4.38025ZM115.562 7.76694C115.414 8.15232 115.118 8.46763 114.906 8.46763C114.693 8.46763 113.927 8.71101 113.204 9.00904C111.902 9.54483 111.913 9.55418 114.225 9.92321C115.7 10.1586 116.62 10.1245 116.723 9.82932C116.824 9.53689 117.128 9.56492 117.538 9.90452C117.897 10.2026 118.636 10.3301 119.181 10.1876C119.726 10.0451 120.551 10.1652 121.014 10.4543C121.654 10.8542 122.034 10.8332 122.595 10.3674C123.258 9.81764 123.334 10.1376 123.334 13.4907V17.2263L121.874 17.5183C119.885 17.9163 115.278 17.8742 114.638 17.4529C114.351 17.2641 113.979 16.6658 113.81 16.1234C113.641 15.5811 112.666 14.3642 111.645 13.4187C109.749 11.6647 109.566 11.092 110.079 8.52602C110.366 7.091 110.417 7.06624 113.101 7.06624C115.335 7.06624 115.782 7.1933 115.562 7.76694ZM95.4957 13.3664C95.0421 15.2901 94.7614 16.9535 94.8716 17.0628C94.9824 17.1726 96.0184 17.0885 97.1746 16.876C98.3307 16.6634 99.3215 16.534 99.3762 16.5877C99.4308 16.6419 99.1706 17.8322 98.7979 19.2336C98.0192 22.1597 97.9211 23.3429 98.511 22.6917C99.0254 22.1246 100.452 16.3322 100.185 15.8992C100.074 15.7194 99.1132 15.7679 98.05 16.0071C96.9868 16.2458 96.0128 16.3369 95.8853 16.2094C95.6831 16.0071 96.2525 13.1702 96.9938 10.6865C97.1279 10.2371 97.0312 9.86902 96.7789 9.86902C96.5267 9.86902 95.9488 11.4428 95.4957 13.3664ZM117.633 11.7347C118.071 12.5036 118.586 13.1343 118.779 13.1361C119.303 13.1403 119.21 12.7615 118.375 11.4876C117.302 9.84893 116.679 10.0568 117.633 11.7347ZM124.805 16.1753C124.805 16.4196 124.579 16.6942 124.303 16.7863C124.027 16.8783 123.801 16.6036 123.801 16.1753C123.801 15.7469 124.027 15.4722 124.303 15.5643C124.579 15.6563 124.805 15.931 124.805 16.1753ZM113.057 16.4088C113.057 16.6658 112.847 16.876 112.59 16.876C112.333 16.876 112.123 16.6658 112.123 16.4088C112.123 16.1519 112.333 15.9417 112.59 15.9417C112.847 15.9417 113.057 16.1519 113.057 16.4088ZM125.124 30.0724C124.94 45.0854 124.925 45.1415 120.201 48.6099C118.57 49.8081 113.09 53.1416 108.023 56.0186C96.7593 62.4136 94.8875 63.4646 93.5856 64.1261C92.5986 64.6283 92.5748 64.8235 92.8354 70.338C93.0125 74.0876 92.9116 76.8358 92.5393 78.3876L91.974 80.7433L87.7918 81.0591C82.2129 81.4804 75.4778 83.2415 70.8369 85.4926C68.7512 86.5044 67.013 87.2976 66.9747 87.2556C66.9359 87.2135 66.4239 82.7646 65.8372 77.3692C64.8007 67.8402 64.0084 64.2284 64.0084 69.0305V71.389L59.4179 75.8436C53.8923 81.2053 52.5334 82.0013 48.95 81.9751C45.8973 81.9527 42.6069 80.5074 34.0047 75.4106L28.9919 72.441L30.6147 70.1824C32.4571 67.6179 34.5793 63.0811 34.5793 61.7068C34.5793 61.2005 34.6316 60.7866 34.696 60.7866C34.7605 60.7871 37.9122 62.3533 41.7002 64.2676L48.5875 67.7478L50.3421 67.0153C54.5047 65.2771 65.9283 59.7743 69.1468 57.9567C72.427 56.1041 72.8909 55.9747 76.4233 55.9294C79.7633 55.8869 80.4602 55.7187 82.496 54.4631C84.0539 53.5022 85.2885 52.2218 86.3236 50.4925C87.7759 48.0662 87.9656 47.9256 90.1616 47.6425C92.4571 47.3473 102.721 42.8474 108.602 39.5584C112.158 37.5698 112.11 37.7515 112.118 26.2111L112.123 18.0288L117.144 18.1919C119.907 18.2811 122.692 18.14 123.334 17.8784C123.976 17.6164 124.677 17.3889 124.891 17.3725C125.105 17.3566 125.21 23.071 125.124 30.0724ZM25.5356 24.2585L29.3381 26.2695L27.7451 30.177C25.8874 34.7334 24.3916 40.2749 23.9852 44.1035L23.6984 46.8068L22.5918 45.767C19.9277 43.2641 17.7626 37.7179 17.7626 33.3974C17.7626 28.8583 19.8857 21.7705 21.1474 22.0966C21.4697 22.1797 23.4443 23.1528 25.5356 24.2585ZM42.7559 28.6373C48.5357 31.7662 53.2644 34.5045 53.2644 34.7226C53.2644 35.4985 48.1358 43.1861 45.3681 46.5578C42.442 50.1234 39.5514 52.5464 34.8525 55.3726C32.0913 57.0332 32.0885 57.0337 31.5826 56.0186C30.8567 54.5635 26.8394 52.5633 26.0154 53.2471C25.6683 53.5353 25.246 53.633 25.0769 53.4639C24.5037 52.8902 24.7658 43.1137 25.4408 39.9054C25.8098 38.1504 26.6796 35.1412 27.3728 33.2185C28.6878 29.5735 31.7036 22.9486 32.0483 22.9486C32.1577 22.9486 36.9761 25.5085 42.7559 28.6373ZM82.9281 29.0227C83.1215 29.3357 83.5087 29.3352 84.095 29.0213C84.698 28.6985 85.0703 28.7102 85.2852 29.0578C85.4576 29.3362 86.1008 29.438 86.7151 29.2839C88.251 28.8985 88.1777 29.8323 86.3615 33.772C85.0404 36.6383 84.095 37.7739 84.095 36.4954C84.095 35.8195 82.3479 35.9204 82.0686 36.6122C81.9392 36.9336 81.8163 36.5127 81.7962 35.6779C81.7612 34.241 81.6654 34.1598 80.0043 34.1598C79.0392 34.1598 77.5402 34.3634 76.6732 34.6119L75.0967 35.0641L75.3923 32.9074C75.7049 30.625 76.4396 29.3212 77.1614 29.7673C77.4005 29.9149 77.8994 29.7842 78.2703 29.4763C78.6431 29.1671 79.4564 29.0456 80.0898 29.2044C80.7195 29.3623 81.3655 29.2811 81.5248 29.0232C81.8957 28.4225 82.5567 28.4225 82.9281 29.0227ZM135.046 32.1207C133.762 33.7534 133.823 35.3491 135.225 36.75C136.626 38.1514 138.221 38.213 139.854 36.9284C141.396 35.7153 141.542 33.2152 140.151 31.8241C138.759 30.433 136.259 30.5783 135.046 32.1207ZM139.387 32.3253C140.792 33.4306 140.933 34.4358 139.89 35.9241C139.027 37.1573 136.836 37.318 135.746 36.2287C134.657 35.1389 134.817 32.9476 136.051 32.0843C137.413 31.1295 137.912 31.1655 139.387 32.3253ZM38.3597 34.1387L36.3016 35.9461L34.0766 34.704C32.8527 34.021 31.6938 33.6193 31.5013 33.8122C31.3084 34.0047 31.6452 35.2183 32.2497 36.5089L33.3488 38.8549L31.278 40.9948L29.2073 43.1347L32.1619 42.9357L35.1165 42.7372L36.2404 44.9551C36.8584 46.1753 37.567 47.2987 37.8146 47.4515C38.0654 47.6065 38.5083 46.4929 38.8142 44.9355L39.3641 42.1411L41.5264 41.8524C44.9705 41.3928 45.2518 41.2242 44.09 40.3147C43.5397 39.884 42.4196 39.1641 41.6002 38.7147C40.3044 38.0038 40.1456 37.7151 40.381 36.4959C40.53 35.7246 40.7739 34.4634 40.9224 33.6926C41.2737 31.8741 40.8561 31.947 38.3597 34.1387ZM39.6243 36.3515C39.4888 38.4667 39.5481 38.5793 41.319 39.5845L43.1534 40.6262L41.319 40.9327C38.5326 41.3984 38.3191 41.5208 38.2836 42.6704C38.2654 43.2562 38.0865 44.1563 37.8856 44.6702C37.5633 45.4956 37.4063 45.3797 36.5361 43.6742C35.5546 41.7511 35.5429 41.7455 33.3437 41.993L31.137 42.242L32.7411 40.8084C34.4569 39.2753 34.448 39.5093 32.935 35.868C32.6061 35.0758 32.7378 35.0889 34.5779 36.0273L36.5781 37.048L38.022 35.6037C38.8161 34.8095 39.5332 34.1598 39.6154 34.1598C39.6971 34.1598 39.7013 35.1459 39.6243 36.3515ZM81.0086 35.9115C80.9012 36.3613 81.01 37.0307 81.2506 37.3998C81.6164 37.9599 81.8112 37.9683 82.4357 37.4497C83.4984 36.5678 83.8198 37.141 83.2228 38.8535C82.8804 39.8358 82.8627 40.6094 83.1691 41.1821C83.4214 41.6539 83.6278 42.5998 83.6278 43.2847C83.6278 44.0867 84.2141 45.1163 85.2754 46.1776L86.9234 47.8256L85.9527 49.8305C84.0842 53.6909 77.8111 56.8291 75.2279 55.1955C74.6463 54.8279 74.7374 54.5467 75.7936 53.4443C76.4854 52.7221 77.3664 51.2394 77.7509 50.1496C78.1353 49.0598 79.1247 47.3286 79.9492 46.3023C80.7737 45.2765 81.3408 44.3296 81.2095 44.1984C81.0782 44.0671 80.0641 44.2796 78.9556 44.6706C77.167 45.3017 76.8208 45.3031 75.8768 44.6846C74.7038 43.9162 74.4207 42.4392 74.6804 38.4489C74.8668 35.5948 75.4185 35.173 79.0294 35.1234C80.8722 35.0987 81.1749 35.2192 81.0086 35.9115ZM53.7558 39.5444C55.0872 40.2329 55.1133 40.3095 54.514 41.7632C54.1725 42.5914 52.9631 45.6385 51.8271 48.5352L49.761 53.8016L47.4571 54.4911C44.8668 55.2665 39.8485 55.3987 38.7834 54.7195C38.1948 54.3444 38.27 54.1468 39.2505 53.4886C41.5124 51.9695 46.5761 46.4952 49.2434 42.6849C50.727 40.5655 52.0387 38.831 52.1587 38.831C52.2783 38.831 52.9972 39.152 53.7558 39.5444ZM5.91198 42.8096C6.27307 45.8833 5.521 47.0479 2.86723 47.5239C-0.169108 48.0681 -0.327465 48.6282 2.63741 48.3357C5.14869 48.0877 5.61769 48.1741 6.49122 49.0476C7.03823 49.5946 7.50069 50.62 7.51844 51.3268C7.53666 52.0335 7.75061 53.0318 7.99351 53.5456C8.30275 54.1987 8.36161 53.6675 8.18831 51.7785C7.96642 49.355 8.05938 48.9589 9.0936 47.9247C9.7275 47.2908 10.7286 46.7573 11.3185 46.7395C11.9081 46.7213 12.811 46.5083 13.3249 46.2659C13.9784 45.9576 13.5075 45.9039 11.759 46.0874C8.29248 46.4513 7.14988 45.6497 6.74114 42.5676C6.57064 41.2835 6.24598 40.2324 6.01989 40.2324C5.7938 40.2324 5.74522 41.3923 5.91198 42.8096ZM58.1104 41.9071C59.2988 42.5718 60.2714 43.322 60.2714 43.5747C60.2714 45.5119 52.0947 53.6993 51.1268 52.7314C50.9461 52.5506 55.5772 40.6996 55.8285 40.6996C55.8948 40.6996 56.922 41.2428 58.1104 41.9071ZM79.4143 46.0828C79.0892 46.4742 78.7272 46.6984 78.6095 46.5812C78.2857 46.257 78.9439 45.3709 79.5082 45.3709C79.8184 45.3709 79.7829 45.639 79.4143 46.0828ZM7.89355 46.3766C8.66898 46.8605 8.68486 46.9979 8.05097 47.7383C7.08261 48.8692 5.44532 47.9658 6.1334 46.6802C6.66453 45.688 6.76403 45.6708 7.89355 46.3766ZM77.771 47.3562C77.5916 48.1909 77.1716 49.505 76.8376 50.2757L76.2299 51.6771L76.1921 49.4965C76.1711 48.297 76.0262 46.9834 75.8702 46.577C75.6549 46.016 75.8894 45.838 76.8414 45.838C78.0129 45.838 78.0746 45.9394 77.771 47.3562ZM24.408 53.9539C25.0881 54.4705 25.1185 54.6962 24.6042 55.3997C24.1006 56.0882 23.8189 56.1391 22.9809 55.6902C21.75 55.0316 21.6066 53.3055 22.7842 53.327C23.2341 53.3349 23.9642 53.6171 24.408 53.9539ZM31.2061 58.1113C31.5167 59.4174 32.2315 60.9767 32.7948 61.5765L33.8197 62.6673L32.2955 65.8138C29.7916 70.9836 29.9327 70.8897 27.1897 69.2024C25.0321 67.8743 24.8751 67.6576 25.2254 66.4916C26.1387 63.453 26.4545 63.125 27.4789 64.1495C28.238 64.9085 28.1838 64.4886 27.2906 62.6981C26.6651 61.4448 26.6301 60.8445 27.0781 59.0662C27.726 56.4913 27.5177 56.1438 26.2737 57.725C25.339 58.9134 24.3024 59.3109 24.3024 58.4808C24.3024 57.6615 25.3002 55.4174 26.0163 54.6261C26.6857 53.8862 26.8543 53.8964 28.6864 54.7868C30.4279 55.6323 30.7039 55.9971 31.2061 58.1113ZM47.1992 60.0668C46.1108 62.7747 44.9808 64.9861 44.6879 64.9814C44.395 64.9767 41.8431 63.7048 39.017 62.1558C36.1908 60.6063 33.5287 59.4296 33.1013 59.5408C32.6252 59.665 32.2357 59.4058 32.096 58.8714C31.9213 58.2034 32.4613 57.6601 34.4022 56.5497C36.8934 55.1245 36.9901 55.1086 40.0788 55.6187C42.527 56.0237 43.8401 56.0018 46.0239 55.5206C47.5654 55.181 48.9056 54.9568 49.0023 55.0232C49.099 55.089 48.2876 57.3583 47.1992 60.0668ZM22.6637 56.6651C23.4219 57.0108 23.7745 57.4672 23.6115 57.8923C23.469 58.2646 23.5914 58.8574 23.8843 59.2105C24.5869 60.0569 24.1174 60.02 22.2937 59.0858C20.556 58.1954 20.0908 57.612 20.4252 56.7413C20.72 55.9724 21.1133 55.9588 22.6637 56.6651ZM24.9391 61.6172C25.069 61.8269 24.9914 62.2954 24.7672 62.6584C24.4229 63.2157 24.0179 63.176 22.1606 62.4024C19.6381 61.3518 18.5408 60.0682 19.6007 59.4072C20.2487 59.0031 24.3809 60.7133 24.9391 61.6172ZM25.7038 59.8519C25.7038 60.1088 25.4936 60.319 25.2367 60.319C24.9797 60.319 24.7695 60.1088 24.7695 59.8519C24.7695 59.595 24.9797 59.3847 25.2367 59.3847C25.4936 59.3847 25.7038 59.595 25.7038 59.8519ZM34.1121 60.8137C34.1121 61.0557 33.9019 61.2533 33.645 61.2533C33.3881 61.2533 33.1779 60.9253 33.1779 60.525C33.1779 60.1247 33.3881 59.9266 33.645 60.0854C33.9019 60.2443 34.1121 60.5717 34.1121 60.8137ZM21.7206 63.2147C23.0654 63.8683 23.8353 64.5484 23.8353 65.0833C23.8353 66.1193 23.6741 66.1226 20.9325 65.1398C18.801 64.376 17.9462 63.4917 18.4894 62.6126C18.8772 61.9848 19.3831 62.0791 21.7206 63.2147ZM95.3818 68.4755L94.0584 73.1291L93.7519 70.5776C93.1755 65.7741 93.2904 65.1636 94.9557 64.1789C95.7905 63.6851 96.5257 63.4035 96.5893 63.552C96.6528 63.7006 96.1095 65.9166 95.3818 68.4755ZM136.875 64.1728C136.871 64.2368 131.553 77.6378 125.056 93.9523L113.243 123.615L105.326 123.479C100.971 123.404 96.657 123.234 95.7391 123.102L94.0701 122.86L92.1702 113.932L90.2699 105.004L91.7886 103.565C96.3987 99.1991 97.212 91.6779 93.8921 84.1141L92.5299 81.0105L93.9028 76.2079C94.6582 73.5663 95.3472 71.3334 95.4345 71.2461C95.9633 70.7168 136.898 63.73 136.875 64.1728ZM23.1346 66.5608C23.8507 66.6103 24.1338 67.062 24.3477 68.4938C24.5009 69.5214 24.7994 70.7645 25.0106 71.2564C25.3049 71.9398 24.2758 71.5572 20.6401 69.6322L15.8847 67.1139L17.6411 66.5514C18.6072 66.2417 20.0282 66.103 20.7989 66.2427C21.5697 66.3823 22.6207 66.5257 23.1346 66.5608ZM20.2893 70.431C23.9095 72.3957 26.945 74.0633 27.0351 74.1367C27.2411 74.3053 26.1602 77.7228 25.7598 78.1675C25.5959 78.3497 22.0466 76.6508 17.8724 74.3922L10.2834 70.2861L11.5703 68.5895C12.2785 67.6562 13.0488 66.885 13.2824 66.8756C13.5159 66.8663 16.669 68.4662 20.2893 70.431ZM28.7401 71.063C28.899 71.3199 28.7009 71.5301 28.3006 71.5301C27.9002 71.5301 27.5723 71.3199 27.5723 71.063C27.5723 70.8061 27.7699 70.5958 28.0119 70.5958C28.2539 70.5958 28.5813 70.8061 28.7401 71.063ZM64.6152 76.6704C64.4097 76.8507 62.3702 77.7696 60.0822 78.7127L55.9229 80.4271L60.0822 76.3046L64.242 72.1818L64.6152 74.2623C64.8203 75.4068 64.8203 76.4901 64.6152 76.6704ZM65.1435 78.6538C65.3617 79.703 66.316 88.3449 66.487 90.8235C66.5739 92.0754 66.2567 92.2833 59.2199 95.5915C43.4472 103.006 39.7513 105.984 39.6434 111.365L39.6028 113.385L32.7701 114.585C29.012 115.245 25.9047 115.761 25.8649 115.73C25.7173 115.615 39.8064 80.6247 40.1404 80.2771C40.3319 80.0781 41.7338 80.4854 43.2562 81.1824C47.55 83.1485 49.9791 83.1523 55.4328 81.2011C57.9656 80.2949 60.9837 79.1294 62.1399 78.6109C64.8329 77.4038 64.8838 77.4047 65.1435 78.6538ZM93.1489 84.1034C96.43 91.4153 95.7256 98.7058 91.3243 102.98C88.614 105.612 74.2642 112.245 61.7895 116.631C60.4409 117.105 59.3371 117.684 59.3371 117.918C59.3371 118.152 59.7047 118.192 60.1546 118.008C62.0759 117.219 62.358 117.571 66.8995 126.418C69.4051 131.299 71.4614 135.689 71.4689 136.172C71.4834 137.108 67.758 141.132 66.8775 141.132C66.5893 141.132 65.4294 139.292 64.2999 137.043C62.124 132.711 53.2644 114.084 53.2644 113.842C53.2644 113.763 56.6805 112.165 60.8553 110.291C86.8006 98.6414 86.475 98.8147 87.648 96.0077C88.549 93.8509 88.4575 90.6689 87.3616 86.0985C86.8496 83.9623 86.4306 82.1339 86.4306 82.0354C86.4306 81.9363 87.5344 81.7785 88.883 81.6841C90.2316 81.5897 91.4644 81.4739 91.6218 81.4262C91.7797 81.3786 92.4669 82.5833 93.1489 84.1034ZM86.6305 86.1718C87.0341 87.9137 87.3649 90.7123 87.3649 92.3912C87.3649 97.6805 87.5807 97.5231 68.9049 105.871C57.7993 110.834 52.3302 113.434 52.3302 113.748C52.3302 113.838 55.2731 120.05 58.87 127.552C62.4669 135.055 65.4098 141.382 65.4098 141.612C65.4098 142.888 56.2825 143.675 55.5323 142.464C46.7998 128.363 41.2499 117.627 40.5342 113.45C40.0652 110.71 40.1105 110.284 41.0845 108.272C41.8469 106.697 42.9553 105.504 45.0191 104.039C48.1872 101.79 58.0469 96.7789 69.03 91.8358C72.9479 90.0723 76.1538 88.4659 76.1538 88.2659C76.1538 87.8507 75.3255 88.1482 70.8551 90.1704C69.0968 90.966 67.5731 91.6167 67.4684 91.6167C67.3638 91.6167 67.2783 90.8095 67.2783 89.8224C67.2783 88.0707 67.353 87.9917 70.4314 86.4909C74.7444 84.3874 76.6662 83.7273 81.2922 82.759C84.2276 82.1442 85.3455 82.0681 85.5795 82.4661C85.7533 82.7622 86.2265 84.4299 86.6305 86.1718ZM10.8692 88.4201C9.43087 89.8584 10.8234 91.9353 12.8802 91.4191C13.9041 91.1622 14.0611 90.8945 13.9373 89.6155C13.8205 88.4075 13.5626 88.0866 12.6209 87.9763C11.9767 87.9011 11.1887 88.1006 10.8692 88.4201ZM13.0913 88.8078C13.6234 89.147 13.6715 89.4478 13.2917 90.0574C12.5961 91.1729 11.7441 91.3672 11.4068 90.4876C11.0878 89.6566 11.4685 88.343 12.0258 88.3538C12.2262 88.358 12.7059 88.5621 13.0913 88.8078ZM137.526 93.9276C137.692 94.8132 137.958 96.6411 138.117 97.9897C138.383 100.261 138.304 100.542 137.034 101.812C136.003 102.843 135.034 103.266 133.119 103.524C131.72 103.713 130.259 104.059 129.874 104.294C129.438 104.56 130.231 104.591 131.976 104.375C138.082 103.62 139.288 104.359 140.192 109.418C140.508 111.188 140.968 112.637 141.214 112.637C141.46 112.637 141.529 112.165 141.369 111.586C141.209 111.008 140.948 109.368 140.791 107.941C140.387 104.296 141.496 103.059 146.235 101.863L149.727 100.982L146.69 101.269C145.02 101.426 143.131 101.524 142.493 101.487C140.543 101.372 139.26 99.6121 138.689 96.2716C138.405 94.6105 137.96 93.0414 137.699 92.7845C137.378 92.4687 137.322 92.8396 137.526 93.9276ZM141.465 101.894C142.206 101.894 142.163 102.284 141.329 103.118C140.949 103.498 140.452 104.141 140.225 104.547C139.859 105.2 139.647 105.164 138.399 104.242L136.988 103.198L137.985 101.66C138.972 100.139 138.993 100.132 139.947 101.008C140.477 101.495 141.16 101.894 141.465 101.894ZM89.7005 105.813C89.7005 105.913 90.5414 109.904 91.569 114.682C92.5967 119.46 93.4376 123.447 93.4376 123.542C93.4376 123.637 96.9583 123.859 101.262 124.035C108.286 124.323 109.167 124.451 109.878 125.29C111.506 127.211 111.616 135.244 110.056 138.261L109.25 139.82L98.8913 139.595C88.0618 139.359 85.1311 138.935 82.6244 137.245C80.7508 135.981 78.3829 131.436 75.7618 124.07L73.8172 118.607L75.6684 116.396C78.4413 113.084 84.0235 108.256 86.6642 106.886C88.9335 105.709 89.7005 105.437 89.7005 105.813ZM77.5173 113.455C75.6114 115.446 73.9064 117.141 73.7289 117.222C73.3809 117.38 72.1407 113.664 72.4588 113.417C72.7134 113.219 80.5359 109.868 80.7872 109.85C80.8947 109.841 79.4232 111.464 77.5173 113.455ZM115.607 126.418C116.788 128.831 116.944 136.399 115.857 138.563C115.115 140.038 113.545 140.539 111.372 139.994L110.268 139.717L111.078 137.739C112.208 134.983 112.178 127.957 111.029 125.807L110.203 124.262L112.447 124.406C114.55 124.54 114.75 124.667 115.607 126.418ZM119.053 127.803C123.674 133.067 129.634 144.797 128.343 146.089C127.934 146.498 121.791 143.192 119.299 141.223L116.943 139.36L117.157 134.524C117.275 131.864 117.153 128.9 116.887 127.936C116.25 125.634 117.103 125.582 119.053 127.803ZM122.773 130.315C126.183 134.6 129.373 141.123 129.662 144.402L129.888 146.972L129.033 144.169C127.371 138.722 124.442 133.293 120.658 128.647C119.541 127.276 119.003 126.391 119.463 126.679C119.922 126.968 121.412 128.604 122.773 130.315ZM18.9262 131.727C14.9575 133.53 12.2691 138.299 12.7816 142.628C13.8027 151.248 24.1422 155.342 30.4746 149.632C32.9784 147.375 34.0888 144.866 34.1018 141.436C34.1135 138.311 33.24 136.128 31.1342 134.022C28.0558 130.944 22.8179 129.959 18.9262 131.727ZM28.0684 132.505C31.0538 134.049 33.6399 138.27 33.6399 141.6C33.6399 146.836 28.9784 151.464 23.661 151.506C20.7008 151.53 18.4446 150.618 16.3972 148.57C14.3736 146.547 13.5584 144.546 13.5584 141.6C13.5584 136.601 16.3804 132.992 21.2661 131.742C23.0197 131.293 26.4741 131.681 28.0684 132.505ZM74.2642 141.528C74.3455 143.952 68.6498 147.494 63.5254 148.204C59.6945 148.735 59.0237 148.471 57.5485 145.846L56.4745 143.935H59.0012C63.6824 143.935 69.2094 141.415 71.2452 138.351L72.1757 136.951L73.2095 138.925C73.7779 140.01 74.2526 141.182 74.2642 141.528ZM100.943 140.665H106.439L102.355 150.825C100.109 156.413 96.9308 164.43 95.2935 168.639C93.1157 174.236 92.2244 176.056 91.9764 175.412C91.7895 174.928 91.0664 168.226 90.3699 160.518C89.673 152.811 88.9643 145.058 88.7943 143.291L88.4855 140.077L91.9661 140.371C93.8809 140.533 97.9201 140.665 100.943 140.665ZM75.3849 144.963C76.4079 146.585 68.5452 157.933 63.2839 162.428C61.8713 163.634 60.6231 164.529 60.5101 164.416C60.1373 164.044 61.2444 157.797 62.4543 153.442L63.6417 149.168L66.2987 148.423C68.9035 147.692 72.9147 145.486 73.5715 144.423C73.9844 143.756 74.7711 143.99 75.3849 144.963ZM77.088 146.52C77.088 147.307 74.2404 152.188 71.7824 155.613C68.8633 159.682 63.1082 165.806 61.2897 166.78C60.418 167.246 60.276 167.204 60.3036 166.491C60.3213 166.032 61.5859 164.649 63.1134 163.417C66.7182 160.51 72.42 153.638 74.6384 149.528C76.1365 146.751 77.088 145.583 77.088 146.52Z" fill="black"/>
</svg>
